<svg id="Vici" xmlns="http://www.w3.org/2000/svg" width="203" height="362" viewBox="0 0 203 362">
  <metadata><?xpacket begin="﻿" id="W5M0MpCehiHzreSzNTczkc9d"?>
<x:xmpmeta xmlns:x="adobe:ns:meta/" x:xmptk="Adobe XMP Core 5.6-c138 79.159824, 2016/09/14-01:09:01        ">
   <rdf:RDF xmlns:rdf="http://www.w3.org/1999/02/22-rdf-syntax-ns#">
      <rdf:Description rdf:about=""/>
   </rdf:RDF>
</x:xmpmeta>





















<?xpacket end="w"?></metadata>
<defs>
    <style>
      .cls-1 {
        fill: #ddd;
      }

      .cls-2 {
        fill: #6d6356;
      }

      .cls-3 {
        fill: #b5a286;
      }

      .cls-4 {
        fill: #565656;
      }

      .cls-10, .cls-11, .cls-12, .cls-13, .cls-14, .cls-15, .cls-16, .cls-17, .cls-18, .cls-20, .cls-4, .cls-5, .cls-8, .cls-9 {
        fill-rule: evenodd;
      }

      .cls-5, .cls-6 {
        fill: #f4912d;
      }

      .cls-10, .cls-7 {
        fill: #eacca9;
      }

      .cls-8 {
        fill: #e8ae97;
      }

      .cls-9 {
        fill: #060016;
      }

      .cls-11 {
        fill: #530267;
      }

      .cls-12 {
        fill: #d65c4f;
      }

      .cls-13 {
        fill: #e3676c;
      }

      .cls-14 {
        fill: #0a0b0a;
      }

      .cls-15 {
        fill: #202532;
      }

      .cls-16, .cls-19 {
        fill: #deb888;
      }

      .cls-17 {
        fill: #55432b;
      }

      .cls-18 {
        fill: #f8d8b0;
      }

      .cls-20 {
        fill: #413321;
      }

      .cls-21 {
        fill: #c4c4c4;
        opacity: 0.9;
      }

      .cls-22 {
        fill: #25ba45;
      }

      .cls-23 {
        fill: #7b7b7b;
      }
    </style>
  </defs>
  <rect class="cls-1" x="-56" y="-4" width="330" height="276"/>
  <rect class="cls-2" x="-86" y="263" width="382" height="155"/>
  <rect class="cls-3" x="-15" y="258" width="232" height="19"/>
  <path class="cls-4" d="M-51.447,171.345l233.569-25.9,14.327,129.208-233.569,25.9Z"/>
  <path id="Rounded_Rectangle_16" data-name="Rounded Rectangle 16" class="cls-5" d="M51.206,235.429a64.452,64.452,0,0,1,74.423,52.625l4.495,26.2a64.452,64.452,0,1,1-127.048,21.8l-4.495-26.2A64.453,64.453,0,0,1,51.206,235.429Z"/>
  <rect id="Rounded_Rectangle_17" data-name="Rounded Rectangle 17" class="cls-6" x="-17" y="251" width="68" height="98" rx="23.5" ry="23.5"/>
  <ellipse class="cls-7" cx="-11.5" cy="338.5" rx="37.5" ry="52.5"/>
  <path id="Rounded_Rectangle_15" data-name="Rounded Rectangle 15" class="cls-8" d="M45,201.905a20.47,20.47,0,0,1,23.637,16.713l4.456,25.968a20.47,20.47,0,0,1-40.351,6.924l-4.456-25.968A20.47,20.47,0,0,1,45,201.905Z"/>
  <path class="cls-9" d="M115.445,172.1a42.685,42.685,0,1,1-53.075-34.15,28.366,28.366,0,0,1-4.091-10.558c-0.122-.709-0.187-1.413-0.255-2.117A30.113,30.113,0,1,1,92.61,90.5a30.448,30.448,0,0,1,.435,4.578,28.408,28.408,0,0,1,8.015,51.687A42.716,42.716,0,0,1,115.445,172.1ZM32,195.722c3.142,18.313-8.916,35.665-26.932,38.756S-30.1,225.23-33.239,206.916a33.738,33.738,0,0,1,10.968-31.161,22.264,22.264,0,0,1-15.8-17.639,22.27,22.27,0,0,1,9.414-22.181,29.8,29.8,0,0,1-17.023-22.164c-2.773-16.162,7.854-31.473,23.736-34.2s31,8.168,33.778,24.33A29.626,29.626,0,0,1-4.216,135.628,22.224,22.224,0,0,1,5.716,150.6a22.226,22.226,0,0,1-4.173,17.173A33.544,33.544,0,0,1,32,195.722Z"/>
  <path id="Rounded_Rectangle_14" data-name="Rounded Rectangle 14" class="cls-10" d="M-2.249,84.152l52.543-9.015a27.778,27.778,0,0,1,32.075,22.68l11.806,68.807a54.433,54.433,0,1,1-107.3,18.411l-11.806-68.808A27.778,27.778,0,0,1-2.249,84.152Z"/>
  <path class="cls-8" d="M72.138,159.148a15.286,15.286,0,1,1-12.433,17.643A15.262,15.262,0,0,1,72.138,159.148ZM8.6,170.05A15.286,15.286,0,1,1-3.833,187.693,15.262,15.262,0,0,1,8.6,170.05Z"/>
  <path class="cls-9" d="M99.2,111.82a12.648,12.648,0,0,1-3.713,22.873,14.17,14.17,0,0,1,5.352,8.893,13.747,13.747,0,0,1-10.95,16.057,13.446,13.446,0,0,1-12.928-5.182,12.217,12.217,0,0,0,6.91-22.684,12.592,12.592,0,0,1-3.323-13.813,33.955,33.955,0,0,1-37.984-9.15,26.986,26.986,0,0,1-35.119,7.239A23.79,23.79,0,0,1-6.615,127.294a14.682,14.682,0,0,1,3.351,7.116A14.372,14.372,0,0,1-10.2,149.4a9.132,9.132,0,0,1,1.233,3.268,8.516,8.516,0,0,1-6.678,10.012,8.516,8.516,0,0,1-9.633-7.214,8.963,8.963,0,0,1,1.262-6.363,14.575,14.575,0,0,1-6.7-9.983,14.438,14.438,0,0,1,5.579-14.112,24.6,24.6,0,0,1-11.853-17.162A24.212,24.212,0,0,1-17.509,79.689c0.326-.056.651-0.09,0.977-0.131A29.126,29.126,0,0,1,31.823,58.268a35.728,35.728,0,0,1,69.8,11.893A24.016,24.016,0,0,1,99.2,111.82Z"/>
  <path class="cls-11" d="M-15.779,174.672a16.171,16.171,0,0,0,11.6,12.943,14.757,14.757,0,0,1-3.867,1.24,14.836,14.836,0,0,1-17.118-12.133,14.838,14.838,0,0,1,12.094-17.146,14.86,14.86,0,0,1,2.884-.2A16.224,16.224,0,0,0-15.779,174.672Z"/>
  <path class="cls-12" d="M48.443,199.852c4.576,0.39,8.317,4.8,8.356,9.86s-3.64,8.838-8.216,8.448-8.317-4.8-8.356-9.86S43.867,199.463,48.443,199.852Z"/>
  <path class="cls-13" d="M39.229,154.4c2.45-.42,5.571,5.858,6.972,14.023s0.551,15.125-1.9,15.545-5.571-5.858-6.972-14.023S36.78,154.816,39.229,154.4Z"/>
  <path id="Ellipse_66_copy" data-name="Ellipse 66 copy" class="cls-14" d="M63.008,139.441a9.6,9.6,0,1,1-7.81,11.084A9.588,9.588,0,0,1,63.008,139.441Zm-52.225,9.838a9.619,9.619,0,1,1-7.807,11.1A9.6,9.6,0,0,1,10.784,149.279Z"/>
  <path id="Rounded_Rectangle_13" data-name="Rounded Rectangle 13" class="cls-15" d="M122.542,223.128l63.666,8.493a40,40,0,0,1,34.36,44.937l-11.36,85.162a40,40,0,0,1-44.938,34.359L100.6,387.586a40,40,0,0,1-34.36-44.938L77.6,257.487A40,40,0,0,1,122.542,223.128Z"/>
  <path id="Rounded_Rectangle_12" data-name="Rounded Rectangle 12" class="cls-16" d="M157.991,171.446l9.447,1.26a21.5,21.5,0,0,1,18.468,24.154l-4.74,35.531a21.5,21.5,0,0,1-24.154,18.468l-9.446-1.26A21.5,21.5,0,0,1,129.1,225.445l4.739-35.531A21.5,21.5,0,0,1,157.991,171.446Z"/>
  <path class="cls-17" d="M244.94,130.767a35.942,35.942,0,0,1-6.643,16.967,27.678,27.678,0,0,1,2.264,15.151c-2.123,15.913-17.527,26.987-34.406,24.736s-28.841-16.977-26.718-32.89c1.989-14.91,15.637-25.571,31.233-25,0.056-1.148.155-2.312,0.312-3.489,1.943-14.566,11.12-25.359,20.5-24.108S246.883,116.2,244.94,130.767ZM124.065,159.653c-1.147-.153-2.272-0.361-3.381-0.6-2.925,6.078-9.132,9.894-15.732,9.014-8.367-1.117-14.173-9.34-12.969-18.369a17.372,17.372,0,0,1,3.293-8.112,36.9,36.9,0,0,1-5.639-24.933c2.78-20.842,22.7-35.381,44.5-32.474s37.209,22.16,34.429,43S145.859,162.56,124.065,159.653Z"/>
  <path class="cls-18" d="M112.307,120.023c8.367,1.116,14.281,8.534,13.209,16.569s-8.723,13.643-17.09,12.527-14.28-8.534-13.209-16.569S103.941,118.907,112.307,120.023Zm117.41,15.663c8.367,1.116,14.281,8.534,13.209,16.568s-8.723,13.643-17.09,12.527-14.28-8.534-13.208-16.569S221.351,134.569,229.717,135.686Z"/>
  <circle id="Ellipse_57_copy_2" data-name="Ellipse 57 copy 2" class="cls-19" cx="225.781" cy="150.906" r="8.594"/>
  <path id="Rounded_Rectangle_10" data-name="Rounded Rectangle 10" class="cls-18" d="M156.723,71.475l38.671,5.159a40,40,0,0,1,34.36,44.938l-6.236,46.745a59.429,59.429,0,0,1-66.764,51.048l-0.156-.021A59.428,59.428,0,0,1,105.55,152.58l6.235-46.745A40,40,0,0,1,156.723,71.475Z"/>
  <path class="cls-16" d="M216.561,117.156l-5.274,24.228,19.969-15.513,5.274-24.228-19.969,15.513"/>
  <path id="Ellipse_47_copy_2" data-name="Ellipse 47 copy 2" class="cls-17" d="M243.736,80.244a10.823,10.823,0,0,0-8.1.338,13.616,13.616,0,0,0-7.686,10.947,19.482,19.482,0,0,0,2.6.963c-0.3.357-.585,0.724-0.911,1.069-0.531.563-1.094,1.081-1.663,1.59a14.187,14.187,0,0,0,.62,2.691c2.05,6.063,7.751,9.316,13.353,7.994a20.342,20.342,0,0,1-.1,4.2,20.7,20.7,0,0,1-2.449,7.368,11.158,11.158,0,0,1,2.281,8.325,11.709,11.709,0,0,1-13.361,9.769,12.044,12.044,0,0,1-9.426-6.9c-0.71-.029-1.424-0.088-2.143-0.184-11.4-1.521-19.687-11-19.572-21.778a19.706,19.706,0,0,1-9.024-7.344,27.1,27.1,0,0,1-32.5-5.769,20.859,20.859,0,0,1-12.692,11.671,19.549,19.549,0,0,1-19.852,9.819c-0.29-.038-0.574-0.093-0.859-0.143a10.6,10.6,0,0,1-20.153-3.987c-7.431-2.59-12.305-9.7-11.291-17.3A15.015,15.015,0,0,1,91.825,89.8a31.805,31.805,0,0,1-3.308-12.889C88.03,62.305,98.745,51.856,113.121,52a15.429,15.429,0,0,0-4.038,11.282c0.22,6.619,3.964,12.936,9.41,17.026a25.736,25.736,0,0,1-3.774-17.059c1.9-14.575,15.77-24.821,30.984-22.884a29.028,29.028,0,0,1,3.887.8,16.973,16.973,0,0,0,.127,21.984,28.618,28.618,0,0,1,.041-7.016c2.176-16.315,17.714-27.7,34.7-25.438a32.536,32.536,0,0,1,4.375.9,18.972,18.972,0,0,0-.812,23.54c0.591,0.319,1.153.678,1.713,1.038a28.66,28.66,0,0,1,37.726-.2,27.667,27.667,0,0,1,2.74,2.784,18.112,18.112,0,0,0-8.341,4.985,16.932,16.932,0,0,0-4.576,9.938A18.5,18.5,0,0,1,221,71.465C229.769,67.58,239.413,71.508,243.736,80.244Z"/>
  <path class="cls-12" d="M183.988,189.838c-2.241,10.383-12.161,17.831-23.576,17.11s-20.4-9.365-21.41-19.954Z"/>
  <path id="Rounded_Rectangle_11" data-name="Rounded Rectangle 11" class="cls-16" d="M165.856,139.152l0.008,0c2.406,0.768,3.924,5.432,3.391,10.417l-1.78,16.644c-0.533,4.984-2.916,8.4-5.321,7.634l-0.008,0c-2.406-.768-3.924-5.432-3.391-10.417l1.78-16.644C161.068,141.8,163.451,138.383,165.856,139.152Z"/>
  <path id="Shape_2_copy" data-name="Shape 2 copy" class="cls-9" d="M209.582,154.286a10.5,10.5,0,0,0-20.208-2.7l-5.753-.767a16.18,16.18,0,0,1,31.713,4.23ZM143.3,145.444a10.5,10.5,0,0,0-20.208-2.7l-5.753-.767a16.18,16.18,0,0,1,31.713,4.23Z"/>
  <path id="Ellipse_56_copy" data-name="Ellipse 56 copy" class="cls-20" d="M216.769,131.091a17.381,17.381,0,0,0-32.951-2.246,15.481,15.481,0,0,1,.067-3.437c1.172-8.782,9.536-14.912,18.682-13.692s15.61,9.328,14.439,18.11C216.948,130.256,216.86,130.675,216.769,131.091Zm-65.324-8.641a17.38,17.38,0,0,0-32.968-2.322,15.411,15.411,0,0,1,.067-3.436c1.171-8.782,9.542-14.912,18.7-13.691s15.626,9.331,14.454,18.113C151.634,121.568,151.543,122.011,151.445,122.45Z"/>
  <rect id="Rounded_Rectangle_18" data-name="Rounded Rectangle 18" class="cls-21" x="10" y="132" width="182" height="54" rx="10" ry="10"/>
  <rect id="Rounded_Rectangle_19" data-name="Rounded Rectangle 19" class="cls-22" x="9" y="316" width="33" height="33" rx="10" ry="10"/>
  <rect id="Rounded_Rectangle_20" data-name="Rounded Rectangle 20" class="cls-23" x="157" y="317" width="33" height="33" rx="10" ry="10"/>
</svg>
