<svg xmlns="http://www.w3.org/2000/svg" width="139" height="58" viewBox="0 0 139 58"><defs><style>.cls-1{fill:#97cbe1;}.cls-2{fill:#eddb67;}.cls-3{fill:#56bdef;}.cls-4{fill:#df8571;}.cls-5{fill:#d962a6;}.cls-6{fill:#fff;}.cls-7{fill:#1f1f1f;}.cls-8{font-size:16px;fill:#1f2532;font-family:Roboto-Regular, Roboto;}.cls-9{letter-spacing:-0.01em;}</style></defs><title>Asset 21</title><g id="Layer_2" data-name="Layer 2"><g id="Taleboble2"><rect class="cls-1" x="1.92" width="137.08" height="58" rx="4.5" ry="4.5" transform="translate(140.92 58) rotate(-180)"/><path class="cls-1" d="M1.92,50.71S1.92,56,.46,57s1,1,1,1H6.26Z"/><g id="Artboard_1" data-name="Artboard 1"><circle class="cls-2" cx="121.66" cy="39.94" r="6.06"/><path id="Shape_1_copy" data-name="Shape 1 copy" class="cls-3" d="M128.71,40.83a1.48,1.48,0,0,1-2.38,1.77h0c-.48-.66-.76-3.53-.76-3.53S128.22,40.17,128.71,40.83Zm-14.42,0a1.49,1.49,0,0,0,.31,2.08,1.47,1.47,0,0,0,2.06-.31h0c.48-.66.76-3.54.76-3.54s-2.65,1.11-3.14,1.77Z"/><path class="cls-4" d="M125.18,41.13a3.52,3.52,0,0,1-7,0Z"/><ellipse class="cls-5" cx="121.72" cy="43.07" rx="2.12" ry="1.52"/><path id="Rounded_Rectangle_1" data-name="Rounded Rectangle 1" class="cls-6" d="M118.75,41.13h5.89v.34a.35.35,0,0,1-.35.34h-5.2a.34.34,0,0,1-.34-.34v-.34Z"/><path id="Rounded_Rectangle_2" data-name="Rounded Rectangle 2" class="cls-7" d="M117.93,37.51h1.67a.56.56,0,0,1,.56.56h0a.57.57,0,0,1-.56.57h-1.67a.58.58,0,0,1-.57-.57h0A.57.57,0,0,1,117.93,37.51Z"/><path id="Rounded_Rectangle_2_copy" data-name="Rounded Rectangle 2 copy" class="cls-7" d="M123.48,37.51h1.67a.57.57,0,0,1,.57.56h0a.58.58,0,0,1-.57.57h-1.67a.57.57,0,0,1-.56-.57h0A.56.56,0,0,1,123.48,37.51Z"/></g><text class="cls-8" transform="translate(10.02 24.78)">Se h<tspan class="cls-9" x="30.74" y="0">v</tspan><tspan x="38.38" y="0">ad Lea </tspan><tspan x="0" y="19.2">sendte til mig!</tspan></text></g></g></svg>
