<svg xmlns="http://www.w3.org/2000/svg" width="139" height="127" viewBox="0 0 139 127"><defs><style>.cls-1{fill:#97cbe1;}.cls-2{fill:#d4e2d9;}.cls-3{fill:#f8b1ae;}.cls-4{fill:#f2c46a;}.cls-5{fill:#e8b252;}.cls-6{fill:#b2c0b7;}.cls-7{fill:#ed9a94;}.cls-8{fill:#f9c993;}.cls-9{fill:#e49791;}.cls-10{fill:#c6676d;}.cls-11{fill:#c38c8a;}.cls-12{fill:#e38383;}.cls-13{fill:#293941;}.cls-14{fill:#63737b;}.cls-15{fill:#21323a;}.cls-16{fill:#495961;}.cls-17{fill:#b6515a;}</style></defs><title>Asset 20</title><g id="Layer_2" data-name="Layer 2"><g id="Taleboble2"><rect class="cls-1" x="1.92" width="137.08" height="127" rx="4.5" ry="4.5" transform="translate(140.92 127) rotate(-180)"/><path class="cls-1" d="M1.92,120.66s0,4.6-1.46,5.47,1,.87,1,.87H6.26Z"/><path class="cls-2" d="M77.9,5.63h23.48c0,1.13,0,2.26,0,3.39,0,.4.12.54.52.53.94,0,1.88,0,2.82,0,.47,0,.59.16.58.6,0,.88,0,1.76,0,2.64,0,.51-.11.72-.66.69-.92-.05-1.84,0-2.76,0-.38,0-.51.13-.5.5,0,1,0,2,0,2.93,0,.38-.13.51-.5.5-1,0-1.92,0-2.88,0-.43,0-.56.15-.55.57q0,1.38,0,2.76c0,.43.11.61.58.6.94,0,1.88,0,2.82,0,.4,0,.54.13.53.53,0,1,0,1.92,0,2.87,0,.41.14.54.54.53,1.13,0,2.26,0,3.39,0,0,1.13,0,2.26,0,3.39,0,.4-.12.54-.53.53-.92,0-1.84,0-2.75,0-.53,0-.65.16-.64.65,0,2.19,0,4.37,0,6.56,0,.52-.16.65-.66.64-1.09,0-2.18,0-3.27,0l-3.91-.05c0-1.1,0-2.21,0-3.31,0-.42-.11-.58-.55-.57-1.12,0-2.25,0-3.37,0l-3.92,0c0-1.11,0-2.22,0-3.33,0-.41-.11-.58-.55-.57-1.13,0-2.25,0-3.38,0l-3.92,0c0-1.12,0-2.24,0-3.37,0-.4-.13-.53-.53-.52-1.12,0-2.25,0-3.37,0l0-3.92V13.47c0-1.12,0-2.23,0-3.34,0-.44.11-.62.58-.6.94,0,1.88,0,2.82,0,.39,0,.53-.12.53-.53C77.88,7.89,77.89,6.76,77.9,5.63Z"/><path class="cls-3" d="M27,107.4v-47h3.91c0,1.13,0,2.26,0,3.39,0,.41.13.54.53.53.94,0,1.88,0,2.82,0,.47,0,.58.17.58.6,0,1.12,0,2.23,0,3.34q0,9.78,0,19.56c-1.09,0-2.19,0-3.28,0-.45,0-.64.1-.63.6,0,2.42,0,4.83,0,7.24V107.4Z"/><path class="cls-4" d="M27,48.69V40.86h3.93c2.41,0,4.82,0,7.23,0,.46,0,.6.14.59.59,0,.94,0,1.88,0,2.81,0,.41.14.54.54.53.95,0,1.91,0,2.87,0,.4,0,.53.14.52.53,0,1,0,1.91,0,2.87,0,.41.13.53.53.53,1.13,0,2.26,0,3.39,0v7.83c-2.42,0-4.83,0-7.25,0-.45,0-.61-.12-.59-.58,0-.92,0-1.84,0-2.76,0-.46-.15-.59-.6-.58H30.92c0-1.13,0-2.26,0-3.39,0-.4-.13-.53-.53-.53C29.27,48.7,28.14,48.69,27,48.69Z"/><path class="cls-5" d="M27,29.12V21.29c1.13,0,2.26,0,3.39,0,.4,0,.53-.12.53-.52,0-1.13,0-2.26,0-3.39,1.13,0,2.26,0,3.39,0,.4,0,.53-.14.52-.53,0-1,0-1.92,0-2.87,0-.4-.13-.53-.53-.53-1.12,0-2.25,0-3.38,0h0V5.63H42.67v7.84c0,1.11,0,2.22,0,3.33,0,.47-.15.6-.59.59-.94,0-1.88,0-2.82,0-.41,0-.53.14-.52.53,0,1.13,0,2.26,0,3.39-1.13,0-2.27,0-3.4,0-.4,0-.54.12-.53.52,0,1.13,0,2.26,0,3.39-1.13,0-2.26,0-3.39,0-.4,0-.54.12-.53.52,0,1.13,0,2.26,0,3.39Z"/><path class="cls-4" d="M42.68,13.47V5.63h27.4c0,2.61,0,5.22,0,7.83H66.15c0-1.13,0-2.26,0-3.39,0-.39-.12-.54-.53-.53-1,0-1.95,0-2.93,0-.34,0-.47.12-.47.47,0,1,0,2,0,2.93,0,.4.14.53.53.52,1.13,0,2.26,0,3.39,0v3.92H62.23l-3.91,0c0-1.11,0-2.22,0-3.33,0-.47-.16-.59-.6-.58-1.11,0-2.22,0-3.33,0h0c0-1.13,0-2.26,0-3.39,0-.39-.12-.53-.52-.53-2.26,0-4.52,0-6.78,0-.4,0-.54.13-.53.53,0,1.13,0,2.26,0,3.39Z"/><path class="cls-6" d="M105.3,25.2c-1.13,0-2.26,0-3.39,0-.4,0-.55-.12-.54-.53,0-.95,0-1.91,0-2.87,0-.4-.13-.54-.53-.53-.94,0-1.88,0-2.82,0-.47,0-.59-.17-.58-.6q0-1.38,0-2.76c0-.42.12-.58.55-.57,1,0,1.92,0,2.88,0,.37,0,.51-.12.5-.5,0-1,0-1.95,0-2.93,0-.37.12-.51.5-.5.92,0,1.84,0,2.76,0,.55,0,.68-.18.66-.69,0-.88,0-1.76,0-2.64,0-.44-.11-.62-.58-.6-.94,0-1.88,0-2.82,0-.4,0-.53-.13-.52-.53,0-1.13,0-2.26,0-3.39h11.86c0,3.58,0,7.17-.11,10.75,0,1.13.12,1-1,1-.79,0-1.57,0-2.36,0-.4,0-.54.12-.53.52,0,1.14,0,2.27,0,3.4h0c-1.13,0-2.26,0-3.39,0-.4,0-.53.13-.53.53,0,1.13,0,2.26,0,3.39Z"/><path class="cls-7" d="M27,107.4h3.91q0,5.86,0,11.75H27Z"/><path class="cls-6" d="M70.08,13.46c0-2.61,0-5.22,0-7.83H77.9c0,1.13,0,2.26,0,3.39,0,.41-.14.54-.53.53-.94,0-1.88,0-2.82,0-.47,0-.59.16-.58.6,0,1.11,0,2.22,0,3.34Z"/><path class="cls-2" d="M109.21,21.29c0-1.13,0-2.26,0-3.4,0-.4.13-.53.53-.52.79,0,1.57,0,2.36,0,1.15,0,1,.14,1-1,.13-3.58.08-7.17.11-10.75,0,0,.12-.06.12.06s0,.3,0,.46q0,57.11,0,114.21c0,.43-.1.53-.53.53q-42.66,0-85.31,0c-.17,0-.39.13-.52-.11l3.92,0h3.93l7.8,0h62.65l3.92,0h3.9a5.41,5.41,0,0,0,.09-1.7V95.66c0-1.31,0-2.62,0-3.92V76.08c0-3.91,0-7.83,0-11.74q0-7.83,0-15.65,0-3.91,0-7.83v-3.8a.21.21,0,0,0,0-.11v-3.9c0-3.73,0-7.46,0-11.19,0-.45-.13-.6-.59-.59C111.51,21.3,110.36,21.29,109.21,21.29Z"/><path class="cls-8" d="M30.93,17.38c0,1.13,0,2.26,0,3.39,0,.4-.13.53-.53.52-1.13,0-2.26,0-3.39,0V13.46h3.92Z"/><path class="cls-4" d="M30.92,13.45H27c0-2.48,0-5,0-7.45,0-.3,0-.4.37-.39,1.18,0,2.37,0,3.55,0Z"/><path class="cls-4" d="M27,29.12h3.93v7.82H27Z"/><path class="cls-4" d="M27,56.52V52.6h3.91v3.92Z"/><path class="cls-8" d="M30.92,52.6H27V48.69c1.13,0,2.26,0,3.39,0,.4,0,.54.13.53.53C30.91,50.34,30.92,51.47,30.92,52.6Z"/><path class="cls-5" d="M27,37h3.9l0,3.9H27Z"/><path class="cls-7" d="M27,56.52h3.9c0,1.3,0,2.61,0,3.91H27Z"/><path class="cls-9" d="M30.93,120.74l-3.92,0v-1.61h3.9C30.92,119.68,30.92,120.21,30.93,120.74Z"/><path class="cls-6" d="M109.21,21.29c1.15,0,2.3,0,3.44,0,.46,0,.59.14.59.59,0,3.73,0,7.46,0,11.19h-.09c-1.14,0-2.28,0-3.43,0-.37,0-.5.11-.49.49,0,1.14,0,2.28,0,3.43h0c-1.14,0-2.29,0-3.43,0-.38,0-.5.12-.49.49,0,1.14,0,2.29,0,3.43h0c-1.13,0-2.26,0-3.4,0-.39,0-.53.11-.53.52,0,1.13,0,2.26,0,3.39H97.5l0-3.9V37c1.09,0,2.18,0,3.27,0,.5,0,.67-.12.66-.64,0-2.19,0-4.37,0-6.56,0-.49.11-.68.64-.65.91,0,1.83,0,2.75,0,.41,0,.54-.13.53-.53,0-1.13,0-2.26,0-3.39h0c1.13,0,2.27,0,3.4,0,.4,0,.53-.13.52-.53,0-1.13,0-2.26,0-3.39Z"/><path class="cls-10" d="M85.72,33l3.92,0V44.77H85.73c0-1.13,0-2.26,0-3.39,0-.4-.13-.54-.53-.53-1.13,0-2.26,0-3.39,0V37c1.09,0,2.18,0,3.27,0,.49,0,.67-.11.66-.63,0-1.09,0-2.18,0-3.27Z"/><path class="cls-8" d="M70.08,13.46H74c0,2.6,0,5.21,0,7.82H70.07l0-7.82Z"/><path class="cls-4" d="M70.07,21.28H74c0,1.31,0,2.61,0,3.92H70.07Z"/><path class="cls-11" d="M97.46,37v3.91c-1.13,0-2.26,0-3.39,0-.39,0-.53-.12-.53-.52,0-1.13,0-2.26,0-3.39v-.05Z"/><path class="cls-3" d="M89.64,36.93V33.05c1.12,0,2.25,0,3.37,0,.44,0,.55.15.55.57,0,1.1,0,2.21,0,3.31V37Z"/><path class="cls-6" d="M81.81,29.12c1.13,0,2.25,0,3.38,0,.44,0,.55.16.55.57,0,1.11,0,2.22,0,3.33v0l-3.91,0Z"/><path class="cls-11" d="M81.81,29.12v3.93l-3.93,0h0V29.09Z"/><path class="cls-6" d="M74,25.21c1.12,0,2.25,0,3.37,0,.4,0,.53.12.53.52,0,1.13,0,2.25,0,3.37v.05l-3.9,0,0-3.91Z"/><path class="cls-12" d="M34.83,87.83q0-9.78,0-19.56h3.9c0,1.07,0,2.14,0,3.21,0,.57.2.72.73.71,2.37,0,4.74,0,7.11,0,1.13,0,2.26,0,3.39,0,.41,0,.54.14.53.53,0,.81,0,1.61,0,2.42,0,1.09-.11,1,1,1,.79,0,1.57,0,2.36,0,.42,0,.58.12.57.56,0,.94,0,1.88,0,2.81,0,.38.08.56.51.56,3.59,0,7.17,0,10.76,0,.38,0,.49-.15.49-.51,0-1,0-1.92,0-2.88,0-.39.11-.55.52-.54.92,0,1.84,0,2.76,0,.51,0,.65-.15.65-.65q0-7.51,0-15V56.52c1.11,0,2.22,0,3.33,0,.46,0,.59.14.59.59,0,2.2,0,4.41,0,6.61,0,.52.16.65.66.65,2.39,0,4.79,0,7.18,0v3.92c-1.13,0-2.26,0-3.39,0-.4,0-.54.13-.53.53,0,1.13,0,2.26,0,3.39-1.09,0-2.18,0-3.27,0-.52,0-.65.16-.65.66,0,2.39,0,4.79,0,7.18v3.91c-3.7,0-7.39,0-11.09,0-.54,0-.7.16-.67.68,0,.88,0,1.76,0,2.64,0,.5-.17.62-.63.61-1.09,0-2.19,0-3.28,0,0-1.13,0-2.25,0-3.38,0-.43-.15-.56-.56-.55-1.13,0-2.25,0-3.38,0l-3.89,0c0-1.05,0-2.11,0-3.16,0-.57-.13-.76-.73-.75-2.37,0-4.75,0-7.13,0,0-1.13,0-2.25,0-3.38,0-.4-.13-.53-.53-.53-1,0-1.91,0-2.86,0-.41,0-.54.13-.53.53,0,1.13,0,2.26,0,3.38v3.94l0,15.65c-1.11,0-2.22,0-3.33,0-.47,0-.59-.16-.58-.6,0-1.11,0-2.22,0-3.33Z"/><path class="cls-7" d="M38.75,68.26h-3.9c0-1.11,0-2.22,0-3.34,0-.43-.11-.61-.58-.6-.94,0-1.88,0-2.82,0-.4,0-.54-.12-.53-.53,0-1.13,0-2.26,0-3.39H42c.49,0,.68.11.66.63,0,.92,0,1.84,0,2.76,0,.4.12.54.53.53,1.13,0,2.26,0,3.39,0v3.92H38.75Z"/><path class="cls-12" d="M30.93,120.74c0-.53,0-1.06,0-1.59q0-5.88,0-11.75c0-1.34,0-2.68,0-4H34.3c.18,0,.38,0,.54.11v11.76l0,5.5Z"/><path class="cls-9" d="M34.84,103.49c-.16-.16-.36-.11-.54-.11H30.93V95.66h3.9c0,1.11,0,2.22,0,3.33,0,.44.11.61.58.6,1.11,0,2.22,0,3.33,0h0l0,3.9Z"/><path class="cls-7" d="M34.83,95.66h-3.9c0-2.41,0-4.82,0-7.24,0-.5.18-.61.63-.6,1.09,0,2.19,0,3.28,0Z"/><path class="cls-7" d="M30.94,40.85l0-3.9h0c2.37,0,4.75,0,7.12,0,.57,0,.72-.18.7-.72,0-1.07,0-2.14,0-3.21h3.89c1.13,0,2.25,0,3.38,0,.42,0,.57-.13.56-.56,0-1.12,0-2.24,0-3.37,0-1.3,0-2.59,0-3.89l3.9,0,3.92,0v3.91c-1.1,0-2.19,0-3.28,0-.51,0-.65.15-.64.65,0,2.39,0,4.79,0,7.18s0,4.85,0,7.28c0,.42.12.57.55.56,1.13,0,2.25,0,3.38,0h3.89V52.6c-1.11,0-2.22,0-3.33,0-.47,0-.59-.16-.58-.6,0-.88,0-1.76,0-2.64,0-.51-.11-.7-.66-.69-2.4,0-4.79,0-7.18,0-1.13,0-2.26,0-3.39,0-.4,0-.54-.12-.53-.53,0-1,0-1.91,0-2.87,0-.39-.12-.54-.52-.53-1,0-1.92,0-2.87,0-.4,0-.55-.12-.54-.53,0-.93,0-1.87,0-2.81,0-.45-.13-.59-.59-.59C35.76,40.87,33.35,40.85,30.94,40.85Z"/><path class="cls-8" d="M46.58,64.34c-1.13,0-2.26,0-3.39,0-.41,0-.54-.13-.53-.53,0-.92,0-1.84,0-2.76,0-.52-.17-.64-.66-.63H30.92c0-1.3,0-2.61,0-3.91s0-2.61,0-3.92h7.24c.45,0,.61.12.6.58,0,.92,0,1.84,0,2.76,0,.46.14.59.59.58,2.42,0,4.83,0,7.25,0h0Z"/><path class="cls-12" d="M46.58,48.69c2.39,0,4.78,0,7.18,0,.55,0,.68.18.66.69,0,.88,0,1.76,0,2.64,0,.44.11.61.58.6,1.11,0,2.22,0,3.33,0,0,1.3,0,2.61,0,3.91H50.48c0-1.13,0-2.25,0-3.38,0-.4-.12-.54-.52-.53-1.13,0-2.26,0-3.39,0Z"/><path class="cls-5" d="M46.58,52.6c1.13,0,2.26,0,3.39,0,.4,0,.53.13.52.53,0,1.13,0,2.25,0,3.38h-3.9Z"/><path class="cls-7" d="M42.68,13.47H54.4c0,1.3,0,2.61,0,3.91l0,3.91H38.76c0-1.13,0-2.26,0-3.39,0-.39.11-.54.52-.53.94,0,1.88,0,2.82,0,.44,0,.6-.12.59-.59C42.65,15.69,42.68,14.58,42.68,13.47Z"/><path class="cls-4" d="M30.93,17.38V13.46c1.13,0,2.26,0,3.38,0,.4,0,.54.13.53.53,0,.95,0,1.91,0,2.87,0,.39-.12.54-.52.53C33.19,17.36,32.06,17.38,30.93,17.38Z"/><path class="cls-7" d="M30.91,29.11c0-1.13,0-2.26,0-3.39,0-.4.13-.53.53-.52,1.13,0,2.26,0,3.39,0h0c0,1.3,0,2.61,0,3.91H30.91Z"/><path class="cls-9" d="M34.84,25.2c0-1.13,0-2.26,0-3.39,0-.4.13-.53.53-.52,1.13,0,2.27,0,3.4,0h0c0,1.3,0,2.6,0,3.9h-3.9Z"/><path class="cls-5" d="M70.07,21.28v3.94q0,3.9,0,7.81H66.16q0-7.83,0-15.65V13.46h3.9C70.06,16.07,70.06,18.67,70.07,21.28Z"/><path class="cls-8" d="M66.14,17.38q0,7.83,0,15.65H62.24l0-3.93V17.38Z"/><path class="cls-8" d="M54.4,13.46H46.59c0-1.13,0-2.26,0-3.39,0-.4.13-.53.53-.53,2.26,0,4.52,0,6.78,0,.4,0,.53.14.52.53C54.39,11.2,54.4,12.33,54.4,13.46Z"/><path class="cls-8" d="M54.41,17.38c0-1.3,0-2.61,0-3.91,1.11,0,2.22,0,3.33,0,.44,0,.62.11.6.58,0,1.11,0,2.22,0,3.33v0Z"/><path class="cls-5" d="M66.15,13.46c-1.13,0-2.26,0-3.39,0-.39,0-.54-.12-.53-.52,0-1,0-1.95,0-2.93,0-.35.13-.48.47-.47,1,0,2,0,2.93,0,.41,0,.53.14.53.53,0,1.13,0,2.26,0,3.39Z"/><path class="cls-9" d="M62.23,17.38v3.91H58.35l0-3.9v0Z"/><path class="cls-2" d="M109.21,21.29c0,1.13,0,2.26,0,3.39,0,.4-.12.53-.52.53-1.13,0-2.27,0-3.4,0,0-1.13,0-2.26,0-3.39,0-.4.13-.53.53-.53C107,21.3,108.08,21.29,109.21,21.29Z"/><path class="cls-13" d="M113.21,48.69q0,7.83,0,15.65c0,3.91,0,7.83,0,11.74-1.15,0-2.3,0-3.45,0-.43,0-.57.14-.56.56,0,.9,0,1.81,0,2.71,0,.55-.18.68-.69.66-.85,0-1.69,0-2.53,0-.56,0-.71-.15-.71-.7,0-3.69,0-7.37,0-11,1.13,0,2.26,0,3.39,0,.4,0,.55-.12.54-.53,0-1,0-1.95,0-2.93,0-.34-.12-.47-.46-.47-1,0-2,0-2.93,0-.41,0-.53.14-.53.53,0,1.13,0,2.26,0,3.39-1.13,0-2.26,0-3.39,0-.4,0-.54.12-.53.52,0,1,0,1.92,0,2.88,0,.4-.13.53-.53.52-1,0-1.92,0-2.87,0-.41,0-.54.14-.53.53,0,1.13,0,2.26,0,3.39H93.58l0-3.91c0-1.13,0-2.26,0-3.39,0-.45-.18-.54-.58-.53-1.11,0-2.22,0-3.33,0V64.34c2.41,0,4.83,0,7.24,0,.46,0,.6-.15.59-.6,0-.88,0-1.77,0-2.64,0-.58.18-.72.72-.7.86,0,1.72,0,2.58,0,.47,0,.65-.12.63-.61,0-.94,0-1.88,0-2.82,0-.37.12-.51.49-.5.94,0,1.88,0,2.82,0,.49,0,.62-.16.61-.63,0-2.18,0-4.37,0-6.55,0-.55.17-.68.69-.67C108.39,48.7,110.8,48.69,113.21,48.69Z"/><path class="cls-14" d="M58.33,120.73H50.49c0-.38,0-.76,0-1.14s-.12-.45-.44-.44H48.17c-1.59,0-1.59,0-1.58,1.58H42.66v-1.6l0-3.9c1.11,0,2.22,0,3.32,0,.47,0,.59-.15.58-.6,0-1.1,0-2.21,0-3.31,1.12,0,2.25,0,3.38,0,.4,0,.53-.13.52-.53,0-1.13,0-2.25,0-3.38,1.13,0,2.25,0,3.38,0,.4,0,.53-.13.53-.53,0-1.12,0-2.25,0-3.38h7.8c0,1.13,0,2.26,0,3.39,0,.41.14.54.54.53,1.13,0,2.26,0,3.39,0h0l0,3.9v3.89l0,0c-1.09,0-2.18,0-3.27,0-.47,0-.65-.11-.63-.61,0-.93,0-1.87,0-2.81,0-.37-.1-.51-.49-.51H54.91c-.36,0-.51.11-.51.49,0,1,0,2,0,2.93,0,.43.18.52.56.51.93,0,1.87,0,2.81,0,.43,0,.56.13.56.56C58.31,117.44,58.33,119.08,58.33,120.73Z"/><path class="cls-15" d="M113.21,48.69c-2.41,0-4.82,0-7.24,0-.52,0-.69.12-.69.67,0,2.18,0,4.37,0,6.55,0,.47-.12.64-.61.63-.94,0-1.88,0-2.82,0-.37,0-.5.13-.49.5,0,.94,0,1.88,0,2.82,0,.49-.16.63-.63.61-.86,0-1.72,0-2.58,0-.54,0-.76.12-.72.7,0,.87,0,1.76,0,2.64,0,.45-.13.6-.59.6-2.41,0-4.83,0-7.24,0h0V56.52h3.92c1.11,0,2.22,0,3.33,0,.44,0,.61-.12.6-.59,0-1.11,0-2.22,0-3.33,1.09,0,2.18,0,3.27,0,.53,0,.66-.16.64-.66,0-1.09,0-2.18,0-3.27v-3.9h0c1.15,0,2.29,0,3.44,0,.37,0,.5-.12.49-.49,0-1.15,0-2.29,0-3.44h7.92Q113.22,44.78,113.21,48.69Z"/><path class="cls-16" d="M97.47,76.09c0-1.13,0-2.26,0-3.39,0-.39.12-.54.53-.53,1,0,1.91,0,2.87,0,.4,0,.54-.12.53-.52,0-1,0-1.92,0-2.88,0-.4.13-.53.53-.52,1.13,0,2.26,0,3.39,0h0c0,3.68,0,7.36,0,11,0,.55.15.73.71.7.84,0,1.68,0,2.53,0,.51,0,.72-.11.69-.66,0-.9,0-1.81,0-2.71,0-.42.13-.57.56-.56,1.15,0,2.3,0,3.45,0v7.84h-4l-3.94,0-7.8,0V76.09Z"/><path class="cls-16" d="M113.21,103.51v7.81c-1.13,0-2.26,0-3.38,0-.53,0-.65.17-.64.66,0,1.09,0,2.18,0,3.27l-3.9,0c0-1.13,0-2.26,0-3.39,0-.37-.1-.52-.49-.51-1.15,0-2.3,0-3.45,0l-3.9,0c0-1.12,0-2.25,0-3.37,0-.41-.14-.53-.54-.53-1.12,0-2.25,0-3.37,0,0-1.3,0-2.59,0-3.89h1.78l10,0Z"/><path class="cls-7" d="M113.21,95.66v3.93h-7.92c0-1.13,0-2.26,0-3.39,0-.41-.13-.53-.53-.53-1.13,0-2.26,0-3.39,0V87.84h3.92c0,1.12,0,2.23,0,3.34,0,.4.08.6.54.58,1.13,0,2.26,0,3.39,0h0c0,1.11,0,2.22,0,3.32,0,.5.17.62.63.61C111,95.64,112.09,95.66,113.21,95.66Z"/><path class="cls-16" d="M58.33,120.73c0-1.65,0-3.29,0-4.94,0-.43-.13-.57-.56-.56-.94,0-1.88,0-2.81,0-.38,0-.57-.08-.56-.51,0-1,0-2,0-2.93,0-.38.15-.49.51-.49h6.84c.39,0,.5.14.49.51,0,.94,0,1.88,0,2.81,0,.5.16.62.63.61,1.09,0,2.18,0,3.27,0,0,1.83,0,3.65,0,5.48Z"/><path class="cls-14" d="M66.14,120.73c0-1.83,0-3.65,0-5.48l0,0,7.81.05v5.47Z"/><path class="cls-13" d="M109.21,115.24c0-1.09,0-2.18,0-3.27,0-.49.11-.68.64-.66,1.12,0,2.25,0,3.38,0V119l-.11.12H109.2Z"/><path class="cls-11" d="M105.3,99.58h7.91v3.92l-7.92,0Z"/><path class="cls-16" d="M42.65,119.13v1.6l-7.8,0c0-1.84,0-3.67,0-5.5l3.89,0c0,1.11,0,2.22,0,3.33,0,.43.09.62.57.6C40.43,119.12,41.54,119.14,42.65,119.13Z"/><path class="cls-14" d="M97.45,120.73H81.8c0-.52,0-1,0-1.56v0h7.82l7.83,0Z"/><path class="cls-14" d="M113.22,87.82v3.92h-4c0-1.29,0-2.59,0-3.89l0,0Z"/><path class="cls-13" d="M113.22,87.82h-4c0-1.3,0-2.59,0-3.89h4Z"/><path class="cls-9" d="M109.22,91.74h4c0,1.3,0,2.61,0,3.92-1.12,0-2.25,0-3.38,0-.46,0-.64-.11-.63-.61C109.23,94,109.21,92.85,109.22,91.74Z"/><path class="cls-13" d="M113.22,40.86h-4c0-1.3,0-2.6,0-3.9h0l3.91,0v0l.09.1Z"/><path class="cls-16" d="M81.81,119.17v1.56H74v-1.59Z"/><path class="cls-7" d="M105.31,120.73h-3.94c0-.53,0-1,0-1.58h3.92Z"/><path class="cls-11" d="M101.39,119.15c0,.53,0,1,0,1.58H97.45v-1.57l0,0,3.9,0Z"/><path class="cls-12" d="M105.31,120.73v-1.6h3.91c0,.53,0,1.06,0,1.6Z"/><path class="cls-16" d="M109.23,120.75c0-.54,0-1.07,0-1.6h3.89c0,.53,0,1,0,1.58Z"/><path class="cls-16" d="M46.59,120.73c0-1.58,0-1.58,1.58-1.58h1.89c.32,0,.45.12.44.44s0,.76,0,1.14Z"/><path class="cls-16" d="M113.13,33.05h.09V37h-.09V33.05Z"/><path class="cls-15" d="M113.13,120.74c0-.53,0-1,0-1.58l.11-.12A5.41,5.41,0,0,1,113.13,120.74Z"/><path class="cls-15" d="M113.13,37h.09a.21.21,0,0,1,0,.11Z"/><path class="cls-3" d="M30.94,29.12h3.89c0,1.11,0,2.23,0,3.34,0,.41.08.59.54.57,1.13,0,2.26,0,3.39,0h0c0,1.08,0,2.15,0,3.22,0,.54-.13.73-.7.72-2.37,0-4.75,0-7.12,0C30.94,34.33,30.94,31.73,30.94,29.12Z"/><path class="cls-17" d="M89.64,36.93l3.9,0c0,1.13,0,2.26,0,3.39,0,.4.14.53.53.52,1.13,0,2.26,0,3.39,0,0,1.3,0,2.6,0,3.9H89.64Z"/><path class="cls-14" d="M101.38,44.78v3.9h-3.9c0-1.3,0-2.6,0-3.91h3.91Z"/><path class="cls-14" d="M105.3,40.86c0,1.15,0,2.29,0,3.44,0,.37-.12.5-.49.49-1.15,0-2.29,0-3.44,0,0-1.13,0-2.26,0-3.39,0-.41.14-.53.53-.52C103,40.88,104.17,40.86,105.3,40.86Z"/><path class="cls-14" d="M109.21,37c0,1.3,0,2.6,0,3.9h-3.9c0-1.14,0-2.29,0-3.43,0-.37.11-.5.49-.49C106.92,37,108.07,37,109.21,37Z"/><path class="cls-14" d="M113.13,33.05v3.88l-3.91,0c0-1.15,0-2.29,0-3.43,0-.38.12-.5.49-.49C110.85,33.05,112,33.05,113.13,33.05Z"/><path class="cls-7" d="M70.06,60.43q0,7.51,0,15c0,.5-.14.67-.65.65-.92,0-1.84,0-2.76,0-.41,0-.53.15-.52.54,0,1,0,1.92,0,2.88,0,.36-.11.51-.49.51-3.59,0-7.17,0-10.76,0-.43,0-.51-.18-.51-.56,0-.93,0-1.87,0-2.81,0-.44-.15-.57-.57-.56-.79,0-1.57,0-2.36,0-1.11,0-1,.12-1-1,0-.81,0-1.61,0-2.42,0-.39-.12-.54-.53-.53-1.13,0-2.26,0-3.39,0V68.26h0c2.4,0,4.79,0,7.19,0,.5,0,.65-.14.64-.65,0-2.39,0-4.79,0-7.18,2.42,0,4.84,0,7.25,0,.46,0,.61-.13.6-.59,0-1.11,0-2.22,0-3.34h0c1.05,0,2.11,0,3.15,0,.62,0,.77-.26.77-.78V52.6c1.11,0,2.23,0,3.34,0,.46,0,.59-.14.58-.59,0-2.42,0-4.83,0-7.25,1.13,0,2.26,0,3.39,0,.4,0,.53-.13.53-.53,0-3.74,0-7.48,0-11.21l0,0,3.9,0h0c0,1.13,0,2.26,0,3.39,0,.4.12.54.52.54,1.14,0,2.27,0,3.4,0h0c0,1.3,0,2.6,0,3.9,0,1.13,0,2.26,0,3.4,0,.39.13.54.53.53,1.13,0,2.27,0,3.4,0h0c0,1.31,0,2.61,0,3.92-1.13,0-2.26,0-3.39,0-.41,0-.53.14-.53.54,0,1.13,0,2.26,0,3.39h0c-1.13,0-2.26,0-3.39,0-.4,0-.54.12-.53.52q0,1.44,0,2.88c0,.41.14.53.53.52,1.13,0,2.27,0,3.4,0h3.9c0,1.22,0,2.45,0,3.68-1,0-2.07,0-3.11,0-.57,0-.79.24-.79.8v3.33c-2.39,0-4.79,0-7.18,0-.5,0-.67-.13-.66-.65,0-2.2,0-4.41,0-6.61,0-.45-.13-.6-.59-.59-1.11,0-2.22,0-3.33,0s-2.26,0-3.39,0c-.4,0-.54.12-.53.53,0,1,0,1.91,0,2.87,0,.4.13.54.53.53C67.8,60.42,68.93,60.43,70.06,60.43Zm-3.91,7.83c0-1.13,0-2.26,0-3.39,0-.41-.13-.54-.53-.53-1,0-1.92,0-2.87,0-.41,0-.54.13-.53.53,0,.94,0,1.88,0,2.82,0,.46-.15.59-.59.58-.9,0-1.8,0-2.7,0-.46,0-.66.1-.64.6,0,.92,0,1.84,0,2.76,0,.41.1.58.54.57q3.39,0,6.78,0c.41,0,.53-.15.52-.54C66.14,70.52,66.15,69.39,66.15,68.26Z"/><path class="cls-12" d="M85.72,48.69c0-1.31,0-2.61,0-3.92h3.91c0,2.62,0,5.24,0,7.86v3.89H85.72V48.69Z"/><path class="cls-12" d="M85.73,44.77c-1.13,0-2.27,0-3.4,0-.4,0-.53-.14-.53-.53,0-1.14,0-2.27,0-3.4,1.13,0,2.26,0,3.39,0,.4,0,.53.13.53.53C85.72,42.51,85.73,43.64,85.73,44.77Z"/><path class="cls-17" d="M81.81,33l3.91,0c0,1.09,0,2.18,0,3.27,0,.52-.17.65-.66.63-1.09,0-2.18,0-3.27,0h0c0-1.3,0-2.6,0-3.9Z"/><path class="cls-9" d="M70.05,33q0-3.91,0-7.81H74c0,1.3,0,2.61,0,3.91s0,2.59,0,3.89l0,0H70.05Z"/><path class="cls-10" d="M81.82,33.05c0,1.3,0,2.6,0,3.9-1.13,0-2.26,0-3.4,0-.4,0-.53-.14-.52-.54,0-1.13,0-2.26,0-3.39Z"/><path class="cls-10" d="M74,33c0-1.3,0-2.59,0-3.89l3.9,0c0,1.3,0,2.6,0,3.89Z"/><path class="cls-7" d="M58.34,87.84c1.09,0,2.19,0,3.28,0,.46,0,.65-.11.63-.61,0-.88,0-1.76,0-2.64,0-.52.13-.69.67-.68,3.7,0,7.39,0,11.09,0h7.82V99.58c0,1.3,0,2.61,0,3.91-1.13,0-2.25,0-3.38,0-.39,0-.54.12-.53.53,0,1.12,0,2.25,0,3.37l-.91,0-10.84,0h0c0-1.15,0-2.29,0-3.44,0-.37-.13-.5-.5-.49-1.14,0-2.29,0-3.43,0h0c0-1.3,0-2.61,0-3.92,1.13,0,2.26,0,3.39,0,.41,0,.54-.13.53-.53,0-.92,0-1.84,0-2.76,0-.53.17-.66.66-.64.9,0,1.8,0,2.71,0,.42,0,.58-.12.56-.56,0-.9,0-1.8,0-2.7,0-.54-.17-.67-.69-.67-3.68,0-7.36,0-11,0l0-3.91Z"/><path class="cls-2" d="M50.5,83.9l3.89,0c0,1.3,0,2.61,0,3.91h0c-1.13,0-2.26,0-3.39,0-.41,0-.53.14-.53.53,0,1.14,0,2.27,0,3.4h0c-1.09,0-2.19,0-3.27,0-.5,0-.68.11-.66.63,0,1.09,0,2.18,0,3.27-1.13,0-2.25,0-3.38,0-.4,0-.52.14-.52.53,0,1.13,0,2.25,0,3.38H38.74q0-7.83,0-15.65l.86,0Z"/><path class="cls-9" d="M81.81,64.34V61c0-.56.22-.8.79-.8,1,0,2.08,0,3.11,0,0,1.15,0,2.3,0,3.44,0,.54.12.75.69.72,1.07,0,2.15,0,3.22,0h0v3.92l0,0-3.88,0H81.81Z"/><path class="cls-9" d="M50.5,83.9H39.62l-.86,0c0-1.31,0-2.62,0-3.94h3.9c2.38,0,4.76,0,7.13,0,.6,0,.75.18.73.75C50.47,81.79,50.5,82.85,50.5,83.9Z"/><path class="cls-7" d="M81.81,68.26h3.92c0,1.31,0,2.61,0,3.91H77.89c0-1.13,0-2.26,0-3.39,0-.4.13-.53.53-.53C79.55,68.27,80.68,68.26,81.81,68.26Z"/><path class="cls-7" d="M74,80c0-2.39,0-4.79,0-7.18,0-.5.13-.67.65-.66,1.09,0,2.18,0,3.27,0h0V80Z"/><path class="cls-9" d="M46.58,68.26v3.91c-2.37,0-4.74,0-7.11,0-.53,0-.75-.14-.73-.71,0-1.07,0-2.14,0-3.21Z"/><path class="cls-11" d="M54.41,87.84c0-1.3,0-2.61,0-3.91,1.13,0,2.25,0,3.38,0,.41,0,.57.12.56.55,0,1.13,0,2.25,0,3.38H54.41Z"/><path class="cls-10" d="M74,80H77.9v3.92H74C74,82.61,74,81.31,74,80Z"/><path class="cls-10" d="M42.65,80h-3.9c0-1.12,0-2.25,0-3.38,0-.4.12-.54.53-.53.95,0,1.91,0,2.86,0,.4,0,.54.13.53.53C42.65,77.74,42.66,78.86,42.65,80Z"/><path class="cls-9" d="M70.06,60.43c-1.13,0-2.26,0-3.38,0-.4,0-.54-.13-.53-.53,0-1,0-1.92,0-2.87,0-.41.13-.54.53-.53,1.13,0,2.26,0,3.39,0C70.07,57.82,70.07,59.13,70.06,60.43Z"/><path class="cls-4" d="M54.4,60.44c0,2.39,0,4.79,0,7.18,0,.51-.14.65-.64.65-2.4,0-4.79,0-7.19,0V56.52h3.93c0,1.13,0,2.26,0,3.39,0,.4.13.53.53.53C52.15,60.42,53.28,60.44,54.4,60.44Z"/><path class="cls-17" d="M38.73,115.22l-3.89,0v-7.83h3.9c0,2.6,0,5.21,0,7.81Z"/><path class="cls-11" d="M38.74,107.42h-3.9v-3.93l3.91,0,0,0c0,1.3,0,2.6,0,3.91Z"/><path class="cls-6" d="M38.77,99.57h3.88l0,0v3.9h-3.9l0,0C38.75,102.17,38.76,100.87,38.77,99.57Z"/><path class="cls-4" d="M58.33,56.51c0-1.3,0-2.61,0-3.91V44.76h3.93V56.51h-3.9Z"/><path class="cls-10" d="M38.74,25.2c0-1.3,0-2.6,0-3.9h3.91v7.81l0,3.9H38.76v0C38.75,30.41,38.75,27.81,38.74,25.2Z"/><path class="cls-10" d="M58.31,44.76H54.42c0-2.6,0-5.21,0-7.81h3.91v7.82Z"/><path class="cls-12" d="M54.41,37c0,2.6,0,5.21,0,7.81-1.13,0-2.25,0-3.38,0-.43,0-.56-.14-.55-.56,0-2.43,0-4.85,0-7.28Z"/><path class="cls-3" d="M54.41,37H50.5c0-2.39,0-4.79,0-7.18,0-.5.13-.67.64-.65,1.09,0,2.18,0,3.28,0h0v7.82Z"/><path class="cls-11" d="M42.67,29.12V25.2l3.91,0v3.93Z"/><path class="cls-12" d="M54.41,29.12c0-1.3,0-2.6,0-3.91h3.92v3.91Z"/><path class="cls-12" d="M42.67,29.12h3.91c0,1.13,0,2.25,0,3.37,0,.43-.14.57-.56.56-1.13,0-2.25,0-3.38,0C42.66,31.72,42.66,30.42,42.67,29.12Z"/><path class="cls-10" d="M46.57,21.31h3.91v3.89l-3.9,0v0C46.57,23.89,46.57,22.6,46.57,21.31Z"/><path class="cls-12" d="M50.48,25.19V21.3h3.94V25.2h0Z"/><path class="cls-3" d="M58.33,56.51h3.9c0,1.12,0,2.23,0,3.34,0,.46-.14.59-.6.59-2.41,0-4.83,0-7.25,0-1.12,0-2.25,0-3.38,0-.4,0-.54-.13-.53-.53,0-1.13,0-2.26,0-3.39Z"/><path class="cls-10" d="M58.32,17.38c0,1.3,0,2.6,0,3.9h-4c0-1.31,0-2.61,0-3.91Z"/><path class="cls-17" d="M46.57,21.31c0,1.29,0,2.58,0,3.87l-3.91,0V21.31Z"/><path class="cls-12" d="M38.74,25.2c0,2.61,0,5.21,0,7.81-1.13,0-2.26,0-3.39,0-.46,0-.55-.16-.54-.57,0-1.11,0-2.23,0-3.34,0-1.3,0-2.61,0-3.91Z"/><path class="cls-4" d="M62.24,33h7.84c0,1.3,0,2.61,0,3.92-1.11,0-2.22,0-3.33,0-.47,0-.59.16-.58.6,0,1.1,0,2.21,0,3.32H62.24V33Z"/><path class="cls-7" d="M62.24,33c0,1.3,0,2.6,0,3.9H54.41V29.12h7.81Z"/><path class="cls-9" d="M62.22,29.11h-3.9c0-1.29,0-2.59,0-3.89l3.89,0Z"/><path class="cls-11" d="M62.22,25.2l-3.89,0v0c0-1.3,0-2.61,0-3.91h3.92C62.22,22.59,62.22,23.89,62.22,25.2Z"/><path class="cls-17" d="M97.46,80c0,1.3,0,2.6,0,3.9v3.93h0c-1.11,0-2.22,0-3.33,0-.47,0-.59.16-.58.6,0,1.11,0,2.22,0,3.33v3.92h0c-1.13,0-2.26,0-3.39,0-.4,0-.53.13-.53.53,0,1.13,0,2.26,0,3.39H85.71c0-2.6,0-5.21,0-7.82,1.11,0,2.22,0,3.33,0,.4,0,.59-.08.59-.53q0-3.39,0-6.78c0-.39-.12-.54-.52-.53-1.13,0-2.26,0-3.39,0h0c0-1.11,0-2.22,0-3.33,0-.45-.11-.62-.58-.6-1,0-1.91,0-2.87,0-.34,0-.48-.1-.48-.46,0-1.15,0-2.3,0-3.45,1.06,0,2.11,0,3.16,0,.56,0,.78-.11.75-.72,0-1.07,0-2.14,0-3.21h3.92l3.89,0c0,1.31,0,2.61,0,3.91,0,1.13,0,2.26,0,3.39,0,.39.11.54.52.53C95.2,80,96.33,80,97.46,80Z"/><path class="cls-14" d="M97.46,80c-1.13,0-2.26,0-3.38,0-.41,0-.53-.14-.52-.53,0-1.13,0-2.26,0-3.39h3.89C97.46,77.4,97.46,78.7,97.46,80Z"/><path class="cls-16" d="M93.53,72.18l-3.89,0,0-3.92,0,0c1.11,0,2.22,0,3.33,0,.4,0,.59.08.58.53C93.52,69.92,93.54,71.05,93.53,72.18Z"/><path class="cls-16" d="M105.3,68.26c0-1.13,0-2.26,0-3.39,0-.39.12-.54.53-.53,1,0,2,0,2.93,0,.34,0,.47.13.46.47,0,1,0,2,0,2.93,0,.41-.14.53-.54.53-1.13,0-2.26,0-3.39,0Z"/><path class="cls-16" d="M54.41,87.84h3.9l0,3.91v7.82l0,3.92h-3.9l0,0c0-2.44,0-4.87,0-7.31,0-.41-.15-.52-.54-.52-1.13,0-2.26,0-3.39,0V91.75h0c1.14,0,2.28,0,3.43,0,.37,0,.5-.1.49-.48,0-1.15,0-2.29,0-3.44Z"/><path class="cls-11" d="M66.14,107.42l10.84,0,.91,0,0,.05v3.87l-11.74,0Z"/><path class="cls-6" d="M66.18,111.32l11.74,0h0l0,3.92-3.94,0-7.81-.05C66.17,113.92,66.17,112.62,66.18,111.32Z"/><path class="cls-16" d="M50.51,107.42c0,1.13,0,2.25,0,3.38,0,.4-.12.54-.52.53-1.13,0-2.26,0-3.38,0l0,0c0-1.13,0-2.26,0-3.39,0-.4.12-.54.52-.53,1.13,0,2.26,0,3.39,0Z"/><path class="cls-16" d="M46.6,111.34c0,1.1,0,2.21,0,3.31,0,.45-.11.61-.58.6-1.1,0-2.21,0-3.32,0h0c0-1.13,0-2.26,0-3.39,0-.4.12-.54.53-.53,1.13,0,2.26,0,3.39,0Z"/><path class="cls-11" d="M62.22,103.51c1.14,0,2.29,0,3.43,0,.37,0,.51.12.5.49,0,1.15,0,2.29,0,3.44-1.13,0-2.26,0-3.39,0-.4,0-.54-.12-.54-.53C62.24,105.77,62.22,104.64,62.22,103.51Z"/><path class="cls-16" d="M54.42,103.5c0,1.13,0,2.26,0,3.38,0,.4-.13.54-.53.53-1.13,0-2.25,0-3.38,0l0,0c0-1.13,0-2.26,0-3.39,0-.39.12-.53.52-.53,1.13,0,2.26,0,3.38,0Z"/><path class="cls-9" d="M58.32,103.49l0-3.92h3.89c0,1.31,0,2.62,0,3.92Z"/><path class="cls-13" d="M42.65,119.13c-1.11,0-2.22,0-3.33,0-.48,0-.58-.17-.57-.6,0-1.11,0-2.22,0-3.33h4C42.68,116.53,42.67,117.83,42.65,119.13Z"/><path class="cls-10" d="M89.62,64.35c-1.07,0-2.15,0-3.22,0-.57,0-.71-.18-.69-.72,0-1.14,0-2.29,0-3.44s0-2.46,0-3.68h3.91C89.63,59.13,89.62,61.74,89.62,64.35Z"/><path class="cls-13" d="M97.48,48.68h3.9c0,1.09,0,2.18,0,3.27,0,.5-.11.68-.64.66-1.09,0-2.18,0-3.27,0l0,0V48.68Z"/><path class="cls-13" d="M97.48,52.61c0,1.11,0,2.22,0,3.33,0,.47-.16.6-.6.59-1.11,0-2.22,0-3.33,0V52.6h3.89Z"/><path class="cls-14" d="M93.55,52.63v3.88H89.66V52.63Z"/><path class="cls-11" d="M97.47,87.84V83.91l7.8,0,0,3.89H97.47Z"/><path class="cls-14" d="M105.3,87.83l0-3.89,3.94,0c0,1.3,0,2.59,0,3.89l0,0Z"/><path class="cls-9" d="M105.3,99.58v3.89l-10,0H93.55l0,0c0-1.3,0-2.59,0-3.89H105.3Z"/><path class="cls-14" d="M109.2,119.14h-3.89c0-1.3,0-2.6,0-3.9l0,0,3.9,0C109.2,116.54,109.2,117.84,109.2,119.14Z"/><path class="cls-14" d="M93.57,107.39c1.12,0,2.25,0,3.37,0,.4,0,.54.12.54.53,0,1.12,0,2.25,0,3.37,0,0,0,0,0,.06l-3.91,0h0l0-3.9Z"/><path class="cls-14" d="M93.55,103.5c0,1.3,0,2.59,0,3.89l0,0-3.89,0,0-3.92h3.95Z"/><path class="cls-11" d="M97.46,111.29l3.9,0c0,1.3,0,2.6,0,3.9v0l-3.91,0h0c0-1.29,0-2.59,0-3.88C97.47,111.33,97.46,111.31,97.46,111.29Z"/><path class="cls-14" d="M101.38,115.24c0-1.3,0-2.6,0-3.9,1.15,0,2.3,0,3.45,0,.39,0,.49.14.49.51,0,1.13,0,2.26,0,3.39l0,0Z"/><path class="cls-3" d="M105.29,99.57H93.56c0-1.3,0-2.6,0-3.9h7.83c1.13,0,2.26,0,3.39,0,.4,0,.54.12.53.53C105.28,97.31,105.29,98.44,105.29,99.57Z"/><path class="cls-9" d="M101.38,95.66H97.47V87.83h3.92Z"/><path class="cls-11" d="M105.3,87.83h3.9c0,1.3,0,2.6,0,3.89-1.13,0-2.26,0-3.39,0-.46,0-.55-.18-.54-.58C105.31,90.06,105.3,89,105.3,87.83Z"/><path class="cls-11" d="M74,115.26l3.94,0,3.89,0v3.92l-7.82,0C74,117.85,74,116.55,74,115.26Z"/><path class="cls-11" d="M97.46,119.16l-7.83,0v-3.89h7.83c0,1.29,0,2.59,0,3.89Z"/><path class="cls-9" d="M89.64,115.24v3.89H81.81v-3.87Z"/><path class="cls-9" d="M101.38,115.24h3.91c0,1.3,0,2.6,0,3.9h-3.93v-3.91Z"/><path class="cls-12" d="M101.38,115.26v3.89l-3.9,0c0-1.3,0-2.6,0-3.89Z"/><path class="cls-10" d="M93.55,52.63H89.66c0-2.62,0-5.24,0-7.86h7.83c0,1.31,0,2.61,0,3.91h0c-1.09,0-2.18,0-3.27,0-.52,0-.65.17-.64.66,0,1.09,0,2.18,0,3.27Z"/><path class="cls-3" d="M62.24,52.6V48.69h3.39c.39,0,.53-.12.53-.52,0-1.13,0-2.26,0-3.39h3.91c0,2.42,0,4.83,0,7.25,0,.45-.12.6-.58.59-1.11,0-2.23,0-3.34,0Z"/><path class="cls-12" d="M66.15,68.26c0,1.13,0,2.26,0,3.39,0,.39-.11.54-.52.54q-3.39,0-6.78,0c-.44,0-.56-.16-.54-.57,0-.92,0-1.84,0-2.76,0-.5.18-.61.64-.6.9,0,1.8,0,2.7,0,.44,0,.61-.12.59-.58,0-.94,0-1.88,0-2.82,0-.4.12-.54.53-.53,1,0,1.91,0,2.87,0,.4,0,.54.12.53.53C66.14,66,66.15,67.13,66.15,68.26Z"/><path class="cls-3" d="M70.06,37c0-1.31,0-2.62,0-3.92H74c0,3.73,0,7.47,0,11.21,0,.4-.13.54-.53.53-1.13,0-2.26,0-3.39,0h0Q70.06,40.87,70.06,37Z"/><path class="cls-9" d="M85.72,48.69V52.6H81.81c0-1.13,0-2.26,0-3.39,0-.4.12-.55.53-.54C83.46,48.7,84.59,48.69,85.72,48.69Z"/><path class="cls-10" d="M81.81,52.61h3.91v3.92h-3.9c0-1.3,0-2.6,0-3.9Z"/><path class="cls-9" d="M81.81,52.61c0,1.3,0,2.6,0,3.9-1.13,0-2.27,0-3.4,0-.39,0-.54-.11-.53-.52q0-1.44,0-2.88c0-.4.13-.53.53-.52C79.55,52.62,80.68,52.6,81.81,52.61Z"/><path class="cls-9" d="M62.24,52.6h3.91v3.15c0,.52-.15.81-.77.78-1-.05-2.1,0-3.15,0C62.24,55.21,62.24,53.9,62.24,52.6Z"/><path class="cls-3" d="M62.24,99.58H58.35V91.75c3.69,0,7.37,0,11,0,.52,0,.71.13.69.67,0,.9,0,1.8,0,2.7,0,.44-.14.57-.56.56-.91,0-1.81,0-2.71,0-.49,0-.68.11-.66.64,0,.92,0,1.84,0,2.76,0,.4-.12.54-.53.53C64.5,99.57,63.37,99.58,62.24,99.58Z"/><path class="cls-12" d="M85.73,91.75c0,2.61,0,5.22,0,7.82h-3.9V87.83h3.9Z"/><path class="cls-12" d="M81.84,76.09c0,1.15,0,2.3,0,3.45,0,.36.14.47.48.46,1,0,1.92,0,2.87,0,.47,0,.59.15.58.6,0,1.11,0,2.22,0,3.33H77.89c0-1.3,0-2.61,0-3.92V76.07h3.94Z"/><path class="cls-10" d="M81.81,99.58h7.84l0,3.89H81.8Z"/><path class="cls-9" d="M77.89,107.38c0-1.12,0-2.25,0-3.37,0-.41.14-.53.53-.53,1.13,0,2.25,0,3.38,0h0c0,1.31,0,2.63,0,3.94H77.91Z"/><path class="cls-9" d="M81.81,83.92h3.92c0,1.31,0,2.61,0,3.92h-3.9Z"/><path class="cls-6" d="M42.65,99.56c0-1.13,0-2.25,0-3.38,0-.39.12-.53.52-.53,1.13,0,2.25,0,3.38,0l0,0v3.89h0l-3.9,0Z"/><path class="cls-6" d="M50.5,91.75v3.91h0l-3.9,0,0,0c0-1.09,0-2.18,0-3.27,0-.52.16-.65.66-.63C48.31,91.77,49.41,91.75,50.5,91.75Z"/><path class="cls-6" d="M54.4,87.83c0,1.15,0,2.29,0,3.44,0,.38-.12.48-.49.48-1.15,0-2.29,0-3.43,0,0-1.13,0-2.26,0-3.4,0-.39.12-.54.53-.53C52.14,87.84,53.27,87.83,54.4,87.83Z"/><path class="cls-10" d="M89.61,68.24l0,3.92H85.72c0-1.3,0-2.6,0-3.91Z"/><path class="cls-10" d="M85.72,72.17c0,1.07,0,2.14,0,3.21,0,.61-.19.75-.75.72-1,0-2.1,0-3.16,0h0c0-1.3,0-2.6,0-3.9Z"/><path class="cls-3" d="M81.82,72.18c0,1.3,0,2.6,0,3.9H77.9V72.18Z"/><path class="cls-15" d="M42.65,115.24h-3.9c0-2.6,0-5.21,0-7.81h0c1.13,0,2.27,0,3.4,0,.41,0,.52-.13.51-.53,0-1.13,0-2.26,0-3.39h0c1.13,0,2.26,0,3.4,0,.4,0,.53-.13.52-.53,0-1.13,0-2.26,0-3.4H50c.37,0,.5-.12.49-.49,0-1.15,0-2.29,0-3.43h0c1.13,0,2.26,0,3.39,0,.39,0,.54.11.54.52,0,2.44,0,4.87,0,7.31-1.13,0-2.26,0-3.39,0-.4,0-.53.14-.52.53,0,1.13,0,2.26,0,3.39-1.13,0-2.26,0-3.39,0-.4,0-.53.13-.52.53,0,1.13,0,2.26,0,3.39-1.13,0-2.26,0-3.39,0-.41,0-.53.13-.53.53C42.68,113,42.66,114.11,42.65,115.24Z"/><path class="cls-14" d="M42.66,103.49c0,1.13,0,2.26,0,3.39,0,.4-.1.54-.51.53-1.13,0-2.27,0-3.4,0,0-1.31,0-2.61,0-3.91Z"/><path class="cls-16" d="M46.58,99.57c0,1.14,0,2.27,0,3.4,0,.4-.12.54-.52.53-1.14,0-2.27,0-3.4,0v-3.9Z"/><path class="cls-8" d="M58.32,37h3.91c0,1.31,0,2.62,0,3.92v3.91H58.32Z"/><path class="cls-8" d="M66.16,44.78c0,1.13,0,2.26,0,3.39,0,.4-.14.53-.53.52H62.24V44.77h3.9Z"/><path class="cls-17" d="M58.31,21.29c0,1.3,0,2.61,0,3.91h-3.9V21.29Z"/><path class="cls-7" d="M70.06,37q0,3.91,0,7.83H66.16l0,0c0-1.3,0-2.6,0-3.9,0-1.11,0-2.22,0-3.32,0-.44.11-.61.58-.6C67.84,37,69,37,70.06,37Z"/><path class="cls-5" d="M66.15,40.86c0,1.3,0,2.6,0,3.9h-3.9V40.86Z"/><path class="cls-10" d="M85.71,87.83c0-1.31,0-2.61,0-3.92,1.13,0,2.26,0,3.39,0,.4,0,.53.14.52.53q0,3.39,0,6.78c0,.45-.19.54-.59.53-1.11,0-2.22,0-3.33,0C85.73,90.44,85.72,89.14,85.71,87.83Z"/><path class="cls-11" d="M97.46,91.73v3.93H93.56V91.75Z"/><path class="cls-10" d="M97.46,91.73l-3.9,0c0-1.11,0-2.22,0-3.33,0-.44.11-.61.58-.6,1.11,0,2.22,0,3.33,0Z"/><path class="cls-10" d="M93.55,95.67c0,1.3,0,2.6,0,3.9H89.63c0-1.13,0-2.26,0-3.39,0-.4.13-.53.53-.53C91.29,95.68,92.42,95.66,93.55,95.67Z"/><path class="cls-14" d="M77.91,107.43H81.8c0,1.29,0,2.58,0,3.86l-3.89,0h0C77.91,110,77.91,108.72,77.91,107.43Z"/><path class="cls-3" d="M77.89,111.31l3.89,0h3.93l7.85,0h0v3.92H81.81l-3.89,0Z"/><path class="cls-17" d="M93.56,52.6c0-1.09,0-2.18,0-3.27,0-.49.12-.68.64-.66,1.09,0,2.18,0,3.27,0v3.91Z"/><path class="cls-11" d="M89.65,99.58h3.9c0,1.3,0,2.59,0,3.89H89.63C89.63,102.18,89.64,100.88,89.65,99.58Z"/><path class="cls-9" d="M93.56,111.32H85.71c0-1.08,0-2.15,0-3.22,0-.58.18-.71.72-.7,1.07,0,2.14,0,3.22,0l3.89,0C93.55,108.72,93.55,110,93.56,111.32Z"/><path class="cls-9" d="M93.55,115.23v-3.92l3.91,0c0,1.29,0,2.59,0,3.88Z"/><path class="cls-11" d="M89.65,107.4c-1.08,0-2.15,0-3.22,0-.54,0-.75.12-.72.7,0,1.07,0,2.14,0,3.22l-3.93,0c0-1.28,0-2.57,0-3.86s0-2.63,0-3.94h7.81Z"/><path class="cls-16" d="M50.49,95.66c0,1.14,0,2.28,0,3.43,0,.37-.12.5-.49.49H46.58V95.68Z"/></g></g></svg>
