<svg xmlns="http://www.w3.org/2000/svg" width="110" height="35" viewBox="0 0 110 35"><defs><style>.cls-1{fill:#ff9207;}.cls-2{fill:#fff;}</style></defs><title>Asset 12</title><g id="Layer_2" data-name="Layer 2"><g id="Taleboble2"><rect class="cls-1" width="108.48" height="35" rx="4.5" ry="4.5"/><path class="cls-1" d="M108.48,30.22s0,3.47,1.15,4.12-.76.66-.76.66h-3.82Z"/><path class="cls-2" d="M24.08,23.78H22.57V18.52H16.84v5.26h-1.5V12.4h1.5v4.89h5.73V12.4h1.51Z"/><path class="cls-2" d="M29.31,21.81l2.09-6.49h1.48l-3,8.46h-1.1l-3.07-8.46h1.48Z"/><path class="cls-2" d="M39.37,23.78a3.19,3.19,0,0,1-.2-.9,3.23,3.23,0,0,1-2.41,1.05,2.94,2.94,0,0,1-2-.71,2.28,2.28,0,0,1-.8-1.79,2.39,2.39,0,0,1,1-2.05,4.72,4.72,0,0,1,2.83-.73h1.4V18a1.63,1.63,0,0,0-.45-1.21,1.82,1.82,0,0,0-1.34-.45,2.1,2.1,0,0,0-1.29.39,1.16,1.16,0,0,0-.53,1H34.08a2,2,0,0,1,.45-1.23,3.13,3.13,0,0,1,1.22-.93,4.08,4.08,0,0,1,1.69-.34,3.33,3.33,0,0,1,2.29.73,2.62,2.62,0,0,1,.86,2V21.8a4.7,4.7,0,0,0,.3,1.85v.13ZM37,22.67a2.5,2.5,0,0,0,1.29-.35,2.08,2.08,0,0,0,.88-.91V19.67H38c-1.77,0-2.66.52-2.66,1.56a1.32,1.32,0,0,0,.46,1.06A1.71,1.71,0,0,0,37,22.67Z"/><path class="cls-2" d="M42.5,19.48a5,5,0,0,1,.92-3.13,3.15,3.15,0,0,1,4.77-.17v-4.4h1.45v12H48.31l-.07-.91a3,3,0,0,1-2.42,1.06,2.88,2.88,0,0,1-2.39-1.2,5,5,0,0,1-.93-3.14Zm1.45.16a3.78,3.78,0,0,0,.59,2.25,1.93,1.93,0,0,0,1.64.82,2.12,2.12,0,0,0,2-1.24V17.59a2.12,2.12,0,0,0-2-1.2,2,2,0,0,0-1.66.82A4.19,4.19,0,0,0,44,19.64Z"/><path class="cls-2" d="M60.76,21.53a1.08,1.08,0,0,0-.44-.91,4.43,4.43,0,0,0-1.54-.56A7,7,0,0,1,57,19.5a2.56,2.56,0,0,1-1-.78,1.9,1.9,0,0,1-.3-1.08,2.19,2.19,0,0,1,.88-1.76,4,4,0,0,1,4.57,0,2.35,2.35,0,0,1,.9,1.9H60.67a1.3,1.3,0,0,0-.5-1,2.2,2.2,0,0,0-2.5-.08,1.08,1.08,0,0,0-.45.9.86.86,0,0,0,.42.78,4.85,4.85,0,0,0,1.49.51,8,8,0,0,1,1.76.58,2.48,2.48,0,0,1,1,.81,2,2,0,0,1,.33,1.15,2.18,2.18,0,0,1-.91,1.82,3.83,3.83,0,0,1-2.35.68,4.25,4.25,0,0,1-1.8-.36,2.89,2.89,0,0,1-1.22-1,2.39,2.39,0,0,1-.44-1.4h1.44a1.53,1.53,0,0,0,.58,1.16,2.72,2.72,0,0,0,2.75.09A1,1,0,0,0,60.76,21.53Z"/><path class="cls-2" d="M69.31,23.78a3.11,3.11,0,0,1-.21-.9,3.21,3.21,0,0,1-2.4,1.05,2.94,2.94,0,0,1-2-.71,2.25,2.25,0,0,1-.8-1.79,2.39,2.39,0,0,1,1-2.05,4.71,4.71,0,0,1,2.82-.73h1.41V18a1.63,1.63,0,0,0-.45-1.21,1.82,1.82,0,0,0-1.34-.45,2.08,2.08,0,0,0-1.29.39,1.16,1.16,0,0,0-.53,1H64a2,2,0,0,1,.45-1.23,3.05,3.05,0,0,1,1.22-.93,4.05,4.05,0,0,1,1.69-.34,3.33,3.33,0,0,1,2.29.73,2.62,2.62,0,0,1,.86,2V21.8a4.72,4.72,0,0,0,.29,1.85v.13Zm-2.4-1.11a2.5,2.5,0,0,0,1.29-.35,2.14,2.14,0,0,0,.88-.91V19.67H68c-1.77,0-2.66.52-2.66,1.56a1.29,1.29,0,0,0,.46,1.06A1.71,1.71,0,0,0,66.91,22.67Zm2.3-10a1.53,1.53,0,0,1-.48,1.14,1.69,1.69,0,0,1-1.2.45,1.67,1.67,0,0,1-1.2-.46,1.49,1.49,0,0,1-.48-1.13,1.56,1.56,0,0,1,.48-1.15,1.74,1.74,0,0,1,2.4,0A1.56,1.56,0,0,1,69.21,12.69Zm-2.58,0a.84.84,0,0,0,.26.63.85.85,0,0,0,.64.27.88.88,0,0,0,.64-.26.85.85,0,0,0,.27-.64.91.91,0,0,0-.26-.65.88.88,0,0,0-.65-.27.84.84,0,0,0-.64.27A.88.88,0,0,0,66.63,12.69Z"/><path class="cls-2" d="M74.49,20.56a4.69,4.69,0,0,1,.21-1.47,3.64,3.64,0,0,1,.8-1.19l1-1a2.36,2.36,0,0,0,.65-1.59A1.86,1.86,0,0,0,76.75,14a1.63,1.63,0,0,0-1.25-.46,1.91,1.91,0,0,0-1.29.42,1.43,1.43,0,0,0-.48,1.13H72.28a2.64,2.64,0,0,1,.91-2,3.37,3.37,0,0,1,2.31-.78,3.19,3.19,0,0,1,2.3.8,2.85,2.85,0,0,1,.82,2.17,3.9,3.9,0,0,1-1.27,2.69l-.85.84a2.63,2.63,0,0,0-.57,1.82ZM74.42,23a.86.86,0,0,1,.22-.59.82.82,0,0,1,.64-.24.83.83,0,0,1,.64.24.82.82,0,0,1-.64,1.41.85.85,0,0,1-.64-.23A.86.86,0,0,1,74.42,23Z"/></g></g></svg>
