<svg xmlns="http://www.w3.org/2000/svg" width="139" height="58" viewBox="0 0 139 58"><defs><style>.cls-1{fill:#97cbe1;}.cls-2{fill:#1f2532;}.cls-3{fill:#eddb67;}.cls-4{fill:#56bdef;}.cls-5{fill:#df8571;}.cls-6{fill:#d962a6;}.cls-7{fill:#fff;}.cls-8{fill:#1f1f1f;}</style></defs><title>Asset 10</title><g id="Layer_2" data-name="Layer 2"><g id="Taleboble2"><rect class="cls-1" x="1.92" width="137.08" height="58" rx="4.5" ry="4.5" transform="translate(140.92 58) rotate(-180)"/><path class="cls-1" d="M1.92,50.71S1.92,56,.46,57s1,1,1,1H6.26Z"/><path class="cls-2" d="M23.2,15.63H19.54V25.78H18.05V15.63H14.4V14.4h8.8Z"/><path class="cls-2" d="M26.15,17.32v9.43c0,1.63-.74,2.44-2.21,2.44a2.75,2.75,0,0,1-.88-.14V27.9a2.81,2.81,0,0,0,.65.06,1,1,0,0,0,.74-.26,1.28,1.28,0,0,0,.26-.91V17.32Zm-1.59-2.24a.87.87,0,0,1,.21-.59.93.93,0,0,1,1.27,0,.9.9,0,0,1,0,1.18.85.85,0,0,1-.64.23.82.82,0,0,1-.63-.23A.87.87,0,0,1,24.56,15.08Z"/><path class="cls-2" d="M32,25.93a3.67,3.67,0,0,1-2.8-1.13,4.18,4.18,0,0,1-1.08-3v-.26a5.09,5.09,0,0,1,.48-2.25,3.78,3.78,0,0,1,1.35-1.55,3.38,3.38,0,0,1,1.87-.55,3.17,3.17,0,0,1,2.56,1.08,4.71,4.71,0,0,1,.91,3.11V22H29.56a3,3,0,0,0,.73,2,2.27,2.27,0,0,0,1.78.77,2.47,2.47,0,0,0,1.29-.31,3.06,3.06,0,0,0,.93-.83l.88.69A3.53,3.53,0,0,1,32,25.93Zm-.18-7.58a1.93,1.93,0,0,0-1.47.64,3.13,3.13,0,0,0-.74,1.79h4.24v-.11A2.75,2.75,0,0,0,33.25,19,1.85,1.85,0,0,0,31.81,18.35Z"/><path class="cls-2" d="M39.32,21.86l-.91.95v3H37v-12h1.45V21l.77-.93,2.64-2.78h1.75l-3.29,3.53L44,25.78h-1.7Z"/><path class="cls-2" d="M50.6,25.78H49.15v-12H50.6Z"/><path class="cls-2" d="M52.92,15.08a.87.87,0,0,1,.21-.59.94.94,0,0,1,1.28,0,.9.9,0,0,1,0,1.18.85.85,0,0,1-1.49-.59Zm1.56,10.7H53V17.32h1.45Z"/><path class="cls-2" d="M56.45,21.48a5,5,0,0,1,.91-3.15,2.94,2.94,0,0,1,2.42-1.16,2.91,2.91,0,0,1,2.42,1.09l.07-.94h1.32v8.25a3.47,3.47,0,0,1-1,2.59A3.6,3.6,0,0,1,60,29.1a4.38,4.38,0,0,1-1.79-.39,3,3,0,0,1-1.33-1.07l.75-.86a2.84,2.84,0,0,0,2.27,1.14,2.22,2.22,0,0,0,1.65-.59,2.28,2.28,0,0,0,.59-1.67v-.73a3,3,0,0,1-2.37,1,2.89,2.89,0,0,1-2.4-1.19A5.2,5.2,0,0,1,56.45,21.48Zm1.45.16a3.81,3.81,0,0,0,.59,2.25,1.91,1.91,0,0,0,1.64.82,2.13,2.13,0,0,0,2-1.25V19.6a2.17,2.17,0,0,0-2-1.21,1.92,1.92,0,0,0-1.64.82A4.11,4.11,0,0,0,57.9,21.64Z"/><path class="cls-2" d="M69.28,25.93a3.67,3.67,0,0,1-2.8-1.13,4.18,4.18,0,0,1-1.08-3v-.26a5.09,5.09,0,0,1,.48-2.25,3.78,3.78,0,0,1,1.35-1.55,3.35,3.35,0,0,1,1.87-.55,3.17,3.17,0,0,1,2.56,1.08,4.71,4.71,0,0,1,.91,3.11V22H66.85a3,3,0,0,0,.73,2,2.26,2.26,0,0,0,1.77.77,2.48,2.48,0,0,0,1.3-.31,3.06,3.06,0,0,0,.93-.83l.88.69A3.53,3.53,0,0,1,69.28,25.93Zm-.18-7.58a1.93,1.93,0,0,0-1.47.64,3.13,3.13,0,0,0-.74,1.79h4.24v-.11a2.7,2.7,0,0,0-.6-1.71A1.81,1.81,0,0,0,69.1,18.35Z"/><path class="cls-2" d="M77.85,21.48a4.92,4.92,0,0,1,.93-3.13,3.14,3.14,0,0,1,4.76-.17v-4.4H85v12H83.66l-.07-.91a2.94,2.94,0,0,1-2.42,1.06,2.9,2.9,0,0,1-2.39-1.2,5,5,0,0,1-.93-3.14Zm1.45.16a3.78,3.78,0,0,0,.59,2.25,1.94,1.94,0,0,0,1.64.82,2.12,2.12,0,0,0,2-1.24V19.59a2.11,2.11,0,0,0-2-1.2,2,2,0,0,0-1.66.82A4.19,4.19,0,0,0,79.3,21.64Z"/><path class="cls-2" d="M90.74,25.93a3.67,3.67,0,0,1-2.8-1.13,4.18,4.18,0,0,1-1.08-3v-.26a5.09,5.09,0,0,1,.48-2.25,3.78,3.78,0,0,1,1.35-1.55,3.38,3.38,0,0,1,1.87-.55,3.17,3.17,0,0,1,2.56,1.08A4.71,4.71,0,0,1,94,21.36V22H88.31A3,3,0,0,0,89,24a2.27,2.27,0,0,0,1.78.77,2.47,2.47,0,0,0,1.29-.31,3.06,3.06,0,0,0,.93-.83l.88.69A3.53,3.53,0,0,1,90.74,25.93Zm-.18-7.58a1.93,1.93,0,0,0-1.47.64,3.13,3.13,0,0,0-.74,1.79h4.24v-.11A2.75,2.75,0,0,0,92,19,1.85,1.85,0,0,0,90.56,18.35Z"/><path class="cls-2" d="M97.67,15.28v2h1.58v1.12H97.67v5.25a1.17,1.17,0,0,0,.21.76.89.89,0,0,0,.72.26,3.81,3.81,0,0,0,.68-.1v1.17a4.35,4.35,0,0,1-1.11.15,1.81,1.81,0,0,1-1.46-.58,2.58,2.58,0,0,1-.49-1.67V18.44H94.68V17.32h1.54v-2Z"/><path class="cls-2" d="M106.34,18.35a3.06,3.06,0,0,1,2.5-1.18c1.78,0,2.69,1,2.7,3v5.59H110.1v-5.6a2,2,0,0,0-.42-1.35,1.68,1.68,0,0,0-1.28-.44,2.06,2.06,0,0,0-1.23.38,2.55,2.55,0,0,0-.83,1v6h-1.45v-12h1.45Z"/><path class="cls-2" d="M117.21,25.93a3.66,3.66,0,0,1-2.79-1.13,4.18,4.18,0,0,1-1.08-3v-.26a5.09,5.09,0,0,1,.48-2.25,3.83,3.83,0,0,1,1.34-1.55,3.4,3.4,0,0,1,1.87-.55,3.19,3.19,0,0,1,2.57,1.08,4.71,4.71,0,0,1,.91,3.11V22h-5.73a3,3,0,0,0,.73,2,2.28,2.28,0,0,0,1.78.77,2.53,2.53,0,0,0,1.3-.31,3.31,3.31,0,0,0,.93-.83l.88.69A3.55,3.55,0,0,1,117.21,25.93ZM117,18.35a1.92,1.92,0,0,0-1.46.64,3.07,3.07,0,0,0-.74,1.79h4.24v-.11a2.76,2.76,0,0,0-.6-1.71A1.82,1.82,0,0,0,117,18.35Z"/><path class="cls-2" d="M126.27,18.62a4,4,0,0,0-.71-.06,1.91,1.91,0,0,0-1.93,1.22v6h-1.45V17.32h1.41l0,1a2.25,2.25,0,0,1,2-1.13,1.39,1.39,0,0,1,.64.11Z"/><path class="cls-2" d="M22.27,40.84A5.09,5.09,0,0,1,21.38,44,2.86,2.86,0,0,1,19,45.13,3,3,0,0,1,16.51,44l-.07,1H15.11V33h1.45v4.47A2.93,2.93,0,0,1,19,36.37a2.85,2.85,0,0,1,2.42,1.16,5.16,5.16,0,0,1,.88,3.19Zm-1.45-.16a3.88,3.88,0,0,0-.57-2.28,1.87,1.87,0,0,0-1.64-.81,2.12,2.12,0,0,0-2.05,1.33v3.66a2.19,2.19,0,0,0,2.07,1.33,1.89,1.89,0,0,0,1.62-.81A4.2,4.2,0,0,0,20.82,40.68Z"/><path class="cls-2" d="M24.1,34.28a.87.87,0,0,1,.21-.59.94.94,0,0,1,1.28,0,.9.9,0,0,1,0,1.18.85.85,0,0,1-1.49-.59ZM25.66,45H24.21V36.52h1.45Z"/><path class="cls-2" d="M29.54,45H28.1V33h1.44Z"/><path class="cls-2" d="M33.42,45H32V33h1.44Z"/><path class="cls-2" d="M39.25,45.13A3.67,3.67,0,0,1,36.45,44a4.18,4.18,0,0,1-1.08-3v-.26a5.09,5.09,0,0,1,.48-2.25,3.83,3.83,0,0,1,1.34-1.55,3.41,3.41,0,0,1,1.88-.55,3.18,3.18,0,0,1,2.56,1.08,4.71,4.71,0,0,1,.91,3.11v.6H36.82a3,3,0,0,0,.73,2,2.25,2.25,0,0,0,1.77.77,2.5,2.5,0,0,0,1.3-.31,3.31,3.31,0,0,0,.93-.83l.88.69A3.54,3.54,0,0,1,39.25,45.13Zm-.18-7.58a1.93,1.93,0,0,0-1.47.64A3.13,3.13,0,0,0,36.86,40H41.1v-.11a2.76,2.76,0,0,0-.6-1.71A1.81,1.81,0,0,0,39.07,37.55Z"/><path class="cls-2" d="M43.86,40.68a5,5,0,0,1,.92-3.13,3.15,3.15,0,0,1,4.77-.17V33H51V45H49.67l-.07-.91a3,3,0,0,1-2.42,1.06,2.88,2.88,0,0,1-2.39-1.2,5,5,0,0,1-.93-3.14Zm1.45.16a3.78,3.78,0,0,0,.59,2.25,1.93,1.93,0,0,0,1.64.82,2.12,2.12,0,0,0,2-1.24V38.79a2.12,2.12,0,0,0-2-1.2,2,2,0,0,0-1.66.82A4.19,4.19,0,0,0,45.31,40.84Z"/><path class="cls-2" d="M56.75,45.13A3.67,3.67,0,0,1,54,44a4.18,4.18,0,0,1-1.08-3v-.26a5.09,5.09,0,0,1,.48-2.25,3.83,3.83,0,0,1,1.34-1.55,3.41,3.41,0,0,1,1.88-.55,3.18,3.18,0,0,1,2.56,1.08A4.71,4.71,0,0,1,60,40.56v.6H54.32a3,3,0,0,0,.73,2,2.25,2.25,0,0,0,1.77.77,2.5,2.5,0,0,0,1.3-.31,3.31,3.31,0,0,0,.93-.83l.88.69A3.54,3.54,0,0,1,56.75,45.13Zm-.18-7.58a1.93,1.93,0,0,0-1.47.64A3.13,3.13,0,0,0,54.36,40H58.6v-.11a2.76,2.76,0,0,0-.6-1.71A1.81,1.81,0,0,0,56.57,37.55Z"/><path class="cls-2" d="M70.89,44.14a3.05,3.05,0,0,1-2.47,1,2.64,2.64,0,0,1-2.06-.78A3.45,3.45,0,0,1,65.64,42v-5.5h1.45V42c0,1.28.52,1.93,1.56,1.93a2.16,2.16,0,0,0,2.2-1.24V36.52H72.3V45H70.92Z"/><path class="cls-2" d="M74.14,40.68a4.92,4.92,0,0,1,.93-3.13,2.89,2.89,0,0,1,2.41-1.18,3,3,0,0,1,2.35,1V33h1.45V45H80l-.07-.91a2.94,2.94,0,0,1-2.42,1.06,2.88,2.88,0,0,1-2.39-1.2,5,5,0,0,1-.93-3.14Zm1.45.16a3.78,3.78,0,0,0,.59,2.25,1.93,1.93,0,0,0,1.64.82,2.12,2.12,0,0,0,2-1.24V38.79a2.12,2.12,0,0,0-2-1.2,2,2,0,0,0-1.66.82A4.19,4.19,0,0,0,75.59,40.84Z"/><path class="cls-2" d="M83.67,44.24a.86.86,0,0,1,.22-.59.82.82,0,0,1,.64-.24.83.83,0,0,1,.64.24.82.82,0,0,1-.64,1.41.85.85,0,0,1-.64-.23A.86.86,0,0,1,83.67,44.24Zm1.47-2.49H83.83l-.1-8.15h1.52Z"/><g id="Artboard_1" data-name="Artboard 1"><circle class="cls-3" cx="100.72" cy="38.5" r="6.5"/><path id="Shape_1_copy" data-name="Shape 1 copy" class="cls-4" d="M108.28,39.45a1.59,1.59,0,1,1-2.55,1.9h0c-.53-.7-.83-3.79-.83-3.79S107.76,38.74,108.28,39.45Zm-15.46,0a1.59,1.59,0,0,0,2.54,1.91h0c.52-.71.82-3.8.82-3.8s-2.85,1.2-3.37,1.9Z"/><path class="cls-5" d="M104.5,39.77a3.78,3.78,0,0,1-7.55,0Z"/><ellipse class="cls-6" cx="100.78" cy="41.86" rx="2.27" ry="1.63"/><path id="Rounded_Rectangle_1" data-name="Rounded Rectangle 1" class="cls-7" d="M97.6,39.77h6.31v.37a.37.37,0,0,1-.36.37H98a.38.38,0,0,1-.37-.37v-.37Z"/><path id="Rounded_Rectangle_2" data-name="Rounded Rectangle 2" class="cls-8" d="M96.72,35.89h1.79a.6.6,0,0,1,.61.6h0a.61.61,0,0,1-.61.61H96.72a.61.61,0,0,1-.61-.61h0A.61.61,0,0,1,96.72,35.89Z"/><path id="Rounded_Rectangle_2_copy" data-name="Rounded Rectangle 2 copy" class="cls-8" d="M102.68,35.89h1.79a.61.61,0,0,1,.61.6h0a.61.61,0,0,1-.61.61h-1.79a.61.61,0,0,1-.61-.61h0A.6.6,0,0,1,102.68,35.89Z"/></g></g></g></svg>
