<svg xmlns="http://www.w3.org/2000/svg" width="137" height="74" viewBox="0 0 137 74"><defs><style>.cls-1{fill:#ff9207;}.cls-2{fill:#fff;}</style></defs><title>Asset 25</title><g id="Layer_2" data-name="Layer 2"><g id="Taleboble2"><rect class="cls-1" width="135.48" height="74" rx="4.5" ry="4.5"/><path class="cls-1" d="M135.48,66.88s0,5.17,1.15,6.14-.76,1-.76,1h-3.82Z"/><path class="cls-2" d="M18.52,22.78H17V17.52H11.28v5.26H9.78V11.4h1.5v4.89H17V11.4h1.51Z"/><path class="cls-2" d="M23.75,20.82l2.09-6.5h1.48l-3,8.46H23.18l-3.06-8.46H21.6Z"/><path class="cls-2" d="M28.21,18.47a4.91,4.91,0,0,1,.49-2.23,3.6,3.6,0,0,1,1.35-1.53,3.74,3.74,0,0,1,2-.54,3.6,3.6,0,0,1,2.8,1.19,4.61,4.61,0,0,1,1.06,3.18v.1a5,5,0,0,1-.47,2.22,3.72,3.72,0,0,1-1.35,1.53,3.79,3.79,0,0,1-2,.54,3.58,3.58,0,0,1-2.79-1.19,4.58,4.58,0,0,1-1.06-3.17Zm1.45.17a3.65,3.65,0,0,0,.65,2.26,2.09,2.09,0,0,0,1.75.85,2.06,2.06,0,0,0,1.75-.86,4,4,0,0,0,.65-2.42,3.58,3.58,0,0,0-.66-2.25A2.1,2.1,0,0,0,32,15.35a2.06,2.06,0,0,0-1.72.86A3.88,3.88,0,0,0,29.66,18.64Z"/><path class="cls-2" d="M41.8,15.62a4,4,0,0,0-.71,0,1.9,1.9,0,0,0-1.93,1.21v6H37.71V14.32h1.41l0,1a2.25,2.25,0,0,1,2-1.13,1.36,1.36,0,0,1,.64.11Z"/><path class="cls-2" d="M44,22.78V15.44H42.62V14.32H44v-.86a2.92,2.92,0,0,1,.72-2.11,2.78,2.78,0,0,1,2.06-.74,4.2,4.2,0,0,1,1,.13l-.08,1.17a3.84,3.84,0,0,0-.78-.07,1.4,1.4,0,0,0-1.08.41,1.65,1.65,0,0,0-.39,1.18v.89h1.81v1.12H45.4v7.34Z"/><path class="cls-2" d="M48.42,18.47a4.91,4.91,0,0,1,.49-2.23,3.56,3.56,0,0,1,1.36-1.53,3.68,3.68,0,0,1,2-.54,3.58,3.58,0,0,1,2.8,1.19,4.61,4.61,0,0,1,1.06,3.18v.1a5,5,0,0,1-.47,2.22,3.59,3.59,0,0,1-1.35,1.53,3.79,3.79,0,0,1-2,.54,3.59,3.59,0,0,1-2.79-1.19,4.58,4.58,0,0,1-1.06-3.17Zm1.45.17a3.65,3.65,0,0,0,.65,2.26,2.09,2.09,0,0,0,1.75.85A2.06,2.06,0,0,0,54,20.89a4,4,0,0,0,.65-2.42A3.58,3.58,0,0,0,54,16.22a2.1,2.1,0,0,0-1.76-.87,2.06,2.06,0,0,0-1.72.86A3.88,3.88,0,0,0,49.87,18.64Z"/><path class="cls-2" d="M62,15.62a4,4,0,0,0-.71,0,1.9,1.9,0,0,0-1.93,1.21v6H57.93V14.32h1.4l0,1a2.23,2.23,0,0,1,2-1.13,1.36,1.36,0,0,1,.64.11Z"/><path class="cls-2" d="M67,18.48a5,5,0,0,1,.92-3.13,2.92,2.92,0,0,1,2.42-1.18,3,3,0,0,1,2.35,1v-4.4h1.44v12H72.75l-.07-.91a2.92,2.92,0,0,1-2.41,1.06,2.87,2.87,0,0,1-2.39-1.2A5,5,0,0,1,67,18.59Zm1.44.16a3.71,3.71,0,0,0,.6,2.25,1.9,1.9,0,0,0,1.64.82,2.13,2.13,0,0,0,2-1.24V16.59a2.14,2.14,0,0,0-2-1.2,1.94,1.94,0,0,0-1.65.82A4.11,4.11,0,0,0,68.39,18.64Z"/><path class="cls-2" d="M79.83,22.93A3.65,3.65,0,0,1,77,21.8a4.18,4.18,0,0,1-1.08-3v-.26a5.09,5.09,0,0,1,.48-2.25,3.74,3.74,0,0,1,1.34-1.54,3.33,3.33,0,0,1,1.87-.56,3.15,3.15,0,0,1,2.56,1.08,4.71,4.71,0,0,1,.92,3.11V19H77.4a3,3,0,0,0,.73,2,2.28,2.28,0,0,0,1.78.77,2.53,2.53,0,0,0,1.3-.31,3.31,3.31,0,0,0,.93-.83l.88.69A3.55,3.55,0,0,1,79.83,22.93Zm-.18-7.58a2,2,0,0,0-1.47.64,3.13,3.13,0,0,0-.73,1.79h4.23v-.11A2.75,2.75,0,0,0,81.09,16,1.82,1.82,0,0,0,79.65,15.35Z"/><path class="cls-2" d="M86.37,22.78H84.93v-12h1.44Z"/><path class="cls-2" d="M92.19,22.93a3.69,3.69,0,0,1-2.8-1.13,4.22,4.22,0,0,1-1.07-3v-.26a5.09,5.09,0,0,1,.48-2.25,3.74,3.74,0,0,1,1.34-1.54A3.33,3.33,0,0,1,92,14.17a3.17,3.17,0,0,1,2.56,1.08,4.71,4.71,0,0,1,.92,3.11V19H89.76a3,3,0,0,0,.73,2,2.28,2.28,0,0,0,1.78.77,2.53,2.53,0,0,0,1.3-.31,3.31,3.31,0,0,0,.93-.83l.88.69A3.55,3.55,0,0,1,92.19,22.93ZM92,15.35a2,2,0,0,0-1.47.64,3.13,3.13,0,0,0-.73,1.79H94v-.11A2.75,2.75,0,0,0,93.45,16,1.84,1.84,0,0,0,92,15.35Z"/><path class="cls-2" d="M101.25,15.62a4,4,0,0,0-.71,0,1.89,1.89,0,0,0-1.93,1.21v6H97.16V14.32h1.41l0,1a2.24,2.24,0,0,1,2-1.13,1.39,1.39,0,0,1,.64.11Z"/><path class="cls-2" d="M106.18,18.48a4.92,4.92,0,0,1,.93-3.13,2.89,2.89,0,0,1,2.41-1.18,3,3,0,0,1,2.35,1v-4.4h1.45v12H112l-.07-.91a2.94,2.94,0,0,1-2.42,1.06,2.88,2.88,0,0,1-2.39-1.2,5,5,0,0,1-.93-3.14Zm1.45.16a3.78,3.78,0,0,0,.59,2.25,1.92,1.92,0,0,0,1.64.82,2.12,2.12,0,0,0,2-1.24V16.59a2.12,2.12,0,0,0-2-1.2,2,2,0,0,0-1.66.82A4.19,4.19,0,0,0,107.63,18.64Z"/><path class="cls-2" d="M120.78,21.94a3.09,3.09,0,0,1-2.48,1,2.64,2.64,0,0,1-2.06-.78,3.4,3.4,0,0,1-.71-2.33v-5.5H117v5.46c0,1.29.52,1.93,1.57,1.93a2.18,2.18,0,0,0,2.2-1.24V14.32h1.44v8.46h-1.37Z"/><path class="cls-2" d="M9.2,37.68a5,5,0,0,1,.92-3.13,2.92,2.92,0,0,1,2.42-1.18,3,3,0,0,1,2.35,1V30h1.44V42H15l-.07-.91a2.92,2.92,0,0,1-2.41,1.06,2.87,2.87,0,0,1-2.39-1.2,5,5,0,0,1-.93-3.14Zm1.44.16a3.71,3.71,0,0,0,.6,2.25,1.9,1.9,0,0,0,1.64.82,2.11,2.11,0,0,0,2-1.24V35.79a2.14,2.14,0,0,0-2-1.2,1.94,1.94,0,0,0-1.65.82A4.11,4.11,0,0,0,10.64,37.84Z"/><path class="cls-2" d="M22.08,42.13A3.65,3.65,0,0,1,19.29,41a4.17,4.17,0,0,1-1.08-3v-.26a5.09,5.09,0,0,1,.48-2.25A3.74,3.74,0,0,1,20,33.93a3.33,3.33,0,0,1,1.87-.56,3.15,3.15,0,0,1,2.56,1.08,4.71,4.71,0,0,1,.92,3.11v.6H19.65a3,3,0,0,0,.73,2,2.28,2.28,0,0,0,1.78.77,2.53,2.53,0,0,0,1.3-.31,3.31,3.31,0,0,0,.93-.83l.88.69A3.55,3.55,0,0,1,22.08,42.13Zm-.18-7.58a2,2,0,0,0-1.47.64A3.13,3.13,0,0,0,19.7,37h4.23v-.11a2.75,2.75,0,0,0-.59-1.71A1.82,1.82,0,0,0,21.9,34.55Z"/><path class="cls-2" d="M29,31.48v2h1.58v1.12H29v5.25a1.17,1.17,0,0,0,.21.76.89.89,0,0,0,.72.26,3.06,3.06,0,0,0,.69-.1V42a4.35,4.35,0,0,1-1.11.15,1.79,1.79,0,0,1-1.46-.58,2.52,2.52,0,0,1-.49-1.67V34.64H26V33.52h1.54v-2Z"/><path class="cls-2" d="M34,38.76a4.69,4.69,0,0,1,.21-1.47A3.92,3.92,0,0,1,35,36.1l1-1.05a2.38,2.38,0,0,0,.66-1.59,1.81,1.81,0,0,0-.43-1.29A1.65,1.65,0,0,0,35,31.71a1.88,1.88,0,0,0-1.28.42,1.44,1.44,0,0,0-.49,1.14H31.77a2.64,2.64,0,0,1,.9-2.05A3.36,3.36,0,0,1,35,30.45a3.18,3.18,0,0,1,2.3.79,2.86,2.86,0,0,1,.83,2.17,3.94,3.94,0,0,1-1.27,2.69l-.85.84a2.63,2.63,0,0,0-.57,1.82Zm-.06,2.48a.83.83,0,0,1,.22-.59.79.79,0,0,1,.63-.24.82.82,0,0,1,.64.24.83.83,0,0,1,.22.59.82.82,0,0,1-.22.59.85.85,0,0,1-.64.23.78.78,0,0,1-.85-.82Z"/><path class="cls-2" d="M51.57,31.83H47.91V42H46.42V31.83H42.77V30.6h8.8Z"/><path class="cls-2" d="M57.36,42a3.19,3.19,0,0,1-.2-.89,3.24,3.24,0,0,1-2.41,1,3,3,0,0,1-2-.7,2.32,2.32,0,0,1-.8-1.8,2.4,2.4,0,0,1,1-2.05,4.78,4.78,0,0,1,2.82-.73h1.41v-.66A1.6,1.6,0,0,0,56.68,35a1.8,1.8,0,0,0-1.33-.45,2.11,2.11,0,0,0-1.3.39,1.15,1.15,0,0,0-.52.95H52.07a2,2,0,0,1,.45-1.23,3.13,3.13,0,0,1,1.22-.93,4.08,4.08,0,0,1,1.69-.34,3.32,3.32,0,0,1,2.29.73,2.63,2.63,0,0,1,.86,2V40a4.7,4.7,0,0,0,.3,1.85V42ZM55,40.88a2.46,2.46,0,0,0,1.29-.36,2.16,2.16,0,0,0,.89-.91V37.88H56c-1.77,0-2.65.51-2.65,1.55a1.31,1.31,0,0,0,.45,1.06A1.71,1.71,0,0,0,55,40.88Z"/><path class="cls-2" d="M60.5,37.68a4.93,4.93,0,0,1,.92-3.14,3.15,3.15,0,0,1,4.83-.08l.07-.94h1.32v8.25a3.43,3.43,0,0,1-1,2.59,3.59,3.59,0,0,1-2.61.94,4.34,4.34,0,0,1-1.79-.39,3.07,3.07,0,0,1-1.34-1.07l.75-.86A2.85,2.85,0,0,0,64,44.13a2.19,2.19,0,0,0,1.64-.6,2.23,2.23,0,0,0,.59-1.67v-.73a3,3,0,0,1-2.37,1,2.89,2.89,0,0,1-2.4-1.19A5.26,5.26,0,0,1,60.5,37.68Zm1.46.16a3.78,3.78,0,0,0,.58,2.25,1.92,1.92,0,0,0,1.64.82,2.13,2.13,0,0,0,2-1.25V35.8a2.15,2.15,0,0,0-2-1.21,2,2,0,0,0-1.65.82A4.19,4.19,0,0,0,62,37.84Z"/><path class="cls-2" d="M73.43,37.68a4.92,4.92,0,0,1,.93-3.13,2.89,2.89,0,0,1,2.41-1.18,3,3,0,0,1,2.35,1V30h1.45V42H79.24l-.07-.91a2.94,2.94,0,0,1-2.42,1.06,2.88,2.88,0,0,1-2.39-1.2,5,5,0,0,1-.93-3.14Zm1.45.16a3.78,3.78,0,0,0,.59,2.25,1.92,1.92,0,0,0,1.64.82,2.1,2.1,0,0,0,2-1.24V35.79a2.12,2.12,0,0,0-2-1.2,2,2,0,0,0-1.66.82A4.19,4.19,0,0,0,74.88,37.84Z"/><path class="cls-2" d="M82.82,31.28a.87.87,0,0,1,.21-.59.82.82,0,0,1,.64-.24.83.83,0,0,1,.64.24.88.88,0,0,1,.22.59.78.78,0,0,1-.86.82.76.76,0,0,1-.85-.82ZM84.38,42H82.93V33.52h1.45Z"/><path class="cls-2" d="M86.35,37.68a4.93,4.93,0,0,1,.91-3.14,3.16,3.16,0,0,1,4.84-.08l.07-.94h1.32v8.25a3.47,3.47,0,0,1-1,2.59,3.6,3.6,0,0,1-2.62.94,4.38,4.38,0,0,1-1.79-.39,3,3,0,0,1-1.33-1.07l.75-.86a2.85,2.85,0,0,0,2.27,1.15,2.23,2.23,0,0,0,1.65-.6A2.27,2.27,0,0,0,92,41.86v-.73a3,3,0,0,1-2.37,1,2.89,2.89,0,0,1-2.4-1.19A5.2,5.2,0,0,1,86.35,37.68Zm1.45.16a3.78,3.78,0,0,0,.59,2.25,1.91,1.91,0,0,0,1.64.82,2.13,2.13,0,0,0,2-1.25V35.8a2.17,2.17,0,0,0-2-1.21,2,2,0,0,0-1.65.82A4.19,4.19,0,0,0,87.8,37.84Z"/><path class="cls-2" d="M14.47,58.93A1.05,1.05,0,0,0,14,58a4.26,4.26,0,0,0-1.54-.55,7.37,7.37,0,0,1-1.74-.57,2.45,2.45,0,0,1-.95-.78A1.83,1.83,0,0,1,9.49,55a2.17,2.17,0,0,1,.88-1.75,3.4,3.4,0,0,1,2.24-.72,3.53,3.53,0,0,1,2.34.74,2.37,2.37,0,0,1,.89,1.9H14.39a1.31,1.31,0,0,0-.51-1,1.91,1.91,0,0,0-1.27-.43,2,2,0,0,0-1.23.35,1.08,1.08,0,0,0-.45.9.88.88,0,0,0,.42.79,5.2,5.2,0,0,0,1.49.5,8.41,8.41,0,0,1,1.76.58,2.57,2.57,0,0,1,1,.81,2,2,0,0,1,.33,1.15A2.16,2.16,0,0,1,15,60.65a3.83,3.83,0,0,1-2.35.68,4.25,4.25,0,0,1-1.8-.36,2.89,2.89,0,0,1-1.22-1,2.47,2.47,0,0,1-.44-1.4h1.44a1.51,1.51,0,0,0,.59,1.16,2.27,2.27,0,0,0,1.43.42A2.35,2.35,0,0,0,14,59.82,1,1,0,0,0,14.47,58.93Z"/><path class="cls-2" d="M23,61.18a3.19,3.19,0,0,1-.2-.89,3.27,3.27,0,0,1-2.41,1,3,3,0,0,1-2.05-.7,2.32,2.32,0,0,1-.8-1.8,2.39,2.39,0,0,1,1-2,4.72,4.72,0,0,1,2.83-.73h1.4v-.66a1.63,1.63,0,0,0-.45-1.21A1.82,1.82,0,0,0,21,53.73a2.1,2.1,0,0,0-1.29.39,1.16,1.16,0,0,0-.53,1H17.73a2,2,0,0,1,.45-1.23,3.13,3.13,0,0,1,1.22-.93,4.08,4.08,0,0,1,1.69-.34,3.33,3.33,0,0,1,2.29.73,2.63,2.63,0,0,1,.86,2V59.2a4.7,4.7,0,0,0,.3,1.85v.13Zm-2.4-1.11a2.5,2.5,0,0,0,1.29-.35,2.08,2.08,0,0,0,.88-.91V57.07H21.66c-1.77,0-2.66.52-2.66,1.56a1.32,1.32,0,0,0,.46,1.06A1.71,1.71,0,0,0,20.62,60.07Z"/><path class="cls-2" d="M27.86,52.72l0,.94a3.12,3.12,0,0,1,2.51-1.09,2.4,2.4,0,0,1,2.41,1.36,3.12,3.12,0,0,1,2.7-1.36c1.85,0,2.8,1,2.83,2.94v5.67H36.9V55.6a2,2,0,0,0-.41-1.36,1.83,1.83,0,0,0-1.39-.45,1.93,1.93,0,0,0-1.34.48,2,2,0,0,0-.62,1.3v5.61H31.69V55.64a1.61,1.61,0,0,0-1.8-1.85A2,2,0,0,0,27.94,55v6.18H26.5V52.72Z"/><path class="cls-2" d="M41.89,52.72l0,.94a3.1,3.1,0,0,1,2.5-1.09,2.42,2.42,0,0,1,2.42,1.36,3.18,3.18,0,0,1,1.1-1,3.22,3.22,0,0,1,1.59-.37c1.86,0,2.8,1,2.83,2.94v5.67H50.93V55.6a1.93,1.93,0,0,0-.42-1.36,1.81,1.81,0,0,0-1.39-.45,1.89,1.89,0,0,0-1.33.48,2,2,0,0,0-.62,1.3v5.61H45.71V55.64a1.61,1.61,0,0,0-1.8-1.85A2,2,0,0,0,42,55v6.18H40.52V52.72Z"/><path class="cls-2" d="M58.06,61.33a3.67,3.67,0,0,1-2.8-1.13,4.18,4.18,0,0,1-1.08-3v-.26a5.09,5.09,0,0,1,.48-2.25A3.69,3.69,0,0,1,56,53.13a3.31,3.31,0,0,1,1.87-.56,3.17,3.17,0,0,1,2.56,1.08,4.71,4.71,0,0,1,.92,3.11v.6H55.63a3,3,0,0,0,.73,2,2.28,2.28,0,0,0,1.78.77,2.47,2.47,0,0,0,1.29-.31,3.06,3.06,0,0,0,.93-.83l.89.69A3.55,3.55,0,0,1,58.06,61.33Zm-.18-7.58a2,2,0,0,0-1.47.64,3.06,3.06,0,0,0-.73,1.79h4.23v-.11a2.75,2.75,0,0,0-.59-1.71A1.85,1.85,0,0,0,57.88,53.75Z"/><path class="cls-2" d="M64.39,52.72l0,1.07A3.07,3.07,0,0,1,67,52.57c1.79,0,2.69,1,2.71,3v5.59H68.23v-5.6a1.88,1.88,0,0,0-.42-1.35,1.67,1.67,0,0,0-1.27-.44,2.12,2.12,0,0,0-1.24.38,2.64,2.64,0,0,0-.83,1v6H63V52.72Z"/><path class="cls-2" d="M72,60.44a.83.83,0,0,1,.22-.59.79.79,0,0,1,.63-.24.82.82,0,0,1,.64.24.83.83,0,0,1,.22.59.82.82,0,0,1-.22.59.85.85,0,0,1-.64.23.78.78,0,0,1-.85-.82ZM73.47,58h-1.3l-.1-8.15h1.51Z"/></g></g></svg>
