<svg xmlns="http://www.w3.org/2000/svg" width="64" height="35" viewBox="0 0 64 35"><defs><style>.cls-1{fill:#97cbe1;}.cls-2{fill:#1f2532;}</style></defs><title>Asset 11</title><g id="Layer_2" data-name="Layer 2"><g id="Taleboble2"><rect class="cls-1" x="1.86" width="62.14" height="35" rx="4.5" ry="4.5" transform="translate(65.86 35) rotate(-180)"/><path class="cls-1" d="M1.86,27.71S1.86,33,.45,34s.94,1,.94,1H6.08Z"/><path class="cls-2" d="M23.08,23.78H21.57V18.52H15.84v5.26h-1.5V12.4h1.5v4.89h5.73V12.4h1.51Z"/><path class="cls-2" d="M29,23.93a3.67,3.67,0,0,1-2.8-1.13,4.18,4.18,0,0,1-1.08-3v-.26a5.09,5.09,0,0,1,.48-2.25A3.78,3.78,0,0,1,27,15.72a3.35,3.35,0,0,1,1.87-.55,3.17,3.17,0,0,1,2.56,1.08,4.71,4.71,0,0,1,.91,3.11V20H26.6a3,3,0,0,0,.73,2,2.26,2.26,0,0,0,1.77.77,2.48,2.48,0,0,0,1.3-.31,3.06,3.06,0,0,0,.93-.83l.88.69A3.53,3.53,0,0,1,29,23.93Zm-.18-7.58a1.93,1.93,0,0,0-1.47.64,3.13,3.13,0,0,0-.74,1.79h4.24v-.11a2.7,2.7,0,0,0-.6-1.71A1.81,1.81,0,0,0,28.85,16.35Z"/><path class="cls-2" d="M36.66,21.66l2-6.34h1.54l-3.39,9.76c-.53,1.41-1.37,2.11-2.51,2.11l-.27,0-.54-.11V25.89l.39,0A2,2,0,0,0,35,25.63a2.2,2.2,0,0,0,.68-1.09l.32-.86-3-8.36h1.58Z"/><path class="cls-2" d="M41.62,23a.85.85,0,0,1,.21-.59.83.83,0,0,1,.64-.24.85.85,0,0,1,.64,1.42.85.85,0,0,1-.64.23.86.86,0,0,1-.64-.23A.85.85,0,0,1,41.62,23Zm1.46-2.49h-1.3l-.11-8.15h1.52Z"/></g></g></svg>
