<svg xmlns="http://www.w3.org/2000/svg" width="139" height="58" viewBox="0 0 139 58"><defs><style>.cls-1{fill:#97cbe1;}.cls-2{fill:#eddb67;}.cls-3{fill:#56bdef;}.cls-4{fill:#df8571;}.cls-5{fill:#d962a6;}.cls-6{fill:#fff;}.cls-7{fill:#1f1f1f;}.cls-8{fill:#1f2532;}</style></defs><title>Asset 23</title><g id="Layer_2" data-name="Layer 2"><g id="Taleboble2"><rect class="cls-1" x="1.92" width="137.08" height="58" rx="4.5" ry="4.5" transform="translate(140.92 58) rotate(-180)"/><path class="cls-1" d="M1.92,50.71S1.92,56,.46,57s1,1,1,1H6.26Z"/><g id="Artboard_1" data-name="Artboard 1"><circle class="cls-2" cx="122.66" cy="38.94" r="6.06"/><path id="Shape_1_copy" data-name="Shape 1 copy" class="cls-3" d="M129.71,39.83a1.48,1.48,0,0,1-2.38,1.77h0c-.48-.66-.76-3.53-.76-3.53S129.22,39.17,129.71,39.83Zm-14.42,0a1.49,1.49,0,0,0,.31,2.08,1.47,1.47,0,0,0,2.06-.31h0c.48-.66.76-3.54.76-3.54s-2.65,1.11-3.14,1.77Z"/><path class="cls-4" d="M126.18,40.13a3.52,3.52,0,0,1-7,0Z"/><ellipse class="cls-5" cx="122.72" cy="42.07" rx="2.12" ry="1.52"/><path id="Rounded_Rectangle_1" data-name="Rounded Rectangle 1" class="cls-6" d="M119.75,40.13h5.89v.34a.35.35,0,0,1-.35.34h-5.2a.34.34,0,0,1-.34-.34v-.34Z"/><path id="Rounded_Rectangle_2" data-name="Rounded Rectangle 2" class="cls-7" d="M118.93,36.51h1.67a.56.56,0,0,1,.56.56h0a.57.57,0,0,1-.56.57h-1.67a.58.58,0,0,1-.57-.57h0A.57.57,0,0,1,118.93,36.51Z"/><path id="Rounded_Rectangle_2_copy" data-name="Rounded Rectangle 2 copy" class="cls-7" d="M124.48,36.51h1.67a.57.57,0,0,1,.57.56h0a.58.58,0,0,1-.57.57h-1.67a.57.57,0,0,1-.56-.57h0A.56.56,0,0,1,124.48,36.51Z"/></g><path class="cls-8" d="M16.69,19.71a7.05,7.05,0,0,1-2.81-1.37,2.62,2.62,0,0,1-.88-2,2.76,2.76,0,0,1,1.08-2.23,4.27,4.27,0,0,1,2.79-.88A4.69,4.69,0,0,1,19,13.7,3.4,3.4,0,0,1,20.38,15a3.16,3.16,0,0,1,.51,1.74H19.38a2.09,2.09,0,0,0-.66-1.63,2.69,2.69,0,0,0-1.85-.59,2.7,2.7,0,0,0-1.73.49,1.65,1.65,0,0,0-.62,1.36,1.47,1.47,0,0,0,.59,1.18,5.82,5.82,0,0,0,2,.88,9,9,0,0,1,2.21.88,3.31,3.31,0,0,1,1.19,1.12,2.82,2.82,0,0,1,.39,1.5,2.66,2.66,0,0,1-1.08,2.22,4.63,4.63,0,0,1-2.88.83,5.36,5.36,0,0,1-2.19-.45,3.7,3.7,0,0,1-1.57-1.23,3,3,0,0,1-.55-1.77h1.51a2,2,0,0,0,.76,1.63,3.22,3.22,0,0,0,2,.6,3,3,0,0,0,1.82-.49,1.57,1.57,0,0,0,.63-1.32,1.53,1.53,0,0,0-.58-1.29A6.58,6.58,0,0,0,16.69,19.71Z"/><path class="cls-8" d="M26.11,24.93a3.65,3.65,0,0,1-2.79-1.13,4.18,4.18,0,0,1-1.08-3v-.26a5.09,5.09,0,0,1,.48-2.25,3.83,3.83,0,0,1,1.34-1.55,3.4,3.4,0,0,1,1.87-.55,3.19,3.19,0,0,1,2.57,1.08,4.76,4.76,0,0,1,.91,3.11V21H23.68a3,3,0,0,0,.73,2,2.28,2.28,0,0,0,1.78.77,2.53,2.53,0,0,0,1.3-.31,3.31,3.31,0,0,0,.93-.83l.88.69A3.55,3.55,0,0,1,26.11,24.93Zm-.18-7.58a2,2,0,0,0-1.47.64,3.13,3.13,0,0,0-.73,1.79H28v-.11A2.75,2.75,0,0,0,27.37,18,1.82,1.82,0,0,0,25.93,17.35Z"/><path class="cls-8" d="M36.49,17.35A3.06,3.06,0,0,1,39,16.17c1.78,0,2.68,1,2.7,3v5.59H40.25v-5.6a2,2,0,0,0-.42-1.35,1.7,1.7,0,0,0-1.28-.44,2.06,2.06,0,0,0-1.23.38,2.55,2.55,0,0,0-.83,1v6H35v-12h1.45Z"/><path class="cls-8" d="M46.64,22.81l2.1-6.49h1.47l-3,8.46h-1.1L43,16.32H44.5Z"/><path class="cls-8" d="M56.71,24.78a2.81,2.81,0,0,1-.21-.9,3.21,3.21,0,0,1-2.4,1.05,2.92,2.92,0,0,1-2.05-.71,2.25,2.25,0,0,1-.8-1.79,2.39,2.39,0,0,1,1-2.05,4.71,4.71,0,0,1,2.82-.73h1.41V19A1.63,1.63,0,0,0,56,17.78a1.84,1.84,0,0,0-1.34-.45,2.11,2.11,0,0,0-1.3.39,1.15,1.15,0,0,0-.52,1H51.42a2,2,0,0,1,.45-1.23,3.09,3.09,0,0,1,1.21-.93,4.13,4.13,0,0,1,1.7-.34,3.35,3.35,0,0,1,2.29.73,2.61,2.61,0,0,1,.85,2V22.8a4.7,4.7,0,0,0,.3,1.85v.13Zm-2.4-1.11a2.5,2.5,0,0,0,1.29-.35,2.14,2.14,0,0,0,.88-.91V20.67H55.35c-1.77,0-2.66.52-2.66,1.56a1.31,1.31,0,0,0,.45,1.06A1.73,1.73,0,0,0,54.31,23.67Z"/><path class="cls-8" d="M59.84,20.48a5,5,0,0,1,.92-3.13,2.9,2.9,0,0,1,2.41-1.18,2.94,2.94,0,0,1,2.36,1v-4.4H67v12H65.64l-.07-.91a3.13,3.13,0,0,1-4.81-.14,5,5,0,0,1-.92-3.14Zm1.44.16a3.71,3.71,0,0,0,.6,2.25,1.92,1.92,0,0,0,1.64.82,2.13,2.13,0,0,0,2-1.24V18.59a2.14,2.14,0,0,0-2-1.2,1.94,1.94,0,0,0-1.65.82A4.11,4.11,0,0,0,61.28,20.64Z"/><path class="cls-8" d="M74.91,23.55H80.3v1.23H73.4V13.4h1.51Z"/><path class="cls-8" d="M85.29,24.93A3.65,3.65,0,0,1,82.5,23.8a4.18,4.18,0,0,1-1.08-3v-.26a5.09,5.09,0,0,1,.48-2.25,3.83,3.83,0,0,1,1.34-1.55,3.4,3.4,0,0,1,1.87-.55,3.15,3.15,0,0,1,2.56,1.08,4.71,4.71,0,0,1,.92,3.11V21H82.86a3,3,0,0,0,.73,2,2.28,2.28,0,0,0,1.78.77,2.53,2.53,0,0,0,1.3-.31,3.31,3.31,0,0,0,.93-.83l.88.69A3.55,3.55,0,0,1,85.29,24.93Zm-.18-7.58a2,2,0,0,0-1.47.64,3.13,3.13,0,0,0-.73,1.79h4.23v-.11A2.75,2.75,0,0,0,86.55,18,1.82,1.82,0,0,0,85.11,17.35Z"/><path class="cls-8" d="M95.48,24.78a3.19,3.19,0,0,1-.2-.9,3.24,3.24,0,0,1-2.41,1.05,2.94,2.94,0,0,1-2.05-.71,2.28,2.28,0,0,1-.8-1.79,2.39,2.39,0,0,1,1-2.05,4.72,4.72,0,0,1,2.83-.73h1.4V19a1.63,1.63,0,0,0-.45-1.21,1.82,1.82,0,0,0-1.34-.45,2.1,2.1,0,0,0-1.29.39,1.16,1.16,0,0,0-.53,1H90.19a2,2,0,0,1,.45-1.23,3.13,3.13,0,0,1,1.22-.93,4.08,4.08,0,0,1,1.69-.34,3.33,3.33,0,0,1,2.29.73,2.62,2.62,0,0,1,.86,2V22.8a4.7,4.7,0,0,0,.3,1.85v.13Zm-2.4-1.11a2.5,2.5,0,0,0,1.29-.35,2.08,2.08,0,0,0,.88-.91V20.67H94.12c-1.77,0-2.66.52-2.66,1.56a1.32,1.32,0,0,0,.46,1.06A1.71,1.71,0,0,0,93.08,23.67Z"/><path class="cls-8" d="M18,41.73a1.05,1.05,0,0,0-.44-.91,4.34,4.34,0,0,0-1.54-.56,7,7,0,0,1-1.74-.56,2.45,2.45,0,0,1-1-.78,1.83,1.83,0,0,1-.31-1.08,2.19,2.19,0,0,1,.88-1.76,3.45,3.45,0,0,1,2.24-.71,3.53,3.53,0,0,1,2.34.74A2.37,2.37,0,0,1,19.4,38H18a1.31,1.31,0,0,0-.51-1,1.89,1.89,0,0,0-1.27-.43,2,2,0,0,0-1.23.35,1.07,1.07,0,0,0-.44.9.84.84,0,0,0,.41.78,4.94,4.94,0,0,0,1.5.51,7.94,7.94,0,0,1,1.75.58,2.6,2.6,0,0,1,1,.81,2,2,0,0,1,.32,1.15,2.16,2.16,0,0,1-.91,1.82,3.81,3.81,0,0,1-2.35.68,4.29,4.29,0,0,1-1.8-.36,3,3,0,0,1-1.22-1,2.47,2.47,0,0,1-.44-1.4h1.45a1.5,1.5,0,0,0,.58,1.16,2.27,2.27,0,0,0,1.43.42,2.35,2.35,0,0,0,1.32-.33A1,1,0,0,0,18,41.73Z"/><path class="cls-8" d="M24.87,44.13A3.67,3.67,0,0,1,22.07,43,4.18,4.18,0,0,1,21,40v-.26a5.09,5.09,0,0,1,.48-2.25,3.75,3.75,0,0,1,1.34-1.55,3.38,3.38,0,0,1,1.87-.55,3.17,3.17,0,0,1,2.56,1.08,4.71,4.71,0,0,1,.92,3.11v.6H22.44a3,3,0,0,0,.73,2A2.28,2.28,0,0,0,25,43a2.53,2.53,0,0,0,1.3-.31,3.15,3.15,0,0,0,.92-.83l.89.69A3.55,3.55,0,0,1,24.87,44.13Zm-.18-7.58a2,2,0,0,0-1.47.64A3.13,3.13,0,0,0,22.49,39h4.23v-.11a2.75,2.75,0,0,0-.59-1.71A1.85,1.85,0,0,0,24.69,36.55Z"/><path class="cls-8" d="M31.21,35.52l0,1.06a3.08,3.08,0,0,1,2.53-1.21c1.79,0,2.69,1,2.71,3V44H35v-5.6A1.88,1.88,0,0,0,34.62,37a1.67,1.67,0,0,0-1.27-.44,2.12,2.12,0,0,0-1.24.38,2.64,2.64,0,0,0-.83,1v6H29.84V35.52Z"/><path class="cls-8" d="M38.32,39.68a4.92,4.92,0,0,1,.92-3.13,2.9,2.9,0,0,1,2.41-1.18,3,3,0,0,1,2.35,1V32h1.45V44H44.12l-.07-.91a2.93,2.93,0,0,1-2.41,1.06,2.9,2.9,0,0,1-2.4-1.2,5,5,0,0,1-.92-3.14Zm1.44.16a3.78,3.78,0,0,0,.59,2.25,2,2,0,0,0,1.65.82,2.11,2.11,0,0,0,2-1.24V37.79a2.11,2.11,0,0,0-2-1.2,2,2,0,0,0-1.66.82A4.19,4.19,0,0,0,39.76,39.84Z"/><path class="cls-8" d="M49.65,33.48v2h1.58v1.12H49.65v5.25a1.17,1.17,0,0,0,.21.76.89.89,0,0,0,.72.26,3.78,3.78,0,0,0,.69-.1V44a4.35,4.35,0,0,1-1.11.15,1.79,1.79,0,0,1-1.46-.58,2.52,2.52,0,0,1-.49-1.67V36.64H46.67V35.52h1.54v-2Z"/><path class="cls-8" d="M56.42,44.13A3.66,3.66,0,0,1,53.63,43a4.18,4.18,0,0,1-1.08-3v-.26A5.09,5.09,0,0,1,53,37.47a3.83,3.83,0,0,1,1.34-1.55,3.41,3.41,0,0,1,1.88-.55,3.18,3.18,0,0,1,2.56,1.08,4.71,4.71,0,0,1,.91,3.11v.6H54a3,3,0,0,0,.73,2A2.25,2.25,0,0,0,56.5,43a2.5,2.5,0,0,0,1.3-.31,3.31,3.31,0,0,0,.93-.83l.88.69A3.55,3.55,0,0,1,56.42,44.13Zm-.17-7.58a1.93,1.93,0,0,0-1.47.64A3.13,3.13,0,0,0,54,39h4.24v-.11a2.76,2.76,0,0,0-.6-1.71A1.81,1.81,0,0,0,56.25,36.55Z"/><path class="cls-8" d="M67.32,33.48v2h1.57v1.12H67.32v5.25a1.17,1.17,0,0,0,.21.76.89.89,0,0,0,.72.26,3.81,3.81,0,0,0,.68-.1V44a4.35,4.35,0,0,1-1.11.15,1.81,1.81,0,0,1-1.46-.58,2.52,2.52,0,0,1-.49-1.67V36.64H64.33V35.52h1.54v-2Z"/><path class="cls-8" d="M70.59,33.28a.87.87,0,0,1,.21-.59.83.83,0,0,1,.64-.25.82.82,0,0,1,.64.25.9.9,0,0,1,0,1.18.85.85,0,0,1-.64.23.76.76,0,0,1-.85-.82ZM72.15,44H70.71V35.52h1.44Z"/><path class="cls-8" d="M76,44H74.59V32H76Z"/><path class="cls-8" d="M83.67,35.52l0,.94a3.1,3.1,0,0,1,2.5-1.09,2.42,2.42,0,0,1,2.42,1.36,3.18,3.18,0,0,1,1.1-1,3.22,3.22,0,0,1,1.59-.37c1.86,0,2.8,1,2.83,2.94V44H92.71V38.4A1.93,1.93,0,0,0,92.29,37a1.81,1.81,0,0,0-1.39-.45,1.91,1.91,0,0,0-1.33.48,1.94,1.94,0,0,0-.62,1.3V44H87.5V38.44a1.62,1.62,0,0,0-1.81-1.85,1.93,1.93,0,0,0-1.94,1.21V44H82.3V35.52Z"/><path class="cls-8" d="M96.34,33.28a.87.87,0,0,1,.21-.59.83.83,0,0,1,.64-.25.82.82,0,0,1,.64.25.9.9,0,0,1,0,1.18.85.85,0,0,1-.64.23.76.76,0,0,1-.85-.82ZM97.9,44H96.46V35.52H97.9Z"/><path class="cls-8" d="M99.87,39.68a5,5,0,0,1,.91-3.15,3,3,0,0,1,2.43-1.16,2.9,2.9,0,0,1,2.41,1.09l.07-.94H107v8.25a3.43,3.43,0,0,1-1,2.59,3.6,3.6,0,0,1-2.62.94,4.33,4.33,0,0,1-1.78-.39,3,3,0,0,1-1.34-1.07l.75-.86a2.84,2.84,0,0,0,2.27,1.14,2.21,2.21,0,0,0,1.65-.59,2.28,2.28,0,0,0,.59-1.67v-.73a3,3,0,0,1-2.37,1,2.89,2.89,0,0,1-2.4-1.19A5.26,5.26,0,0,1,99.87,39.68Zm1.45.16a3.81,3.81,0,0,0,.59,2.25,1.92,1.92,0,0,0,1.64.82,2.13,2.13,0,0,0,2-1.25V37.8a2.15,2.15,0,0,0-2-1.21,1.92,1.92,0,0,0-1.65.82A4.11,4.11,0,0,0,101.32,39.84Z"/><path class="cls-8" d="M109.35,43.24a.85.85,0,0,1,.21-.59,1,1,0,0,1,1.28,0,.87.87,0,1,1-1.49.59Zm1.46-2.49H109.5l-.1-8.15h1.52Z"/></g></g></svg>
