<svg xmlns="http://www.w3.org/2000/svg" width="139" height="58" viewBox="0 0 139 58"><defs><style>.cls-1{fill:#97cbe1;}.cls-2{font-size:16px;fill:#1f2532;font-family:Roboto-Regular, Roboto;}.cls-3{fill:#eddb67;}.cls-4{fill:#56bdef;}.cls-5{fill:#df8571;}.cls-6{fill:#d962a6;}.cls-7{fill:#fff;}.cls-8{fill:#1f1f1f;}</style></defs><title>Asset 9</title><g id="Layer_2" data-name="Layer 2"><g id="Taleboble2"><rect class="cls-1" x="1.92" width="137.08" height="58" rx="4.5" ry="4.5" transform="translate(140.92 58) rotate(-180)"/><path class="cls-1" d="M1.92,50.71S1.92,56,.46,57s1,1,1,1H6.26Z"/><text class="cls-2" transform="translate(14.02 25.78)">Tjek lige det her<tspan x="0" y="19.2">billede ud!</tspan></text><g id="Artboard_1" data-name="Artboard 1"><circle class="cls-3" cx="100.72" cy="38.5" r="6.5"/><path id="Shape_1_copy" data-name="Shape 1 copy" class="cls-4" d="M108.28,39.45a1.59,1.59,0,1,1-2.55,1.9h0c-.53-.7-.83-3.79-.83-3.79S107.76,38.74,108.28,39.45Zm-15.46,0a1.59,1.59,0,0,0,2.54,1.91h0c.52-.71.82-3.8.82-3.8s-2.85,1.2-3.37,1.9Z"/><path class="cls-5" d="M104.5,39.77a3.78,3.78,0,0,1-7.55,0Z"/><ellipse class="cls-6" cx="100.78" cy="41.86" rx="2.27" ry="1.63"/><path id="Rounded_Rectangle_1" data-name="Rounded Rectangle 1" class="cls-7" d="M97.6,39.77h6.31v.37a.37.37,0,0,1-.36.37H98a.38.38,0,0,1-.37-.37v-.37Z"/><path id="Rounded_Rectangle_2" data-name="Rounded Rectangle 2" class="cls-8" d="M96.72,35.89h1.79a.6.6,0,0,1,.61.6h0a.61.61,0,0,1-.61.61H96.72a.61.61,0,0,1-.61-.61h0A.61.61,0,0,1,96.72,35.89Z"/><path id="Rounded_Rectangle_2_copy" data-name="Rounded Rectangle 2 copy" class="cls-8" d="M102.68,35.89h1.79a.61.61,0,0,1,.61.6h0a.61.61,0,0,1-.61.61h-1.79a.61.61,0,0,1-.61-.61h0A.6.6,0,0,1,102.68,35.89Z"/></g></g></g></svg>
