<svg xmlns="http://www.w3.org/2000/svg" width="1177" height="506.07" viewBox="0 0 1177 506.07"><defs><style>.cls-1{fill:#4c4c4c;}.cls-2{fill:#9e9e9e;}.cls-3{fill:#c4c4c4;}.cls-4{fill:#727272;}.cls-5{fill:#848484;}.cls-6{fill:#5b5b5b;}.cls-7{fill:#b5b5b5;}.cls-8{fill:#3b5998;}.cls-9{fill:#db5252;stroke:#b23d3d;}.cls-10,.cls-11,.cls-9{stroke-miterlimit:10;stroke-width:0.25px;}.cls-10{fill:#e2b15a;stroke:#c6974a;}.cls-11{fill:#5cb543;stroke:#50a555;}.cls-12{fill:#d3d3d3;}.cls-13{fill:#adadad;}</style></defs><title>Asset 3</title><g id="Layer_2" data-name="Layer 2"><g id="Bord"><polygon class="cls-1" points="1177 506.07 0 506.07 185.84 236.07 991.16 236.07 1177 506.07"/></g><g id="Laptop"><path class="cls-2" d="M645,0H959a5,5,0,0,1,5,5V223a0,0,0,0,1,0,0H640a0,0,0,0,1,0,0V5A5,5,0,0,1,645,0Z"/><rect class="cls-3" x="655" y="15" width="293" height="190"/><path class="cls-4" d="M582,340h440a0,0,0,0,1,0,0v17a5,5,0,0,1-5,5H587a5,5,0,0,1-5-5V340A0,0,0,0,1,582,340Z"/><path class="cls-5" d="M1016.94,345H587.06a5,5,0,0,1-4.48-7.22L640,222H964l57.42,115.78A5,5,0,0,1,1016.94,345Z"/><polygon class="cls-6" points="978 290 626 290 652 233 952 233 978 290"/><rect class="cls-7" x="655" y="15" width="293" height="14"/><rect class="cls-8" x="655" y="29" width="293" height="13"/><circle class="cls-9" cx="662" cy="22" r="2"/><circle class="cls-10" cx="669" cy="22" r="2"/><circle class="cls-11" cx="676" cy="22" r="2"/><rect class="cls-12" x="681" y="52" width="151" height="144" rx="6.29" ry="6.29"/><rect class="cls-12" x="837" y="52" width="46" height="36.47" rx="6.29" ry="6.29"/><rect class="cls-13" x="888" y="42" width="60" height="163"/><rect class="cls-12" x="837" y="93.14" width="46" height="23.38" rx="6.29" ry="6.29"/></g></g></svg>
