<svg id="Layer_1" data-name="Layer 1" xmlns="http://www.w3.org/2000/svg" width="188" height="342" viewBox="0 0 188 342"><defs><style>.cls-1{fill:#0e0e0e;}.cls-2{fill:#c4c4c4;}.cls-3{fill:#383838;stroke:#383838;}.cls-3,.cls-5{stroke-miterlimit:10;}.cls-4{fill:#f7f7f7;}.cls-5{fill:#3b5998;stroke:#3b5998;}.cls-6{fill:#b6babf;}.cls-7{fill:#d4e2d9;}.cls-8{fill:#f8b1ae;}.cls-9{fill:#f2c46a;}.cls-10{fill:#e8b252;}.cls-11{fill:#b2c0b7;}.cls-12{fill:#ed9a94;}.cls-13{fill:#f9c993;}.cls-14{fill:#e49791;}.cls-15{fill:#c6676d;}.cls-16{fill:#c38c8a;}.cls-17{fill:#e38383;}.cls-18{fill:#293941;}.cls-19{fill:#63737b;}.cls-20{fill:#21323a;}.cls-21{fill:#495961;}.cls-22{fill:#b6515a;}</style></defs><title>iphone </title><rect class="cls-1" width="188" height="342" rx="12" ry="12"/><rect class="cls-2" x="11.5" y="25.5" width="166" height="287"/><circle class="cls-3" cx="94.5" cy="328.5" r="11"/><path class="cls-4" d="M23.15,289.5H166.85a4.15,4.15,0,0,1,4.15,4.15V312.5a0,0,0,0,1,0,0H19a0,0,0,0,1,0,0V293.65A4.15,4.15,0,0,1,23.15,289.5Z"/><rect class="cls-5" x="11.5" y="25.5" width="166" height="33"/><rect class="cls-4" x="18" y="69" width="152" height="208" rx="4.15" ry="4.15"/><rect class="cls-6" x="51" y="84" width="104" height="3"/><rect class="cls-6" x="51" y="92" width="104" height="3"/><rect class="cls-6" x="51" y="100" width="104" height="3"/><rect class="cls-6" x="56" y="308" width="104" height="3"/><path class="cls-6" d="M41,308.5a11,11,0,0,0-11,11H52A11,11,0,0,0,41,308.5Z" transform="translate(-6 -7)"/><ellipse class="cls-6" cx="35" cy="92" rx="11.02" ry="10.8"/><g id="Layer_2" data-name="Layer 2"><g id="Taleboble2"><path class="cls-7" d="M108.89,126.45h28.22v4.07c0,.48.15.65.63.64,1.13,0,2.25,0,3.39,0,.57,0,.71.19.69.72,0,1.06,0,2.12,0,3.18,0,.61-.14.86-.8.83-1.1-.05-2.21,0-3.32,0-.45,0-.61.15-.6.6,0,1.17,0,2.35,0,3.52,0,.45-.15.61-.6.6-1.15,0-2.3,0-3.45,0-.53,0-.68.18-.66.68,0,1.11,0,2.21,0,3.32,0,.53.13.74.68.72,1.13,0,2.26,0,3.39,0,.48,0,.64.16.63.64,0,1.15,0,2.3,0,3.45,0,.49.17.64.64.63,1.36,0,2.71,0,4.07,0,0,1.36,0,2.71,0,4.07,0,.48-.15.65-.63.64-1.11,0-2.21,0-3.32,0-.63,0-.77.2-.77.79,0,2.62,0,5.25,0,7.87,0,.63-.2.79-.79.77-1.31,0-2.62,0-3.94,0l-4.69-.05c0-1.33,0-2.66,0-4,0-.49-.12-.68-.65-.68-1.36,0-2.71,0-4.07,0l-4.67-.06c0-1.33,0-2.66,0-4,0-.49-.13-.7-.65-.68-1.36,0-2.71,0-4.07,0l-4.71,0c0-1.36,0-2.71,0-4.07,0-.48-.16-.64-.63-.63-1.36,0-2.71,0-4,0q0-2.35,0-4.7v-9.4c0-1.34,0-2.67,0-4,0-.53.13-.74.68-.72,1.13,0,2.25,0,3.39,0,.48,0,.65-.15.64-.63C108.86,129.18,108.89,127.83,108.89,126.45Z" transform="translate(-6 -7)"/><path class="cls-8" d="M47.74,248.74V192.31h4.71c0,1.36,0,2.71,0,4.07,0,.48.16.64.64.63,1.13,0,2.26,0,3.39,0,.57,0,.71.19.69.72,0,1.34,0,2.67,0,4q0,11.75,0,23.5c-1.31,0-2.62,0-3.93,0-.55,0-.77.12-.77.72,0,2.9,0,5.8,0,8.7v14.1Z" transform="translate(-6 -7)"/><path class="cls-9" d="M47.74,178.2v-9.4h4.72c2.9,0,5.79,0,8.69,0,.55,0,.72.17.71.71,0,1.13,0,2.25,0,3.39,0,.48.16.64.64.63,1.15,0,2.3,0,3.45,0,.49,0,.64.17.63.64,0,1.15,0,2.3,0,3.45,0,.48.16.64.64.63,1.36,0,2.71,0,4.07,0v9.4h-8.7c-.54,0-.73-.15-.71-.7,0-1.1,0-2.21,0-3.32,0-.55-.18-.71-.71-.7-2.9,0-5.8,0-8.7,0h0v-4.07c0-.48-.16-.64-.64-.63Z" transform="translate(-6 -7)"/><path class="cls-10" d="M47.74,154.68v-9.4c1.36,0,2.71,0,4.07,0,.48,0,.64-.15.63-.63,0-1.36,0-2.71,0-4.07,1.36,0,2.71,0,4.07,0,.48,0,.64-.16.63-.64q0-1.72,0-3.44c0-.48-.16-.64-.64-.63-1.36,0-2.71,0-4.07,0h0v-9.41H66.56v9.42c0,1.33,0,2.67,0,4,0,.56-.18.72-.72.7-1.13,0-2.25,0-3.39,0-.49,0-.64.16-.63.64,0,1.36,0,2.71,0,4.07-1.36,0-2.71,0-4.07,0-.48,0-.65.15-.64.63,0,1.36,0,2.71,0,4.07H53.05c-.48,0-.64.15-.64.63,0,1.36,0,2.71,0,4.07Z" transform="translate(-6 -7)"/><path class="cls-9" d="M66.58,135.89q0-4.71,0-9.42H99.5v9.4H94.78c0-1.36,0-2.71,0-4.07,0-.47-.15-.65-.63-.64-1.17,0-2.35,0-3.52,0-.42,0-.57.15-.57.56,0,1.17,0,2.35,0,3.52,0,.49.17.64.64.63,1.36,0,2.71,0,4.07,0v4.72H90.07l-4.7,0c0-1.33,0-2.67,0-4,0-.57-.2-.7-.72-.68-1.33,0-2.66,0-4,0h0v-4.07c0-.47-.15-.64-.63-.64q-4.07,0-8.14,0c-.48,0-.65.15-.64.63,0,1.36,0,2.71,0,4.07Z" transform="translate(-6 -7)"/><path class="cls-11" d="M141.81,150h-4.07c-.47,0-.65-.14-.64-.63,0-1.15,0-2.3,0-3.45,0-.48-.15-.65-.63-.64-1.13,0-2.25,0-3.39,0-.57,0-.71-.19-.68-.72,0-1.11,0-2.21,0-3.32,0-.5.14-.68.66-.68,1.15,0,2.3,0,3.45,0,.45,0,.61-.15.6-.6,0-1.17,0-2.35,0-3.52,0-.45.15-.61.6-.6,1.11,0,2.21,0,3.32,0,.66,0,.82-.21.8-.83,0-1.06,0-2.12,0-3.18,0-.53-.13-.74-.69-.72-1.13,0-2.26,0-3.39,0-.48,0-.64-.16-.63-.64,0-1.36,0-2.71,0-4.07h14.24c0,4.31,0,8.61-.13,12.91,0,1.36.15,1.19-1.24,1.2-.95,0-1.89,0-2.83,0-.47,0-.65.14-.64.63,0,1.36,0,2.71,0,4.07h-4.07c-.48,0-.64.16-.64.64,0,1.36,0,2.71,0,4.07Z" transform="translate(-6 -7)"/><path class="cls-12" d="M47.74,248.74h4.7q0,7.06,0,14.11h-4.7Z" transform="translate(-6 -7)"/><path class="cls-11" d="M99.5,135.87v-9.4h9.4c0,1.36,0,2.71,0,4.07,0,.48-.16.64-.64.63-1.13,0-2.26,0-3.39,0-.57,0-.71.19-.68.72,0,1.34,0,2.67,0,4Z" transform="translate(-6 -7)"/><path class="cls-7" d="M146.51,145.28c0-1.36,0-2.71,0-4.07,0-.49.17-.64.64-.63.94,0,1.89,0,2.83,0,1.38,0,1.19.16,1.24-1.2.16-4.31.09-8.61.13-12.91,0,0,.15-.07.14.07s0,.37,0,.56V264.31c0,.52-.12.64-.64.64l-102.49,0c-.2,0-.47.16-.62-.13h9.43l9.37,0h84.67a6,6,0,0,0,.1-2V211.11c0-4.7,0-9.4,0-14.11q0-9.4,0-18.81v-14a.14.14,0,0,0,0-.13v-4.69q0-6.72,0-13.45c0-.54-.16-.72-.7-.71C149.27,145.3,147.89,145.28,146.51,145.28Z" transform="translate(-6 -7)"/><path class="cls-13" d="M52.47,140.58c0,1.36,0,2.71,0,4.07,0,.48-.15.64-.63.63-1.36,0-2.71,0-4.07,0v-9.41h4.7Q52.46,138.22,52.47,140.58Z" transform="translate(-6 -7)"/><path class="cls-9" d="M52.45,135.86H47.74c0-3,0-6,0-8.95,0-.36,0-.47.44-.47,1.42,0,2.84,0,4.27,0Z" transform="translate(-6 -7)"/><path class="cls-9" d="M47.74,154.68h4.74q0,4.7,0,9.4H47.74Z" transform="translate(-6 -7)"/><path class="cls-9" d="M47.74,187.61V182.9h4.71v4.71Z" transform="translate(-6 -7)"/><path class="cls-13" d="M52.45,182.9H47.74V178.2c1.36,0,2.71,0,4.07,0,.48,0,.65.15.64.63C52.44,180.18,52.45,181.54,52.45,182.9Z" transform="translate(-6 -7)"/><path class="cls-10" d="M47.74,164.08h4.7q0,2.35,0,4.69l-4.73,0Z" transform="translate(-6 -7)"/><path class="cls-12" d="M47.74,187.61h4.7v4.7h-4.7Z" transform="translate(-6 -7)"/><path class="cls-14" d="M52.46,264.77H47.74v-1.94h4.7Z" transform="translate(-6 -7)"/><path class="cls-11" d="M146.51,145.28c1.38,0,2.76,0,4.14,0,.55,0,.71.16.7.71,0,4.48,0,9,0,13.45a.12.12,0,0,0-.11,0c-1.38,0-2.75,0-4.12,0-.44,0-.6.13-.59.58,0,1.38,0,2.75,0,4.12h-4.12c-.45,0-.59.15-.59.59,0,1.37,0,2.75,0,4.12h0c-1.36,0-2.71,0-4.07,0-.47,0-.65.13-.64.62,0,1.36,0,2.71,0,4.07h-4.65l-.05-4.69v-4.7c1.31,0,2.62,0,3.94,0,.59,0,.8-.14.79-.77,0-2.62,0-5.25,0-7.87,0-.59.14-.82.77-.79,1.1,0,2.21,0,3.32,0,.48,0,.64-.16.63-.64,0-1.36,0-2.71,0-4.07h0c1.36,0,2.71,0,4.07,0,.48,0,.64-.16.63-.64,0-1.36,0-2.71,0-4.07Z" transform="translate(-6 -7)"/><path class="cls-15" d="M118.29,159.34l4.71.06v14.1H118.3v-4.07c0-.48-.15-.65-.63-.64-1.36,0-2.71,0-4.07,0v-4.69c1.31,0,2.62,0,3.93,0,.59,0,.82-.13.79-.76,0-1.31,0-2.62,0-3.93Z" transform="translate(-6 -7)"/><path class="cls-13" d="M99.5,135.87h4.67v9.4H99.49l0-9.39Z" transform="translate(-6 -7)"/><path class="cls-9" d="M99.49,145.27h4.68q0,2.35,0,4.7H99.49Q99.49,147.64,99.49,145.27Z" transform="translate(-6 -7)"/><path class="cls-16" d="M132.39,164.11v4.7c-1.36,0-2.71,0-4.07,0-.48,0-.65-.14-.64-.63,0-1.36,0-2.71,0-4.07v-.06Z" transform="translate(-6 -7)"/><path class="cls-8" d="M123,164.08v-4.66c1.36,0,2.71,0,4.07,0,.53,0,.66.18.65.68,0,1.33,0,2.66,0,4v.06Z" transform="translate(-6 -7)"/><path class="cls-11" d="M113.59,154.69c1.36,0,2.71,0,4.07,0,.53,0,.68.19.65.68,0,1.33,0,2.66,0,4v.06l-4.7-.05Z" transform="translate(-6 -7)"/><path class="cls-16" d="M113.59,154.69v4.72l-4.72,0h0v-4.73Z" transform="translate(-6 -7)"/><path class="cls-11" d="M104.21,150h4c.48,0,.64.15.63.63,0,1.36,0,2.71,0,4.07v.06l-4.69,0,0-4.7Z" transform="translate(-6 -7)"/><path class="cls-17" d="M57.14,225.22q0-11.75,0-23.5h4.69c0,1.29,0,2.57,0,3.86,0,.68.23.86.88.85,2.84,0,5.69,0,8.54,0,1.36,0,2.71,0,4.07,0,.49,0,.64.17.63.64,0,1,0,1.94,0,2.9,0,1.31-.14,1.16,1.2,1.16.95,0,1.89,0,2.83,0,.51,0,.7.14.68.68,0,1.13,0,2.26,0,3.39,0,.45.09.68.61.68q6.46,0,12.92,0c.46,0,.6-.18.59-.61,0-1.15,0-2.31,0-3.45,0-.47.14-.68.63-.65,1.11,0,2.21,0,3.32,0,.62,0,.78-.18.78-.79,0-6,0-12,0-18v-4.7c1.34,0,2.67,0,4,0,.55,0,.71.17.71.71,0,2.65,0,5.3,0,7.94,0,.62.18.78.78.77,2.88,0,5.76,0,8.63,0v4.7c-1.36,0-2.71,0-4.07,0-.48,0-.65.15-.64.63,0,1.36,0,2.71,0,4.07-1.31,0-2.62,0-3.94,0-.62,0-.78.18-.77.78,0,2.88,0,5.76,0,8.63v4.7c-4.44,0-8.88,0-13.32,0-.64,0-.83.19-.81.82,0,1.06,0,2.12,0,3.18,0,.59-.2.74-.76.73-1.31,0-2.62,0-3.94,0,0-1.36,0-2.71,0-4.07,0-.52-.18-.68-.68-.68-1.36,0-2.71,0-4.07,0l-4.68,0c0-1.27,0-2.54,0-3.8,0-.68-.15-.91-.87-.9-2.85,0-5.71,0-8.56,0,0-1.36,0-2.71,0-4.07,0-.48-.16-.64-.63-.63-1.15,0-2.3,0-3.44,0-.48,0-.64.16-.63.63,0,1.36,0,2.71,0,4.07v4.73l0,18.74c-1.33,0-2.67,0-4,0-.56,0-.71-.19-.7-.72,0-1.33,0-2.67,0-4Z" transform="translate(-6 -7)"/><path class="cls-12" d="M61.86,201.72H57.17c0-1.34,0-2.67,0-4,0-.53-.13-.74-.69-.72-1.13,0-2.26,0-3.39,0-.48,0-.65-.15-.64-.63,0-1.36,0-2.71,0-4.07H65.78c.59,0,.82.14.79.77-.05,1.1,0,2.21,0,3.31,0,.48.15.65.63.64,1.36,0,2.71,0,4.07,0v4.7H61.86Z" transform="translate(-6 -7)"/><path class="cls-17" d="M52.46,264.77l0-1.92V243.92h4c.22,0,.46-.05.65.14v14.12q0,3.3,0,6.6Z" transform="translate(-6 -7)"/><path class="cls-14" d="M57.16,244c-.19-.19-.43-.14-.65-.14h-4v-9.27h4.69c0,1.33,0,2.67,0,4,0,.53.14.73.7.72,1.33,0,2.67,0,4,0h0l0,4.69Z" transform="translate(-6 -7)"/><path class="cls-12" d="M57.15,234.63H52.47c0-2.9,0-5.8,0-8.7,0-.6.22-.73.77-.72,1.31,0,2.62,0,3.93,0Q57.15,229.93,57.15,234.63Z" transform="translate(-6 -7)"/><path class="cls-12" d="M52.49,168.78q0-2.35,0-4.69h0c2.85,0,5.71,0,8.56,0,.68,0,.86-.22.84-.86,0-1.29,0-2.58,0-3.87h4.68c1.36,0,2.71,0,4.07,0,.51,0,.68-.15.68-.68,0-1.36,0-2.71,0-4.07V150L76,150l4.7,0v4.69c-1.31,0-2.62,0-3.94,0-.62,0-.78.18-.77.78,0,2.88,0,5.76,0,8.63v8.74c0,.5.15.68.68.68,1.36,0,2.71,0,4.07,0h4.63v9.41c-1.33,0-2.67,0-4,0-.57,0-.71-.19-.68-.72,0-1.06,0-2.12,0-3.18,0-.61-.13-.84-.8-.83-2.87,0-5.76,0-8.62,0-1.36,0-2.71,0-4.07,0-.47,0-.65-.15-.64-.63,0-1.15,0-2.3,0-3.45,0-.47-.14-.65-.63-.64-1.15,0-2.3,0-3.45,0-.47,0-.65-.15-.64-.63,0-1.13,0-2.25,0-3.39,0-.54-.16-.72-.71-.71C58.27,168.8,55.37,168.79,52.49,168.78Z" transform="translate(-6 -7)"/><path class="cls-13" d="M71.26,197c-1.36,0-2.71,0-4.07,0-.48,0-.65-.16-.63-.64,0-1.1,0-2.21,0-3.31,0-.63-.2-.77-.79-.77-4.44,0-8.89,0-13.33,0v-9.41c2.9,0,5.8,0,8.7,0,.54,0,.73.15.71.7,0,1.11,0,2.21,0,3.32,0,.56.18.71.71.7,2.9,0,5.8,0,8.7,0h0Z" transform="translate(-6 -7)"/><path class="cls-17" d="M71.26,178.2c2.87,0,5.76,0,8.62,0,.68,0,.82.22.8.83,0,1.06,0,2.12,0,3.18,0,.53.13.74.68.72,1.33,0,2.67,0,4,0q0,2.35,0,4.7H75.93c0-1.36,0-2.71,0-4.07,0-.48-.15-.64-.63-.63-1.36,0-2.71,0-4.07,0Q71.26,180.55,71.26,178.2Z" transform="translate(-6 -7)"/><path class="cls-10" d="M71.27,182.9c1.36,0,2.71,0,4.07,0,.48,0,.64.15.63.63,0,1.36,0,2.71,0,4.07H71.26Z" transform="translate(-6 -7)"/><path class="cls-12" d="M66.58,135.89l4.69,0h9.39q0,2.35,0,4.71l0,4.69H61.87c0-1.36,0-2.71,0-4.07,0-.47.14-.65.63-.64,1.13,0,2.25,0,3.39,0,.54,0,.73-.14.72-.7C66.54,138.56,66.58,137.22,66.58,135.89Z" transform="translate(-6 -7)"/><path class="cls-9" d="M52.47,140.58v-4.71h4.07c.48,0,.65.15.64.63q0,1.73,0,3.44c0,.48-.15.65-.63.64C55.18,140.56,53.82,140.58,52.47,140.58Z" transform="translate(-6 -7)"/><path class="cls-12" d="M52.43,154.68c0-1.36,0-2.71,0-4.07,0-.48.16-.64.64-.63,1.36,0,2.71,0,4.07,0h0q0,2.35,0,4.71H52.43Z" transform="translate(-6 -7)"/><path class="cls-14" d="M57.16,150v-4.07c0-.48.16-.64.64-.63,1.36,0,2.71,0,4.07,0h0q0,2.34,0,4.69H57.16Z" transform="translate(-6 -7)"/><path class="cls-10" d="M99.49,145.27V150l0,9.38H94.79l0-18.8v-4.72h4.68Z" transform="translate(-6 -7)"/><path class="cls-13" d="M94.77,140.59l0,18.8H90.07l0-4.72V140.59Z" transform="translate(-6 -7)"/><path class="cls-13" d="M80.66,135.88H71.27v-4.07c0-.48.16-.64.64-.63q4.07,0,8.14,0c.48,0,.64.16.63.64C80.64,133.16,80.66,134.52,80.66,135.88Z" transform="translate(-6 -7)"/><path class="cls-13" d="M80.67,140.59v-4.71c1.33,0,2.66,0,4,0,.53,0,.74.13.72.68,0,1.33,0,2.67,0,4v0Z" transform="translate(-6 -7)"/><path class="cls-10" d="M94.78,135.87c-1.36,0-2.71,0-4.07,0-.47,0-.65-.14-.64-.63,0-1.17,0-2.35,0-3.52,0-.42.15-.57.57-.56,1.17,0,2.35,0,3.52,0,.49,0,.64.17.63.64,0,1.36,0,2.71,0,4.07Z" transform="translate(-6 -7)"/><path class="cls-14" d="M90.07,140.59v4.69H85.4q0-2.34,0-4.68v0Z" transform="translate(-6 -7)"/><path class="cls-7" d="M146.51,145.28c0,1.36,0,2.71,0,4.07,0,.48-.15.64-.63.64-1.36,0-2.71,0-4.07,0,0-1.36,0-2.71,0-4.07,0-.48.15-.64.64-.64C143.79,145.3,145.15,145.28,146.51,145.28Z" transform="translate(-6 -7)"/><path class="cls-18" d="M151.32,178.2q0,9.4,0,18.81c0,4.7,0,9.4,0,14.11-1.38,0-2.77,0-4.15,0-.52,0-.68.17-.68.68,0,1.08,0,2.17,0,3.25,0,.68-.22.82-.83.8-1,0-2-.05-3.05,0-.68,0-.85-.18-.85-.85,0-4.41,0-8.85,0-13.27h4.07c.47,0,.65-.14.64-.63,0-1.17,0-2.35,0-3.52,0-.42-.15-.57-.56-.57-1.17,0-2.35,0-3.52,0-.49,0-.64.17-.63.64,0,1.36,0,2.71,0,4.07-1.36,0-2.71,0-4.07,0-.48,0-.65.15-.64.63,0,1.15,0,2.3,0,3.45,0,.48-.16.65-.64.64-1.15,0-2.3,0-3.45,0-.48,0-.64.16-.63.64,0,1.36,0,2.71,0,4.07h-4.63l-.05-4.7c0-1.36,0-2.71,0-4.07,0-.55-.21-.65-.7-.64-1.33,0-2.67,0-4,0V197h8.7c.56,0,.72-.18.7-.72,0-1.06,0-2.12,0-3.18,0-.68.22-.86.87-.83,1,0,2.07,0,3.11,0,.56,0,.78-.14.76-.73,0-1.13,0-2.26,0-3.39,0-.45.15-.61.6-.61,1.13,0,2.26,0,3.39,0,.59,0,.74-.19.74-.75,0-2.62,0-5.25,0-7.87,0-.65.21-.81.83-.8C145.52,178.21,148.43,178.2,151.32,178.2Z" transform="translate(-6 -7)"/><path class="cls-19" d="M85.37,264.75H76v-1.38c0-.39-.15-.54-.53-.53H73.16c-1.91,0-1.91,0-1.9,1.9H66.55v-1.92l.05-4.69c1.33,0,2.66,0,4,0,.56,0,.71-.18.69-.72,0-1.33,0-2.66,0-4,1.36,0,2.71,0,4.07,0,.48,0,.64-.16.63-.64,0-1.36,0-2.71,0-4.07,1.36,0,2.71,0,4.07,0,.48,0,.64-.16.63-.64,0-1.36,0-2.71,0-4.07l4.68,0,4.7,0h0c0,1.36,0,2.71,0,4.07,0,.48.16.64.64.63,1.36,0,2.71,0,4.07,0h0l0,4.69v4.68l0,0c-1.31,0-2.62,0-3.94,0-.56,0-.78-.14-.75-.73,0-1.13,0-2.25,0-3.39,0-.44-.13-.61-.59-.61q-4.11,0-8.22,0c-.44,0-.62.13-.61.59,0,1.17,0,2.35,0,3.52,0,.51.21.62.68.61,1.13,0,2.25,0,3.39,0,.52,0,.68.17.68.68C85.37,260.79,85.37,262.77,85.37,264.75Z" transform="translate(-6 -7)"/><path class="cls-20" d="M151.32,178.2c-2.9,0-5.8,0-8.7,0-.62,0-.83.15-.83.8,0,2.62,0,5.25,0,7.87,0,.57-.15.77-.74.75-1.13,0-2.25,0-3.39,0-.45,0-.61.16-.6.61,0,1.13,0,2.25,0,3.39,0,.59-.2.75-.76.73-1,0-2.07,0-3.11,0-.65,0-.91.15-.87.83.06,1.06,0,2.12,0,3.18,0,.54-.15.72-.7.72-2.9,0-5.8,0-8.7,0h0l0-9.41h4.7c1.34,0,2.67,0,4,0,.54,0,.73-.14.72-.7,0-1.33,0-2.67,0-4,1.31,0,2.63,0,3.94,0,.63,0,.79-.2.77-.79,0-1.31,0-2.62,0-3.94V173.5h0c1.38,0,2.75,0,4.13,0,.45,0,.6-.14.59-.59,0-1.36,0-2.75,0-4.13h9.51Z" transform="translate(-6 -7)"/><path class="cls-21" d="M132.4,211.12c0-1.36,0-2.71,0-4.07,0-.47.15-.65.63-.64,1.15,0,2.3,0,3.45,0,.48,0,.65-.15.64-.64,0-1.15,0-2.3,0-3.45,0-.48.16-.64.64-.63,1.36,0,2.71,0,4.07,0h0c0,4.42,0,8.85,0,13.27,0,.68.18.89.85.85,1-.05,2,0,3.05,0,.61,0,.86-.13.83-.8-.05-1.08,0-2.17,0-3.25,0-.51.15-.68.68-.68,1.38,0,2.77,0,4.15,0v9.42h-4.82l-4.72,0-9.38,0v-4.69Z" transform="translate(-6 -7)"/><path class="cls-21" d="M151.32,244.07v9.38c-1.36,0-2.71,0-4.07,0-.63,0-.78.2-.76.79,0,1.31,0,2.62,0,3.93l-4.68,0c0-1.36,0-2.71,0-4.07,0-.43-.12-.62-.59-.61-1.38,0-2.76,0-4.14,0l-4.69-.05v-4.07c0-.48-.17-.63-.64-.63-1.36,0-2.71,0-4.07,0q0-2.34,0-4.67h2.14l12,0Z" transform="translate(-6 -7)"/><path class="cls-12" d="M151.32,234.63v4.73h-9.49v-4.07c0-.49-.17-.64-.64-.63-1.36,0-2.71,0-4.07,0v-9.39h4.7v4c0,.48.1.72.65.7,1.36,0,2.71,0,4.07,0h0c0,1.33,0,2.66,0,4,0,.59.21.74.76.73C148.61,234.6,150,234.63,151.32,234.63Z" transform="translate(-6 -7)"/><path class="cls-21" d="M85.37,264.75c0-2,0-4,0-5.94,0-.51-.15-.68-.68-.68-1.13,0-2.26,0-3.39,0-.45,0-.68-.09-.68-.61,0-1.17,0-2.35,0-3.52,0-.46.17-.59.61-.59q4.11,0,8.22,0c.46,0,.6.17.59.61,0,1.13,0,2.26,0,3.39,0,.59.2.74.75.73,1.31,0,2.62,0,3.94,0v6.58Z" transform="translate(-6 -7)"/><path class="cls-19" d="M94.77,264.75v-6.58l0,0,9.38.05v6.57Z" transform="translate(-6 -7)"/><path class="cls-18" d="M146.5,258.15c0-1.31,0-2.62,0-3.93,0-.59.13-.81.76-.79,1.36,0,2.71,0,4.07,0v9.27l-.12.15-4.68,0h0Q146.5,260.5,146.5,258.15Z" transform="translate(-6 -7)"/><path class="cls-16" d="M141.81,239.35h9.49v4.71l-9.52-.05Z" transform="translate(-6 -7)"/><path class="cls-21" d="M66.54,262.83v1.92l-9.36,0q0-3.31,0-6.6l4.67,0c0,1.34,0,2.67,0,4,0,.52.11.74.68.73C63.87,262.81,65.21,262.84,66.54,262.83Z" transform="translate(-6 -7)"/><path class="cls-19" d="M132.38,264.77h-18.8v-1.94H123l9.4,0Z" transform="translate(-6 -7)"/><path class="cls-19" d="M151.32,225.22v4.7h-4.81l0-4.67,0,0Z" transform="translate(-6 -7)"/><path class="cls-18" d="M151.32,225.22h-4.79q0-2.34,0-4.68h4.82Z" transform="translate(-6 -7)"/><path class="cls-14" d="M146.52,229.92h4.81v4.72c-1.36,0-2.71,0-4.07,0-.55,0-.78-.14-.76-.73C146.54,232.59,146.51,231.25,146.52,229.92Z" transform="translate(-6 -7)"/><path class="cls-18" d="M151.32,168.79H146.5v-4.7h0l4.7,0v0l.11.11Z" transform="translate(-6 -7)"/><path class="cls-21" d="M113.59,262.88v1.87H104.2v-1.91Z" transform="translate(-6 -7)"/><path class="cls-12" d="M141.82,264.77h-4.73c0-.64,0-1.27,0-1.91h4.71C141.82,263.47,141.82,264.11,141.82,264.77Z" transform="translate(-6 -7)"/><path class="cls-16" d="M137.11,262.85c0,.63,0,1.27,0,1.91h-4.71v-1.9l0,0,4.69,0Z" transform="translate(-6 -7)"/><path class="cls-17" d="M141.82,264.77v-1.93h4.69l0,1.92Z" transform="translate(-6 -7)"/><path class="cls-21" d="M146.54,264.77l0-1.92,4.68,0,0,1.89Z" transform="translate(-6 -7)"/><path class="cls-21" d="M71.27,264.75c0-1.9,0-1.9,1.9-1.9h2.27c.38,0,.54.14.53.53s0,.92,0,1.38Z" transform="translate(-6 -7)"/><path class="cls-21" d="M151.22,159.41a.12.12,0,0,1,.11,0v4.69h-.11Z" transform="translate(-6 -7)"/><path class="cls-20" d="M151.22,264.77l0-1.89.12-.15A6.3,6.3,0,0,1,151.22,264.77Z" transform="translate(-6 -7)"/><path class="cls-20" d="M151.22,164.11h.11a.14.14,0,0,1,0,.13Z" transform="translate(-6 -7)"/><path class="cls-8" d="M52.49,154.69h4.66c0,1.34,0,2.67,0,4,0,.49.11.71.65.68,1.36,0,2.71,0,4.07,0h0c0,1.29,0,2.58,0,3.87,0,.65-.15.87-.84.86H52.49Z" transform="translate(-6 -7)"/><path class="cls-22" d="M123,164.08l4.68,0c0,1.36,0,2.71,0,4.07,0,.49.16.63.64.63,1.36,0,2.71,0,4.07,0l.05,4.69H123Z" transform="translate(-6 -7)"/><path class="cls-19" d="M137.1,173.5v4.69h-4.68l0-4.7h4.7Z" transform="translate(-6 -7)"/><path class="cls-19" d="M141.81,168.8v4.13c0,.45-.15.6-.59.59-1.36,0-2.75,0-4.13,0v-4.07c0-.49.16-.63.64-.62C139.09,168.83,140.45,168.8,141.81,168.8Z" transform="translate(-6 -7)"/><path class="cls-19" d="M146.51,164.08v4.7h-4.69v-4.12c0-.45.14-.6.59-.59C143.76,164.1,145.14,164.08,146.51,164.08Z" transform="translate(-6 -7)"/><path class="cls-19" d="M151.22,159.41v4.66l-4.7,0c0-1.36,0-2.75,0-4.12,0-.45.15-.59.59-.58C148.47,159.41,149.85,159.41,151.22,159.41Z" transform="translate(-6 -7)"/><path class="cls-12" d="M99.48,192.31v18c0,.6-.16.81-.78.79-1.1,0-2.21,0-3.32,0-.49,0-.64.18-.63.65,0,1.15,0,2.3,0,3.45,0,.44-.13.62-.59.61H81.26c-.52,0-.62-.22-.61-.68,0-1.13,0-2.26,0-3.39,0-.52-.18-.68-.68-.68-.94,0-1.89,0-2.83,0-1.36,0-1.19.15-1.2-1.16,0-1,0-1.94,0-2.9,0-.47-.14-.65-.63-.64-1.36,0-2.71,0-4.07,0v-4.7h8.63c.61,0,.79-.16.78-.78,0-2.87,0-5.76,0-8.63,2.9,0,5.81,0,8.71,0,.54,0,.73-.16.71-.71,0-1.34,0-2.67,0-4h0c1.26,0,2.53,0,3.79,0,.74,0,.92-.32.92-.93v-3.79c1.34,0,2.67,0,4,0,.55,0,.71-.17.71-.71,0-2.9,0-5.8,0-8.7h4.07c.48,0,.64-.16.63-.64q0-6.74,0-13.47l0,0,4.69,0h0c0,1.36,0,2.71,0,4.07,0,.47.14.65.63.64,1.36,0,2.71,0,4.07,0h0v8.76c0,.48.15.65.63.64,1.36,0,2.71,0,4.07,0h0v4.71c-1.36,0-2.71,0-4.07,0-.49,0-.64.17-.63.64,0,1.36,0,2.71,0,4.07h-4.07c-.48,0-.65.15-.64.63,0,1.15,0,2.3,0,3.45,0,.49.17.64.64.63,1.36,0,2.71,0,4.07,0h4.7V192h-3.73c-.68,0-1,.29-1,1v4H105c-.6,0-.79-.16-.78-.77,0-2.65,0-5.3,0-7.94,0-.54-.16-.73-.71-.71-1.34,0-2.67,0-4,0H95.42c-.48,0-.65.15-.64.63q0,1.73,0,3.45c0,.48.16.65.64.64C96.77,192.29,98.12,192.31,99.48,192.31Zm-4.7,9.41v-4.07c0-.48-.16-.64-.64-.63q-1.72,0-3.45,0c-.48,0-.64.16-.63.64,0,1.13,0,2.25,0,3.39,0,.56-.18.72-.72.7-1.08,0-2.17,0-3.24,0-.55,0-.79.12-.77.72,0,1.1,0,2.21,0,3.31,0,.49.12.68.66.68q4.07,0,8.14,0c.49,0,.63-.18.62-.65C94.77,204.43,94.78,203.07,94.78,201.72Z" transform="translate(-6 -7)"/><path class="cls-17" d="M118.29,178.2v-4.71H123V187.6h-4.71v-4.7Q118.29,180.55,118.29,178.2Z" transform="translate(-6 -7)"/><path class="cls-17" d="M118.3,173.49h-4.07c-.48,0-.64-.16-.63-.64,0-1.36,0-2.71,0-4.07,1.36,0,2.71,0,4.07,0,.48,0,.64.16.63.64C118.28,170.77,118.3,172.13,118.3,173.49Z" transform="translate(-6 -7)"/><path class="cls-22" d="M113.59,159.36l4.7.05c0,1.31,0,2.62,0,3.93,0,.63-.2.78-.79.76-1.31,0-2.62,0-3.93,0h0v-4.68Z" transform="translate(-6 -7)"/><path class="cls-14" d="M99.46,159.38l0-9.38h4.68q0,2.35,0,4.7t0,4.68l0,0H99.49Z" transform="translate(-6 -7)"/><path class="cls-15" d="M113.6,159.41v4.68h-4.07c-.49,0-.64-.16-.63-.64,0-1.36,0-2.71,0-4.07Z" transform="translate(-6 -7)"/><path class="cls-15" d="M104.2,159.37v-4.68l4.69,0v4.67Z" transform="translate(-6 -7)"/><path class="cls-12" d="M85.39,225.23c1.31,0,2.62,0,3.94,0,.56,0,.78-.14.76-.73,0-1.06,0-2.12,0-3.18,0-.63.16-.82.81-.82,4.44,0,8.88,0,13.32,0h9.39v4.7q0,7.06,0,14.11,0,2.35,0,4.7H109.5c-.47,0-.65.14-.64.63,0,1.36,0,2.71,0,4.07l-1.1,0-13,0h0c0-1.38,0-2.75,0-4.13,0-.45-.16-.6-.6-.59-1.36,0-2.75,0-4.13,0h0v-4.71c1.36,0,2.71,0,4.07,0,.48,0,.64-.17.63-.64,0-1.11,0-2.21,0-3.32,0-.63.2-.79.79-.77,1.08,0,2.17,0,3.25,0,.51,0,.7-.14.68-.68,0-1.08,0-2.17,0-3.25,0-.65-.2-.81-.82-.81-4.41,0-8.85,0-13.27,0q0-2.35,0-4.7Z" transform="translate(-6 -7)"/><path class="cls-7" d="M76,220.5l4.68,0,0,4.7h0c-1.36,0-2.71,0-4.07,0-.49,0-.64.16-.63.64,0,1.36,0,2.71,0,4.07h0c-1.31,0-2.62,0-3.93,0-.59,0-.81.14-.79.76,0,1.31,0,2.62,0,3.93-1.36,0-2.71,0-4.07,0-.49,0-.63.17-.63.64v4.07h-4.7l0-18.81,1,0Z" transform="translate(-6 -7)"/><path class="cls-14" d="M113.59,197v-4c0-.68.27-1,1-1h3.73c0,1.38,0,2.76,0,4.14,0,.64.14.89.83.86,1.28-.05,2.58,0,3.86,0h0v4.68h0l-4.67,0h-4.71Q113.59,199.36,113.59,197Z" transform="translate(-6 -7)"/><path class="cls-14" d="M76,220.5H62.9l-1,0V215.8h4.69c2.85,0,5.71,0,8.56,0,.73,0,.9.22.87.9C75.93,218,76,219.24,76,220.5Z" transform="translate(-6 -7)"/><path class="cls-12" d="M113.59,201.72h4.71v4.7h-9.4l0,0c0-1.36,0-2.71,0-4.07,0-.48.16-.64.64-.63C110.87,201.72,112.23,201.72,113.59,201.72Z" transform="translate(-6 -7)"/><path class="cls-12" d="M104.18,215.82v-8.63c0-.6.16-.8.77-.78,1.31,0,2.62,0,3.94,0l0,0v9.38Z" transform="translate(-6 -7)"/><path class="cls-14" d="M71.26,201.72v4.7H62.72c-.65,0-.91-.18-.88-.85,0-1.28,0-2.57,0-3.86Z" transform="translate(-6 -7)"/><path class="cls-16" d="M80.68,225.24l0-4.7c1.36,0,2.71,0,4.07,0,.5,0,.68.14.68.68,0,1.36,0,2.71,0,4.07H80.68Z" transform="translate(-6 -7)"/><path class="cls-15" d="M104.18,215.82l4.7,0v4.72h-4.69Z" transform="translate(-6 -7)"/><path class="cls-15" d="M66.55,215.81H61.86c0-1.36,0-2.71,0-4.07,0-.48.15-.65.63-.63,1.15,0,2.3,0,3.44,0,.47,0,.64.15.63.63C66.54,213.1,66.55,214.45,66.55,215.81Z" transform="translate(-6 -7)"/><path class="cls-14" d="M99.48,192.31c-1.36,0-2.71,0-4.07,0-.48,0-.65-.16-.64-.64q0-1.72,0-3.45c0-.49.17-.64.64-.63,1.36,0,2.71,0,4.07,0Z" transform="translate(-6 -7)"/><path class="cls-9" d="M80.67,192.31c0,2.87,0,5.76,0,8.63,0,.61-.17.78-.78.78-2.87,0-5.76,0-8.63,0V187.61H76c0,1.36,0,2.71,0,4.07,0,.48.15.64.63.63C78,192.29,79.31,192.31,80.67,192.31Z" transform="translate(-6 -7)"/><path class="cls-22" d="M61.83,258.13l-4.67,0v-9.4h4.68v9.36Z" transform="translate(-6 -7)"/><path class="cls-16" d="M61.84,248.76H57.16q0-2.37,0-4.72l4.69,0,0,0v4.7Z" transform="translate(-6 -7)"/><path class="cls-11" d="M61.87,239.33h4.66l0,0v4.69H61.9l0,0Q61.87,241.67,61.87,239.33Z" transform="translate(-6 -7)"/><path class="cls-9" d="M85.37,187.6q0-2.35,0-4.7v-9.41h4.71v14.1H85.37Z" transform="translate(-6 -7)"/><path class="cls-15" d="M61.85,150q0-2.35,0-4.69h4.7v9.39l0,4.68H61.87Q61.86,154.68,61.85,150Z" transform="translate(-6 -7)"/><path class="cls-15" d="M85.37,173.48H80.68V164.1h4.69Z" transform="translate(-6 -7)"/><path class="cls-17" d="M80.67,164.08v9.38c-1.36,0-2.71,0-4.07,0-.52,0-.68-.17-.68-.68,0-2.92,0-5.83,0-8.74Z" transform="translate(-6 -7)"/><path class="cls-8" d="M80.67,164.08H76v-8.63c0-.6.16-.81.77-.78,1.31,0,2.62,0,3.94,0h0v9.41Z" transform="translate(-6 -7)"/><path class="cls-16" d="M66.57,154.69V150l4.7,0v4.72Z" transform="translate(-6 -7)"/><path class="cls-17" d="M80.67,154.69V150l0,0h4.69l0,0v4.68H80.67Z" transform="translate(-6 -7)"/><path class="cls-17" d="M66.57,154.69h4.69c0,1.36,0,2.71,0,4.07,0,.52-.17.68-.68.68-1.36,0-2.71,0-4.07,0Z" transform="translate(-6 -7)"/><path class="cls-15" d="M71.25,145.31H76V150l-4.69,0v0Q71.26,147.63,71.25,145.31Z" transform="translate(-6 -7)"/><path class="cls-17" d="M76,150v-4.68h4.73V150l0,0Z" transform="translate(-6 -7)"/><path class="cls-8" d="M85.37,187.6h4.69c0,1.34,0,2.67,0,4,0,.55-.17.71-.71.71-2.9,0-5.81,0-8.71,0-1.36,0-2.71,0-4.07,0-.48,0-.64-.15-.63-.63,0-1.36,0-2.71,0-4.07Z" transform="translate(-6 -7)"/><path class="cls-15" d="M85.37,140.59q0,2.34,0,4.68H80.64q0-2.35,0-4.69Z" transform="translate(-6 -7)"/><path class="cls-22" d="M71.25,145.31V150l-4.7,0v-4.67Z" transform="translate(-6 -7)"/><path class="cls-17" d="M61.85,150q0,4.69,0,9.39c-1.36,0-2.71,0-4.07,0-.54,0-.66-.2-.65-.68,0-1.33,0-2.67,0-4q0-2.35,0-4.71Z" transform="translate(-6 -7)"/><path class="cls-9" d="M90.07,159.4h9.42q0,2.35,0,4.71c-1.33,0-2.66,0-4,0-.56,0-.71.19-.68.72,0,1.33,0,2.66,0,4H90.08V159.4Z" transform="translate(-6 -7)"/><path class="cls-12" d="M90.07,159.4v4.69h-9.4v-9.4h9.39Z" transform="translate(-6 -7)"/><path class="cls-14" d="M90.05,154.68H85.37V150L90,150Q90.06,152.33,90.05,154.68Z" transform="translate(-6 -7)"/><path class="cls-16" d="M90.06,150l-4.69,0v-4.72h4.71Z" transform="translate(-6 -7)"/><path class="cls-22" d="M132.39,215.82v9.41h0c-1.33,0-2.66,0-4,0-.56,0-.71.19-.7.72,0,1.33,0,2.66,0,4v4.71h-4.07c-.48,0-.64.16-.63.64,0,1.36,0,2.71,0,4.07h-4.72l0-9.39c1.33,0,2.67,0,4,0,.48,0,.71-.09.7-.64q0-4.07,0-8.14c0-.47-.14-.65-.63-.64-1.36,0-2.71,0-4.07,0h0c0-1.34,0-2.67,0-4,0-.53-.13-.74-.68-.72-1.15,0-2.31,0-3.45,0-.41,0-.58-.13-.57-.55,0-1.38,0-2.77,0-4.15,1.26,0,2.53,0,3.79,0,.68,0,.94-.14.9-.87-.06-1.28,0-2.57,0-3.85H123l4.68,0,.05,4.7c0,1.36,0,2.71,0,4.07,0,.47.14.65.62.64C129.68,215.8,131,215.82,132.39,215.82Z" transform="translate(-6 -7)"/><path class="cls-19" d="M132.39,215.82c-1.36,0-2.71,0-4.07,0-.49,0-.63-.16-.62-.64,0-1.36,0-2.71,0-4.07h4.67Q132.4,213.47,132.39,215.82Z" transform="translate(-6 -7)"/><path class="cls-21" d="M127.67,206.42l-4.67,0q0-2.35,0-4.71h0c1.33,0,2.67,0,4,0,.48,0,.71.09.7.64C127.66,203.71,127.68,205.07,127.67,206.42Z" transform="translate(-6 -7)"/><path class="cls-21" d="M141.81,201.72v-4.07c0-.47.14-.65.63-.64,1.17,0,2.35,0,3.52,0,.42,0,.57.15.56.57,0,1.17,0,2.35,0,3.52,0,.49-.17.64-.64.63-1.36,0-2.71,0-4.07,0Z" transform="translate(-6 -7)"/><path class="cls-21" d="M80.68,225.24h4.68l0,4.7q0,4.7,0,9.4l0,4.7-4.68,0,0,0c0-2.93,0-5.85,0-8.77,0-.49-.18-.63-.64-.63-1.36,0-2.71,0-4.07,0v-4.7h0c1.38,0,2.75,0,4.12,0,.44,0,.6-.12.59-.58,0-1.36,0-2.75,0-4.12Z" transform="translate(-6 -7)"/><path class="cls-16" d="M94.76,248.76l13,0c.37,0,.73,0,1.1,0v4.71l-14.11,0Z" transform="translate(-6 -7)"/><path class="cls-11" d="M94.81,253.45l14.11,0h0l0,4.7-4.73,0-9.38-.05Z" transform="translate(-6 -7)"/><path class="cls-21" d="M76,248.76c0,1.36,0,2.71,0,4.07,0,.48-.15.64-.63.64-1.36,0-2.71,0-4.07,0l0,0c0-1.36,0-2.71,0-4.07,0-.48.14-.64.63-.64,1.36,0,2.71,0,4.07,0Z" transform="translate(-6 -7)"/><path class="cls-21" d="M71.28,253.46c0,1.33,0,2.66,0,4,0,.53-.14.73-.69.72-1.33,0-2.66,0-4,0h-.06c0-1.36,0-2.71,0-4.07,0-.47.14-.64.63-.64,1.36,0,2.71,0,4.07,0Z" transform="translate(-6 -7)"/><path class="cls-16" d="M90.05,244.06c1.38,0,2.75,0,4.13,0,.44,0,.61.14.6.59,0,1.38,0,2.75,0,4.13H90.69c-.48,0-.65-.15-.64-.63C90.07,246.78,90.05,245.42,90.05,244.06Z" transform="translate(-6 -7)"/><path class="cls-21" d="M80.68,244.05c0,1.36,0,2.71,0,4.07,0,.48-.15.64-.63.64-1.36,0-2.71,0-4.07,0l0,0c0-1.36,0-2.71,0-4.07,0-.48.14-.64.63-.64,1.36,0,2.71,0,4.07,0Z" transform="translate(-6 -7)"/><path class="cls-14" d="M85.37,244q0-2.35,0-4.7h4.68V244Z" transform="translate(-6 -7)"/><path class="cls-18" d="M66.54,262.83c-1.34,0-2.67,0-4,0-.58,0-.7-.21-.68-.73,0-1.33,0-2.67,0-4h4.77Z" transform="translate(-6 -7)"/><path class="cls-15" d="M123,197c-1.28,0-2.58,0-3.86,0-.68,0-.85-.22-.83-.86,0-1.38,0-2.76,0-4.14v-4.41H123Z" transform="translate(-6 -7)"/><path class="cls-18" d="M132.42,178.19h4.68c0,1.31,0,2.62,0,3.94,0,.59-.14.82-.77.79-1.31,0-2.63,0-3.94,0l0,0V178.2Z" transform="translate(-6 -7)"/><path class="cls-18" d="M132.41,182.91c0,1.34,0,2.67,0,4,0,.56-.18.71-.72.7-1.33,0-2.67,0-4,0v-4.7l4.68,0Z" transform="translate(-6 -7)"/><path class="cls-19" d="M127.7,182.94v4.66H123v-4.67Z" transform="translate(-6 -7)"/><path class="cls-16" d="M132.4,225.23v-4.72l9.38,0q0,2.34,0,4.68h-9.4Z" transform="translate(-6 -7)"/><path class="cls-19" d="M141.81,225.23q0-2.34,0-4.68l4.72,0q0,2.34,0,4.68l0,0h-4.69Z" transform="translate(-6 -7)"/><path class="cls-14" d="M141.81,239.35V244l-12,0H127.7l0-.05q0-2.34,0-4.67h14.11Z" transform="translate(-6 -7)"/><path class="cls-19" d="M146.5,262.84h-4.67l0-4.68,0,0,4.68,0Z" transform="translate(-6 -7)"/><path class="cls-19" d="M127.72,248.72c1.36,0,2.71,0,4.07,0,.47,0,.65.14.64.63,0,1.36,0,2.71,0,4.07a.51.51,0,0,0,0,.07l-4.7,0h0l0-4.69Z" transform="translate(-6 -7)"/><path class="cls-19" d="M127.69,244.05q0,2.34,0,4.67l0,0-4.68,0,0-4.71h4.75Z" transform="translate(-6 -7)"/><path class="cls-16" d="M132.4,253.41l4.69.05q0,2.35,0,4.69v0l-4.7,0h0v-4.66A.51.51,0,0,1,132.4,253.41Z" transform="translate(-6 -7)"/><path class="cls-19" d="M137.11,258.15q0-2.34,0-4.69c1.38,0,2.76,0,4.14,0,.46,0,.59.18.59.61v4.07l0,0Z" transform="translate(-6 -7)"/><path class="cls-8" d="M141.8,239.35H127.71l0-4.69h9.39c1.36,0,2.71,0,4.07,0,.47,0,.65.14.64.63C141.79,236.61,141.8,238,141.8,239.35Z" transform="translate(-6 -7)"/><path class="cls-14" d="M137.1,234.63h-4.7q0-2.37,0-4.72v-4.69h4.7Q137.11,229.94,137.1,234.63Z" transform="translate(-6 -7)"/><path class="cls-16" d="M141.81,225.23h4.69l0,4.67c-1.36,0-2.71,0-4.07,0-.55,0-.65-.21-.65-.7C141.82,227.9,141.81,226.57,141.81,225.23Z" transform="translate(-6 -7)"/><path class="cls-16" d="M104.18,258.18l4.73,0,4.68,0v4.72l-9.39,0Z" transform="translate(-6 -7)"/><path class="cls-16" d="M132.39,262.86l-9.39,0v-4.67l4.69,0h4.71q0,2.35,0,4.68Z" transform="translate(-6 -7)"/><path class="cls-14" d="M123,258.16v4.67h-9.4v-4.65Z" transform="translate(-6 -7)"/><path class="cls-14" d="M137.11,258.15h4.69l0,4.68h-4.71v-4.67Z" transform="translate(-6 -7)"/><path class="cls-17" d="M137.1,258.18v4.67l-4.69,0q0-2.34,0-4.68Z" transform="translate(-6 -7)"/><path class="cls-15" d="M127.7,182.94H123V173.5h9.4l0,4.7h0c-1.31,0-2.62,0-3.93,0-.63,0-.78.2-.76.79,0,1.31,0,2.62,0,3.93Z" transform="translate(-6 -7)"/><path class="cls-8" d="M90.08,182.9v-4.7h4.07c.48,0,.65-.15.64-.63,0-1.36,0-2.71,0-4.07h4.7v8.7c0,.54-.15.73-.71.71-1.33,0-2.67,0-4,0Z" transform="translate(-6 -7)"/><path class="cls-17" d="M94.78,201.72v4.07c0,.47-.13.65-.62.65q-4.07,0-8.14,0c-.54,0-.68-.2-.66-.68,0-1.1,0-2.21,0-3.31,0-.6.22-.74.77-.72,1.08,0,2.16,0,3.24,0,.53,0,.74-.14.72-.7,0-1.13,0-2.25,0-3.39,0-.48.15-.65.63-.64q1.73,0,3.45,0c.48,0,.65.15.64.63C94.77,199,94.78,200.36,94.78,201.72Z" transform="translate(-6 -7)"/><path class="cls-8" d="M99.47,164.08q0-2.35,0-4.71h4.69v13.47c0,.48-.15.65-.63.64-1.36,0-2.71,0-4.07,0h0Q99.48,168.8,99.47,164.08Z" transform="translate(-6 -7)"/><path class="cls-14" d="M118.29,178.2v4.71h-4.69v-4.07c0-.47.15-.65.63-.64C115.57,178.21,116.93,178.2,118.29,178.2Z" transform="translate(-6 -7)"/><path class="cls-15" d="M113.59,182.91h4.7v4.71h-4.7v-4.7Z" transform="translate(-6 -7)"/><path class="cls-14" d="M113.59,182.9v4.7h-4.07c-.47,0-.66-.14-.64-.63,0-1.15,0-2.3,0-3.45,0-.48.16-.64.64-.63C110.88,182.92,112.23,182.9,113.59,182.9Z" transform="translate(-6 -7)"/><path class="cls-14" d="M90.08,182.9h4.7v3.79c0,.62-.18,1-.92.93-1.26-.06-2.53,0-3.79,0Z" transform="translate(-6 -7)"/><path class="cls-8" d="M90.08,239.35H85.4v-9.4H98.67c.62,0,.85.16.82.81-.05,1.08,0,2.16,0,3.25,0,.52-.18.68-.68.68-1.08,0-2.17,0-3.25,0-.59,0-.82.14-.79.77,0,1.11,0,2.21,0,3.32,0,.48-.15.65-.63.64C92.8,239.32,91.44,239.35,90.08,239.35Z" transform="translate(-6 -7)"/><path class="cls-17" d="M118.3,229.94l0,9.41h-4.68V225.23h4.69Z" transform="translate(-6 -7)"/><path class="cls-17" d="M113.62,211.12c0,1.38,0,2.76,0,4.15,0,.43.16.56.57.55,1.15,0,2.3,0,3.45,0,.56,0,.71.18.68.72,0,1.34,0,2.67,0,4h-9.38V211.1h4.66Z" transform="translate(-6 -7)"/><path class="cls-15" d="M113.59,239.35H123V244h-9.38Z" transform="translate(-6 -7)"/><path class="cls-14" d="M108.89,248.72v-4.07c0-.48.17-.64.64-.63,1.36,0,2.71,0,4.07,0h0v4.75h-4.68Z" transform="translate(-6 -7)"/><path class="cls-14" d="M113.59,220.53h4.72c0,1.57,0,3.14,0,4.7h-4.69Q113.58,222.88,113.59,220.53Z" transform="translate(-6 -7)"/><path class="cls-11" d="M66.54,239.32c0-1.36,0-2.71,0-4.07,0-.47.14-.64.63-.64,1.36,0,2.71,0,4.07,0l0,0,0,4.71h0l-4.68,0Z" transform="translate(-6 -7)"/><path class="cls-11" d="M76,229.93v4.7h0l-4.68,0,0,0c0-1.31.05-2.62,0-3.93,0-.63.2-.78.79-.76C73.35,230,74.66,229.93,76,229.93Z" transform="translate(-6 -7)"/><path class="cls-11" d="M80.66,225.23v4.12c0,.46-.15.59-.59.58-1.36,0-2.75,0-4.12,0v-4.07c0-.48.14-.65.63-.64C77.94,225.24,79.3,225.23,80.66,225.23Z" transform="translate(-6 -7)"/><path class="cls-15" d="M123,201.7q0,2.35,0,4.71h-4.7q0-2.35,0-4.7Z" transform="translate(-6 -7)"/><path class="cls-15" d="M118.29,206.41c0,1.28,0,2.57,0,3.85,0,.73-.23.9-.9.87-1.26-.05-2.53,0-3.79,0l-.07,0q0-2.34,0-4.69Z" transform="translate(-6 -7)"/><path class="cls-8" d="M113.6,206.42q0,2.34,0,4.69h-4.66v-4.67Z" transform="translate(-6 -7)"/><path class="cls-20" d="M66.54,258.15H61.85v-9.38h0c1.36,0,2.71,0,4.07,0,.49,0,.63-.17.62-.64,0-1.36,0-2.71,0-4.07h0c1.36,0,2.71,0,4.07,0,.49,0,.64-.16.63-.64,0-1.36,0-2.71,0-4.07h4.12c.45,0,.6-.15.59-.6,0-1.37,0-2.75,0-4.12h0c1.36,0,2.71,0,4.07,0,.47,0,.65.13.64.63,0,2.92,0,5.85,0,8.77-1.36,0-2.71,0-4.07,0-.48,0-.63.16-.63.64,0,1.36,0,2.71,0,4.07-1.36,0-2.71,0-4.07,0-.49,0-.64.16-.63.64,0,1.36,0,2.71,0,4.07-1.36,0-2.71,0-4.07,0-.49,0-.63.16-.63.64C66.58,255.44,66.55,256.79,66.54,258.15Z" transform="translate(-6 -7)"/><path class="cls-19" d="M66.56,244v4.07c0,.47-.13.65-.62.64-1.36,0-2.71,0-4.07,0V244Z" transform="translate(-6 -7)"/><path class="cls-21" d="M71.26,239.35c0,1.36,0,2.71,0,4.07,0,.48-.14.65-.63.64-1.36,0-2.71,0-4.07,0q0-2.34,0-4.69Z" transform="translate(-6 -7)"/><path class="cls-13" d="M85.37,164.08h4.71v9.41H85.37Z" transform="translate(-6 -7)"/><path class="cls-13" d="M94.79,173.51c0,1.36,0,2.71,0,4.07,0,.48-.16.64-.64.63-1.36,0-2.71,0-4.07,0V173.5h4.71Z" transform="translate(-6 -7)"/><path class="cls-22" d="M85.37,145.28V150H80.68v-4.69Z" transform="translate(-6 -7)"/><path class="cls-12" d="M99.47,164.08v9.4h-4.7l0,0v-4.69c0-1.33,0-2.66,0-4,0-.53.13-.73.68-.72C96.8,164.12,98.13,164.08,99.47,164.08Z" transform="translate(-6 -7)"/><path class="cls-10" d="M94.77,168.8v4.69H90.08v-4.7Z" transform="translate(-6 -7)"/><path class="cls-15" d="M118.28,225.22c0-1.57,0-3.13,0-4.7,1.36,0,2.71,0,4.07,0,.49,0,.63.17.63.64q0,4.07,0,8.14c0,.55-.22.65-.7.64-1.33,0-2.67,0-4,0Z" transform="translate(-6 -7)"/><path class="cls-16" d="M132.4,229.91v4.72H127.7v-4.7Z" transform="translate(-6 -7)"/><path class="cls-15" d="M132.4,229.91l-4.69,0c0-1.34,0-2.67,0-4,0-.53.14-.73.7-.72,1.33,0,2.66,0,4,0Z" transform="translate(-6 -7)"/><path class="cls-15" d="M127.69,234.64l0,4.69h0l-4.69,0h0c0-1.36,0-2.71,0-4.07,0-.48.15-.65.63-.64C125,234.65,126.33,234.64,127.69,234.64Z" transform="translate(-6 -7)"/><path class="cls-19" d="M108.9,248.78h4.68q0,2.31,0,4.63l-4.67,0h0Z" transform="translate(-6 -7)"/><path class="cls-8" d="M108.89,253.44l4.68,0h4.72l9.42,0h0v4.7l-4.7,0h-9.41l-4.68,0Q108.9,255.79,108.89,253.44Z" transform="translate(-6 -7)"/><path class="cls-22" d="M127.7,182.9c0-1.31,0-2.62,0-3.93,0-.59.14-.81.76-.79,1.31,0,2.62,0,3.93,0v4.69Z" transform="translate(-6 -7)"/><path class="cls-16" d="M123,239.35h4.69q0,2.34,0,4.67H123Q123,241.69,123,239.35Z" transform="translate(-6 -7)"/><path class="cls-14" d="M127.7,253.44l-9.42,0c0-1.29,0-2.58,0-3.86,0-.68.22-.85.87-.83,1.28,0,2.58,0,3.86,0l4.68,0Z" transform="translate(-6 -7)"/><path class="cls-14" d="M127.69,258.14v-4.7l4.7,0v4.66Z" transform="translate(-6 -7)"/><path class="cls-16" d="M123,248.73c-1.29,0-2.58,0-3.86,0-.65,0-.9.15-.87.83.05,1.29,0,2.58,0,3.86h-4.72l0-4.63v-4.75H123Z" transform="translate(-6 -7)"/><path class="cls-21" d="M76,234.63v4.12c0,.44-.14.61-.59.6-1.37,0-2.75,0-4.12,0l0-4.68Z" transform="translate(-6 -7)"/></g></g></svg>