<svg xmlns="http://www.w3.org/2000/svg" xmlns:xlink="http://www.w3.org/1999/xlink" width="1600" height="600" viewBox="0 0 1600 600"><defs><style>.cls-1{fill:#e5d8b3;}.cls-2,.cls-5{fill:#f7c1b7;}.cls-3{fill:#0b0c0b;}.cls-10,.cls-13,.cls-14,.cls-15,.cls-3{stroke:#040505;}.cls-10,.cls-13,.cls-14,.cls-15,.cls-3,.cls-5,.cls-6,.cls-7{stroke-miterlimit:10;}.cls-4{fill:#eaceb7;}.cls-5,.cls-6{stroke:#e5d8b3;stroke-width:2px;}.cls-10,.cls-17,.cls-6{fill:none;}.cls-7{fill:#c71e32;stroke:#a32136;}.cls-8{fill:#dba7a1;}.cls-9{fill:#44bcb9;}.cls-10{stroke-width:5px;}.cls-11{fill:#2d2513;}.cls-12{fill:#fff;}.cls-13{fill:#060707;}.cls-14{fill:#010202;}.cls-15,.cls-16{fill:#050707;}</style><symbol id="m1" data-name="m1" viewBox="0 0 400 600"><g id="m1-3" data-name="m1"><path class="cls-1" d="M305.5,161.5s3-39,0-44-2-9-19-13h-43s-2-6-2-10c0,0-7.75,4.85-8.95,13.58q0,.21-.05.42c-1,9-1-10-1-10s-13,2-11,26c0,0,3,4,12,8,0,0-5.5,3.5-3.5,29.5-.29.78,9-23.89,8.5-28.5-.2-2,53.5-.5,53.5-.5s-.37,16.9,3,26C296.16,164.84,300.42,166.58,305.5,161.5Z"/><circle class="cls-2" cx="299" cy="170" r="8.5"/><circle class="cls-2" cx="227.5" cy="165.5" r="6.5"/><path class="cls-2" d="M254.5,212.5s12.64,3,23-3c6.92-4,15.2-10.39,20-28,0,0,2-12-4-27.5l-2-21.5h-54l-9,29S225.5,207.5,254.5,212.5Z"/><circle class="cls-3" cx="279.5" cy="157.5" r="6"/><circle class="cls-3" cx="244.5" cy="156.5" r="6"/><path class="cls-4" d="M229.37,178.5s1.26,11.8,7.63,21.5c2.54,3.87,5.32,7.44,10,10s10.63,3.57,18.09,3.19C298.7,211.5,299,174.82,299,174.82L286.49,189.5s-24.42-21-50.88-6Z"/><path class="cls-5" d="M287.5,146.5s-7-7-14,0"/><path class="cls-6" d="M251.5,145.5s-7-7-14,0"/><path class="cls-7" d="M270,187H247s-3,13,11,13S270,187,270,187Z"/><path class="cls-8" d="M258,154s2,10-3,18c0,0,1,3,5,0S258,154,258,154Z"/><circle class="cls-2" cx="326" cy="342" r="10.5"/><path class="cls-9" d="M316.5,334.5l-10-45-9-30-12-21,1.79-19.67s11.31,6.8,19.21,21.67c9.56,18,16.69,47.75,26,91Z"/><path class="cls-9" d="M288.15,219.39s-3.92-3.42-14-4.41L288,224Z"/><path class="cls-9" d="M234,217s-23,17.56-36.36,32.54l-46.09-11-2,17,50.19,17L230,246Z"/><line class="cls-10" x1="66.5" y1="151.5" x2="152.5" y2="271.5"/><path class="cls-2" d="M153.5,238.5s-15-8-23-4-12,13-2,20,23,1,23,1Z"/><polygon class="cls-11" points="228 313.94 289 313.94 287.5 479.5 264.5 479.5 260.5 348.5 254.5 348.5 252.5 479.5 231.5 479.5 228 313.94"/><path class="cls-9" d="M287,219s-8.13-4-12.2-4-23.38-2-35.58,0l-5.08,2L229,247l-1,68,61,1-2-97"/><path class="cls-2" d="M274.32,211.43,274,217s-22,3-27-1v-6S261.65,215.85,274.32,211.43Z"/><path class="cls-12" d="M263.12,228.74"/><path class="cls-12" d="M249.59,227,232,218.08s6.47-4.86,14.55-4c0,0,8.32,7.86,27.41.88,0,0,11,0,14,4l-26.28,10-6.45-7.09L249.59,227"/><path class="cls-13" d="M211.5,496.5s-8-7,14-12h3l3-5h21v5s-16,8-12,12h-6S217.5,505.5,211.5,496.5Z"/><path class="cls-14" d="M286.5,498.5h-11v-3h-4s-9,4-13,4-11,2-17-2,7-13,15-12c0,0,5,0,8-6h22Z"/><polygon class="cls-15" points="258.5 276.5 253.5 283.5 247.5 279.5 253 229.42 256.5 233.5 259.5 231.5 258.5 276.5"/><polygon class="cls-16" points="263.5 228.5 257.5 220.5 249.5 226.5 255.5 233.5 258.19 231.82 263.5 228.5"/><rect class="cls-17" width="400" height="600"/></g></symbol><symbol id="m2" data-name="m2" viewBox="0 0 400 600"><g id="m1_copy" data-name="m1 copy"><path class="cls-1" d="M305.5,161.5s3-39,0-44-2-9-19-13h-43s-2-6-2-10c0,0-7.75,4.85-8.95,13.58q0,.21-.05.42c-1,9-1-10-1-10s-13,2-11,26c0,0,3,4,12,8,0,0-5.5,3.5-3.5,29.5-.29.78,9-23.89,8.5-28.5-.2-2,53.5-.5,53.5-.5s-.37,16.9,3,26C296.16,164.84,300.42,166.58,305.5,161.5Z"/><circle class="cls-2" cx="299" cy="170" r="8.5"/><circle class="cls-2" cx="227.5" cy="165.5" r="6.5"/><path class="cls-2" d="M254.5,212.5s12.64,3,23-3c6.92-4,15.2-10.39,20-28,0,0,2-12-4-27.5l-2-21.5h-54l-9,29S225.5,207.5,254.5,212.5Z"/><circle class="cls-3" cx="279.5" cy="157.5" r="6"/><circle class="cls-3" cx="244.5" cy="156.5" r="6"/><path class="cls-4" d="M229.37,178.5s1.26,11.8,7.63,21.5c2.54,3.87,5.32,7.44,10,10s10.63,3.57,18.09,3.19C298.7,211.5,299,174.82,299,174.82L286.49,189.5s-24.42-21-50.88-6Z"/><path class="cls-5" d="M287.5,146.5s-7-7-14,0"/><path class="cls-6" d="M251.5,145.5s-7-7-14,0"/><path class="cls-7" d="M267.92,188.28H249S246.48,199,258,199,267.92,188.28,267.92,188.28Z"/><path class="cls-8" d="M258,154s2,10-3,18c0,0,1,3,5,0S258,154,258,154Z"/><circle class="cls-2" cx="326" cy="342" r="10.5"/><path class="cls-9" d="M316.5,334.5l-10-45-9-30-12-21,1.79-19.67s11.31,6.8,19.21,21.67c9.56,18,16.69,47.75,26,91Z"/><path class="cls-9" d="M288.15,219.39s-3.92-3.42-14-4.41L288,224Z"/><polygon class="cls-9" points="232 218 240 222.64 234 251 219 240.69 232 218"/><path class="cls-9" d="M234,216.75s-25.63,13.52-41.23,26.09l-43.65-18.44-4.82,16.4,46.7,25,34.27-21.14Z"/><line class="cls-10" x1="79.63" y1="124.51" x2="144.65" y2="257.06"/><path class="cls-2" d="M151.08,224.67s-13.47-10.37-22-7.74-14,10.84-5.27,19.4,22.52,4.78,22.52,4.78Z"/><polygon class="cls-11" points="228 313.94 289 313.94 287.5 479.5 264.5 479.5 260.5 348.5 254.5 348.5 252.5 479.5 231.5 479.5 228 313.94"/><path class="cls-9" d="M287,219s-8.13-4-12.2-4-23.38-2-35.58,0l-5.08,2L229,247l-1,68,61,1-2-97"/><path class="cls-2" d="M274.32,211.43,274,217s-22,3-27-1v-6S261.65,215.85,274.32,211.43Z"/><path class="cls-12" d="M263.12,228.74"/><path class="cls-12" d="M249.59,227,232,218.08s6.47-4.86,14.55-4c0,0,8.32,7.86,27.41.88,0,0,11,0,14,4l-26.28,10-6.45-7.09L249.59,227"/><path class="cls-13" d="M211.5,496.5s-8-7,14-12h3l3-5h21v5s-16,8-12,12h-6S217.5,505.5,211.5,496.5Z"/><path class="cls-14" d="M286.5,498.5h-11v-3h-4s-9,4-13,4-11,2-17-2,7-13,15-12c0,0,5,0,8-6h22Z"/><polygon class="cls-15" points="258.5 276.5 253.5 283.5 247.5 279.5 253 229.42 256.5 233.5 259.5 231.5 258.5 276.5"/><polygon class="cls-16" points="263.5 228.5 257.5 220.5 249.5 226.5 255.5 233.5 258.19 231.82 263.5 228.5"/><rect class="cls-17" width="400" height="600"/></g></symbol><symbol id="m3" data-name="m3" viewBox="0 0 400 600"><g id="m3-3" data-name="m3"><g id="m1_copy_2" data-name="m1 copy 2"><path class="cls-1" d="M305.5,161.5s3-39,0-44-2-9-19-13h-43s-2-6-2-10c0,0-7.75,4.85-8.95,13.58q0,.21-.05.42c-1,9-1-10-1-10s-13,2-11,26c0,0,3,4,12,8,0,0-5.5,3.5-3.5,29.5-.29.78,9-23.89,8.5-28.5-.2-2,53.5-.5,53.5-.5s-.37,16.9,3,26C296.16,164.84,300.42,166.58,305.5,161.5Z"/><circle class="cls-2" cx="299" cy="170" r="8.5"/><circle class="cls-2" cx="326" cy="342" r="10.5"/><g id="m3-4" data-name="m3"><circle class="cls-2" cx="227.5" cy="165.5" r="6.5"/><path class="cls-2" d="M254.5,212.5s12.64,3,23-3c6.92-4,15.2-10.39,20-28,0,0,2-12-4-27.5l-2-21.5h-54l-9,29S225.5,207.5,254.5,212.5Z"/><circle class="cls-3" cx="279.5" cy="157.5" r="6"/><circle class="cls-3" cx="244.5" cy="156.5" r="6"/><path class="cls-4" d="M229.37,178.5s1.26,11.8,7.63,21.5c2.54,3.87,5.32,7.44,10,10s10.63,3.57,18.09,3.19C298.7,211.5,299,174.82,299,174.82L286.49,189.5s-24.42-21-50.88-6Z"/><path class="cls-5" d="M287.5,146.5s-7-7-14,0"/><path class="cls-6" d="M251.5,145.5s-7-7-14,0"/><path class="cls-7" d="M265.94,190.21H252.16s-1.8,7.79,6.59,7.79S265.94,190.21,265.94,190.21Z"/><path class="cls-8" d="M258,154s2,10-3,18c0,0,1,3,5,0S258,154,258,154Z"/><path class="cls-9" d="M316.5,334.5l-10-45-9-30-12-21,1.79-19.67s11.31,6.8,19.21,21.67c9.56,18,16.69,47.75,26,91Z"/><path class="cls-9" d="M288.15,219.39s-3.92-3.42-14-4.41L288,224Z"/><polygon class="cls-9" points="232 218 236 220 229 249 218 239 232 218"/><path class="cls-9" d="M234.76,216.58s-27.21,9.95-44.37,20.31l-40.77-24.14-7,15.6,42.91,31.07,36.8-16.33Z"/><line class="cls-10" x1="94.17" y1="104.41" x2="140.78" y2="244.5"/><path class="cls-2" d="M151.51,213.27s-12-12.08-20.78-10.63-15.31,8.86-7.83,18.51,21.67,7.77,21.67,7.77Z"/><polygon class="cls-11" points="228 313.94 289 313.94 287.5 479.5 264.5 479.5 260.5 348.5 254.5 348.5 252.5 479.5 231.5 479.5 228 313.94"/><path class="cls-9" d="M287,219s-8.13-4-12.2-4-23.38-2-35.58,0l-5.08,2L229,247l-1,68,61,1-2-97"/><path class="cls-2" d="M274.32,211.43,274,217s-22,3-27-1v-6S261.65,215.85,274.32,211.43Z"/><path class="cls-12" d="M263.12,228.74"/><path class="cls-12" d="M249.59,227,232,218.08s6.47-4.86,14.55-4c0,0,8.32,7.86,27.41.88,0,0,11,0,14,4l-26.28,10-6.45-7.09L249.59,227"/><path class="cls-13" d="M211.5,496.5s-8-7,14-12h3l3-5h21v5s-16,8-12,12h-6S217.5,505.5,211.5,496.5Z"/><path class="cls-14" d="M286.5,498.5h-11v-3h-4s-9,4-13,4-11,2-17-2,7-13,15-12c0,0,5,0,8-6h22Z"/><polygon class="cls-15" points="258.5 276.5 253.5 283.5 247.5 279.5 253 229.42 256.5 233.5 259.5 231.5 258.5 276.5"/><polygon class="cls-16" points="263.5 228.5 257.5 220.5 249.5 226.5 255.5 233.5 258.19 231.82 263.5 228.5"/><rect class="cls-17" width="400" height="600"/></g></g></g></symbol><symbol id="m4-2" data-name="m4" viewBox="0 0 400 600"><g id="m4-4" data-name="m4"><g id="m1_copy_3" data-name="m1 copy 3"><path class="cls-1" d="M305.5,161.5s3-39,0-44-2-9-19-13h-43s-2-6-2-10c0,0-7.75,4.85-8.95,13.58q0,.21-.05.42c-1,9-1-10-1-10s-13,2-11,26c0,0,3,4,12,8,0,0-5.5,3.5-3.5,29.5-.29.78,9-23.89,8.5-28.5-.2-2,53.5-.5,53.5-.5s-.37,16.9,3,26C296.16,164.84,300.42,166.58,305.5,161.5Z"/><circle class="cls-2" cx="299" cy="170" r="8.5"/><circle class="cls-2" cx="227.5" cy="165.5" r="6.5"/><path class="cls-2" d="M254.5,212.5s12.64,3,23-3c6.92-4,15.2-10.39,20-28,0,0,2-12-4-27.5l-2-21.5h-54l-9,29S225.5,207.5,254.5,212.5Z"/><circle class="cls-3" cx="279.5" cy="157.5" r="6"/><circle class="cls-3" cx="244.5" cy="156.5" r="6"/><path class="cls-4" d="M229.37,178.5s1.26,11.8,7.63,21.5c2.54,3.87,5.32,7.44,10,10s10.63,3.57,18.09,3.19C298.7,211.5,299,174.82,299,174.82L286.49,189.5s-24.42-21-50.88-6Z"/><path class="cls-5" d="M287.5,146.5s-7-7-14,0"/><path class="cls-6" d="M251.5,145.5s-7-7-14,0"/><path class="cls-7" d="M262,191.11h-6.89a3.05,3.05,0,0,0,3.29,3.89A3.3,3.3,0,0,0,262,191.11Z"/><path class="cls-8" d="M258,154s2,10-3,18c0,0,1,3,5,0S258,154,258,154Z"/><circle class="cls-2" cx="326" cy="342" r="10.5"/><path class="cls-9" d="M316.5,334.5l-10-45-9-30-12-21,1.79-19.67s11.31,6.8,19.21,21.67c9.56,18,16.69,47.75,26,91Z"/><path class="cls-9" d="M288.15,219.39s-3.92-3.42-14-4.41L288,224Z"/><polygon class="cls-9" points="216 241 232 248 236.2 220.5 232 218 214 240 216 241"/><path class="cls-9" d="M234.06,217.54s-28.76,3.55-47.8,9.77L152,194.59l-10.32,13.63,34.79,40L216,240.56Z"/><line class="cls-10" x1="122.42" y1="76.53" x2="136.2" y2="223.52"/><path class="cls-2" d="M153.7,195.53s-8.92-14.47-17.85-15-16.92,5.18-11.81,16.26S143.4,209.2,143.4,209.2Z"/><polygon class="cls-11" points="228 313.94 289 313.94 287.5 479.5 264.5 479.5 260.5 348.5 254.5 348.5 252.5 479.5 231.5 479.5 228 313.94"/><path class="cls-9" d="M287,219s-8.13-4-12.2-4-23.38-2-35.58,0l-5.08,2L229,247l-1,68,61,1-2-97"/><path class="cls-2" d="M274.32,211.43,274,217s-22,3-27-1v-6S261.65,215.85,274.32,211.43Z"/><path class="cls-12" d="M263.12,228.74"/><path class="cls-12" d="M249.59,227,232,218.08s6.47-4.86,14.55-4c0,0,8.32,7.86,27.41.88,0,0,11,0,14,4l-26.28,10-6.45-7.09L249.59,227"/><path class="cls-13" d="M211.5,496.5s-8-7,14-12h3l3-5h21v5s-16,8-12,12h-6S217.5,505.5,211.5,496.5Z"/><path class="cls-14" d="M286.5,498.5h-11v-3h-4s-9,4-13,4-11,2-17-2,7-13,15-12c0,0,5,0,8-6h22Z"/><polygon class="cls-15" points="258.5 276.5 253.5 283.5 247.5 279.5 253 229.42 256.5 233.5 259.5 231.5 258.5 276.5"/><polygon class="cls-16" points="263.5 228.5 257.5 220.5 249.5 226.5 255.5 233.5 258.19 231.82 263.5 228.5"/><rect class="cls-17" width="400" height="600"/></g></g></symbol></defs><title>laerer</title><g id="Layer_2" data-name="Layer 2"><g id="m4"><use width="400" height="600" xlink:href="#m1"/><use width="400" height="600" transform="translate(400)" xlink:href="#m2"/><use width="400" height="600" transform="translate(800)" xlink:href="#m3"/><use width="400" height="600" transform="translate(1200)" xlink:href="#m4-2"/></g></g></svg>
