<svg xmlns="http://www.w3.org/2000/svg" xmlns:xlink="http://www.w3.org/1999/xlink" width="1603" height="600" viewBox="0 0 1603 600"><defs><style>.cls-1{fill:#e5d8b3;}.cls-2,.cls-5{fill:#f7c1b7;}.cls-3{fill:#0b0c0b;}.cls-10,.cls-13,.cls-14,.cls-15,.cls-3{stroke:#040505;}.cls-10,.cls-13,.cls-14,.cls-15,.cls-3,.cls-5,.cls-6,.cls-7{stroke-miterlimit:10;}.cls-4{fill:#eaceb7;}.cls-5,.cls-6{stroke:#e5d8b3;stroke-width:2px;}.cls-10,.cls-17,.cls-6{fill:none;}.cls-7{fill:#c71e32;stroke:#a32136;}.cls-8{fill:#dba7a1;}.cls-9{fill:#44bcb9;}.cls-10{stroke-width:5px;}.cls-11{fill:#fff;}.cls-12{fill:#423e34;}.cls-13{fill:#060707;}.cls-14{fill:#010202;}.cls-15,.cls-16{fill:#050707;}</style><symbol id="m1" data-name="m1" viewBox="0 0 400 600"><path class="cls-1" d="M305.5,161.5s3-39,0-44-2-9-19-13h-43s-2-6-2-10c0,0-7.75,4.85-8.95,13.58q0,.21-.05.42c-1,9-1-10-1-10s-13,2-11,26c0,0,3,4,12,8,0,0-5.5,3.5-3.5,29.5-.29.78,9-23.89,8.5-28.5-.2-2,53.5-.5,53.5-.5s-.37,16.9,3,26C296.16,164.84,300.42,166.58,305.5,161.5Z"/><circle class="cls-2" cx="299" cy="170" r="8.5"/><circle class="cls-2" cx="227.5" cy="165.5" r="6.5"/><path class="cls-2" d="M254.5,212.5s12.64,3,23-3c6.92-4,15.2-10.39,20-28,0,0,2-12-4-27.5l-2-21.5h-54l-9,29S225.5,207.5,254.5,212.5Z"/><circle class="cls-3" cx="279.5" cy="157.5" r="6"/><circle class="cls-3" cx="244.5" cy="156.5" r="6"/><path class="cls-4" d="M229.37,178.5s1.26,11.8,7.63,21.5c2.54,3.87,5.32,7.44,10,10s10.63,3.57,18.09,3.19C298.7,211.5,299,174.82,299,174.82L286.49,189.5s-24.42-21-50.88-6Z"/><path class="cls-5" d="M287.5,146.5s-7-7-14,0"/><path class="cls-6" d="M251.5,145.5s-7-7-14,0"/><path class="cls-7" d="M270,187H247s-3,13,11,13S270,187,270,187Z"/><path class="cls-8" d="M258,154s2,10-3,18c0,0,1,3,5,0S258,154,258,154Z"/><circle class="cls-2" cx="326" cy="342" r="10.5"/><path class="cls-9" d="M316.5,334.5l-10-45-9-30-12-21,1.79-19.67s11.31,6.8,19.21,21.67c9.56,18,16.69,47.75,26,91Z"/><path class="cls-9" d="M288.15,219.39s-3.92-3.42-14-4.41L288,224Z"/><path class="cls-9" d="M234,217s-23,17.56-36.36,32.54l-46.09-11-2,17,50.19,17L230,246Z"/><line class="cls-10" x1="66.5" y1="151.5" x2="152.5" y2="271.5"/><path class="cls-2" d="M153.5,238.5s-15-8-23-4-12,13-2,20,23,1,23,1Z"/><path class="cls-9" d="M287,219s-8.13-4-12.2-4-23.38-2-35.58,0l-5.08,2L229,247l-1,68,61,1-2-97"/><path class="cls-2" d="M274.32,211.43,274,217s-22,3-27-1v-6S261.65,215.85,274.32,211.43Z"/><path class="cls-11" d="M263.12,228.74"/><path class="cls-11" d="M249.59,227,232,218.08s6.47-4.86,14.55-4c0,0,8.32,7.86,27.41.88,0,0,11,0,14,4l-26.28,10-6.45-7.09L249.59,227"/><polygon class="cls-12" points="257.5 348.13 257.5 315 228.5 315.03 231.5 479.5 252.5 479.5 254.5 349.13 254.5 348.13 254.5 348.13 257.5 348.13"/><path class="cls-13" d="M211.5,496.5s-8-7,14-12h3l3-5h21v5s-16,8-12,12h-6S217.5,505.5,211.5,496.5Z"/><polygon class="cls-12" points="287.5 479.5 264.5 479.5 260.5 348.1 257.5 348.1 257.5 315 288.5 316 287.5 479.5"/><path class="cls-14" d="M286.5,498.5h-11v-3h-4s-9,4-13,4-11,2-17-2,7-13,15-12c0,0,5,0,8-6h22Z"/><polygon class="cls-15" points="258.5 276.5 253.5 283.5 247.5 279.5 253 229.42 256.5 233.5 259.5 231.5 258.5 276.5"/><polygon class="cls-16" points="263.5 228.5 257.5 220.5 249.5 226.5 255.5 233.5 258.19 231.82 263.5 228.5"/><rect class="cls-17" width="400" height="600"/></symbol><symbol id="m2" data-name="m2" viewBox="0 0 400 600"><path class="cls-1" d="M305.5,161.5s3-39,0-44-2-9-19-13h-43s-2-6-2-10c0,0-7.75,4.85-8.95,13.58q0,.21-.05.42c-1,9-1-10-1-10s-13,2-11,26c0,0,3,4,12,8,0,0-5.5,3.5-3.5,29.5-.29.78,9-23.89,8.5-28.5-.2-2,53.5-.5,53.5-.5s-.37,16.9,3,26C296.16,164.84,300.42,166.58,305.5,161.5Z"/><circle class="cls-2" cx="299" cy="170" r="8.5"/><circle class="cls-2" cx="227.5" cy="165.5" r="6.5"/><path class="cls-2" d="M254.5,212.5s12.64,3,23-3c6.92-4,15.2-10.39,20-28,0,0,2-12-4-27.5l-2-21.5h-54l-9,29S225.5,207.5,254.5,212.5Z"/><circle class="cls-3" cx="279.5" cy="157.5" r="6"/><circle class="cls-3" cx="244.5" cy="156.5" r="6"/><path class="cls-4" d="M229.37,178.5s1.26,11.8,7.63,21.5c2.54,3.87,5.32,7.44,10,10s10.63,3.57,18.09,3.19C298.7,211.5,299,174.82,299,174.82L286.49,189.5s-24.42-21-50.88-6Z"/><path class="cls-5" d="M287.5,146.5s-7-7-14,0"/><path class="cls-6" d="M251.5,145.5s-7-7-14,0"/><path class="cls-7" d="M266.94,191h-15s-2,8.49,7.19,8.49S266.94,191,266.94,191Z"/><path class="cls-8" d="M258,154s2,10-3,18c0,0,1,3,5,0S258,154,258,154Z"/><circle class="cls-2" cx="326" cy="342" r="10.5"/><path class="cls-9" d="M316.5,334.5l-10-45-9-30-12-21,1.79-19.67s11.31,6.8,19.21,21.67c9.56,18,16.69,47.75,26,91Z"/><path class="cls-9" d="M288.15,219.39s-3.92-3.42-14-4.41L288,224Z"/><path class="cls-9" d="M235.79,217s-29,11.67-44,24.93l-44.44-16.44-4.07,16.6L191.06,265l37.28-19.67Z"/><line class="cls-10" x1="72.38" y1="130.88" x2="143.33" y2="260.34"/><path class="cls-2" d="M148.29,225.7S134.36,216,125.94,219s-13.48,11.46-4.39,19.61,22.71,3.76,22.71,3.76Z"/><path class="cls-9" d="M287,219s-8.13-4-12.2-4-23.38-2-35.58,0l-5.08,2L229,247l-1,68,61,1-2-97"/><path class="cls-2" d="M274.32,211.43,274,217s-22,3-27-1v-6S261.65,215.85,274.32,211.43Z"/><path class="cls-11" d="M263.12,228.74"/><path class="cls-11" d="M249.59,227,232,218.08s6.47-4.86,14.55-4c0,0,8.32,7.86,27.41.88,0,0,11,0,14,4l-26.28,10-6.45-7.09L249.59,227"/><polygon class="cls-12" points="257.5 348.13 257.5 315 228.5 315.03 231.5 479.5 252.5 479.5 254.5 349.13 254.5 348.13 254.5 348.13 257.5 348.13"/><path class="cls-13" d="M211.5,496.5s-8-7,14-12h3l3-5h21v5s-16,8-12,12h-6S217.5,505.5,211.5,496.5Z"/><polygon class="cls-12" points="287.5 479.5 264.5 479.5 260.5 348.1 257.5 348.1 257.5 315 288.5 316 287.5 479.5"/><path class="cls-14" d="M286.5,498.5h-11v-3h-4s-9,4-13,4-11,2-17-2,7-13,15-12c0,0,5,0,8-6h22Z"/><polygon class="cls-15" points="258.5 276.5 253.5 283.5 247.5 279.5 253 229.42 256.5 233.5 259.5 231.5 258.5 276.5"/><polygon class="cls-16" points="263.5 228.5 257.5 220.5 249.5 226.5 255.5 233.5 258.19 231.82 263.5 228.5"/><path class="cls-9" d="M233.79,218,226,246s4,1,4,0S233.79,218,233.79,218Z"/><rect class="cls-17" width="400" height="600"/></symbol><symbol id="m3" data-name="m3" viewBox="0 0 400 600"><path class="cls-1" d="M305.5,161.5s3-39,0-44-2-9-19-13h-43s-2-6-2-10c0,0-7.75,4.85-8.95,13.58q0,.21-.05.42c-1,9-1-10-1-10s-13,2-11,26c0,0,3,4,12,8,0,0-5.5,3.5-3.5,29.5-.29.78,9-23.89,8.5-28.5-.2-2,53.5-.5,53.5-.5s-.37,16.9,3,26C296.16,164.84,300.42,166.58,305.5,161.5Z"/><circle class="cls-2" cx="299" cy="170" r="8.5"/><circle class="cls-2" cx="227.5" cy="165.5" r="6.5"/><path class="cls-2" d="M254.5,212.5s12.64,3,23-3c6.92-4,15.2-10.39,20-28,0,0,2-12-4-27.5l-2-21.5h-54l-9,29S225.5,207.5,254.5,212.5Z"/><circle class="cls-3" cx="279.5" cy="157.5" r="6"/><circle class="cls-3" cx="244.5" cy="156.5" r="6"/><path class="cls-4" d="M229.37,178.5s1.26,11.8,7.63,21.5c2.54,3.87,5.32,7.44,10,10s10.63,3.57,18.09,3.19C298.7,211.5,299,174.82,299,174.82L286.49,189.5s-24.42-21-50.88-6Z"/><path class="cls-5" d="M287.5,146.5s-7-7-14,0"/><path class="cls-6" d="M251.5,145.5s-7-7-14,0"/><path class="cls-7" d="M264,195h-7.16a3.17,3.17,0,0,0,3.42,4A3.43,3.43,0,0,0,264,195Z"/><path class="cls-8" d="M258,154s2,10-3,18c0,0,1,3,5,0S258,154,258,154Z"/><circle class="cls-2" cx="326" cy="342" r="10.5"/><path class="cls-9" d="M316.5,334.5l-10-45-9-30-12-21,1.79-19.67s11.31,6.8,19.21,21.67c9.56,18,16.69,47.75,26,91Z"/><path class="cls-9" d="M288.15,219.39s-3.92-3.42-14-4.41L288,224Z"/><path class="cls-9" d="M235.72,216.53s-30,6.68-46.3,18.36L146.87,214l-5.73,16.11,45.23,27.59,39.07-13.8Z"/><line class="cls-10" x1="81.85" y1="112.3" x2="139.36" y2="248.28"/><path class="cls-2" d="M147.79,214.31s-12.87-11.1-21.56-9-14.56,10-6.35,19.07,22.22,6,22.22,6Z"/><path class="cls-9" d="M287,219s-8.13-4-12.2-4-23.38-2-35.58,0l-5.08,2L229,247l-1,68,61,1-2-97"/><path class="cls-2" d="M274.32,211.43,274,217s-22,3-27-1v-6S261.65,215.85,274.32,211.43Z"/><path class="cls-11" d="M263.12,228.74"/><path class="cls-11" d="M249.59,227,232,218.08s6.47-4.86,14.55-4c0,0,8.32,7.86,27.41.88,0,0,11,0,14,4l-26.28,10-6.45-7.09L249.59,227"/><polygon class="cls-12" points="257.5 348.13 257.5 315 228.5 315.03 231.5 479.5 252.5 479.5 254.5 349.13 254.5 348.13 254.5 348.13 257.5 348.13"/><path class="cls-13" d="M211.5,496.5s-8-7,14-12h3l3-5h21v5s-16,8-12,12h-6S217.5,505.5,211.5,496.5Z"/><polygon class="cls-12" points="287.5 479.5 264.5 479.5 260.5 348.1 257.5 348.1 257.5 315 288.5 316 287.5 479.5"/><path class="cls-14" d="M286.5,498.5h-11v-3h-4s-9,4-13,4-11,2-17-2,7-13,15-12c0,0,5,0,8-6h22Z"/><polygon class="cls-15" points="258.5 276.5 253.5 283.5 247.5 279.5 253 229.42 256.5 233.5 259.5 231.5 258.5 276.5"/><polygon class="cls-16" points="263.5 228.5 257.5 220.5 249.5 226.5 255.5 233.5 258.19 231.82 263.5 228.5"/><polygon class="cls-9" points="225 243.96 231 245 233.54 222 225 239.77 225 243.96"/><rect class="cls-17" width="400" height="600"/></symbol><symbol id="m4-2" data-name="m4" viewBox="0 0 400 600"><path class="cls-1" d="M305.5,161.5s3-39,0-44-2-9-19-13h-43s-2-6-2-10c0,0-7.75,4.85-8.95,13.58q0,.21-.05.42c-1,9-1-10-1-10s-13,2-11,26c0,0,3,4,12,8,0,0-5.5,3.5-3.5,29.5-.29.78,9-23.89,8.5-28.5-.2-2,53.5-.5,53.5-.5s-.37,16.9,3,26C296.16,164.84,300.42,166.58,305.5,161.5Z"/><circle class="cls-2" cx="299" cy="170" r="8.5"/><circle class="cls-2" cx="227.5" cy="165.5" r="6.5"/><path class="cls-2" d="M254.5,212.5s12.64,3,23-3c6.92-4,15.2-10.39,20-28,0,0,2-12-4-27.5l-2-21.5h-54l-9,29S225.5,207.5,254.5,212.5Z"/><circle class="cls-3" cx="279.5" cy="157.5" r="6"/><circle class="cls-3" cx="244.5" cy="156.5" r="6"/><path class="cls-4" d="M229.37,178.5s1.26,11.8,7.63,21.5c2.54,3.87,5.32,7.44,10,10s10.63,3.57,18.09,3.19C298.7,211.5,299,174.82,299,174.82L286.49,189.5s-24.42-21-50.88-6Z"/><path class="cls-5" d="M287.5,146.5s-7-7-14,0"/><path class="cls-6" d="M251.5,145.5s-7-7-14,0"/><path class="cls-7" d="M263.31,197h-3.54a1.57,1.57,0,0,0,1.69,2A1.7,1.7,0,0,0,263.31,197Z"/><path class="cls-8" d="M258,154s2,10-3,18c0,0,1,3,5,0S258,154,258,154Z"/><circle class="cls-2" cx="326" cy="342" r="10.5"/><path class="cls-9" d="M316.5,334.5l-10-45-9-30-12-21,1.79-19.67s11.31,6.8,19.21,21.67c9.56,18,16.69,47.75,26,91Z"/><path class="cls-9" d="M288.15,219.39s-3.92-3.42-14-4.41L288,224Z"/><path class="cls-9" d="M236.17,217.47s-30.75.15-49.14,8.11l-37.15-29.4-9,14.52,38.34,36.56,41.11-5.19Z"/><line class="cls-10" x1="107.93" y1="82.96" x2="135.27" y2="228.04"/><path class="cls-2" d="M150.72,196.64s-10.22-13.58-19.16-13.33S115.19,190,121.3,200.6s20.43,10.61,20.43,10.61Z"/><path class="cls-9" d="M287,219s-8.13-4-12.2-4-23.38-2-35.58,0l-5.08,2L229,247l-1,68,61,1-2-97"/><path class="cls-2" d="M274.32,211.43,274,217s-22,3-27-1v-6S261.65,215.85,274.32,211.43Z"/><path class="cls-11" d="M263.12,228.74"/><path class="cls-11" d="M249.59,227,232,218.08s6.47-4.86,14.55-4c0,0,8.32,7.86,27.41.88,0,0,11,0,14,4l-26.28,10-6.45-7.09L249.59,227"/><polygon class="cls-12" points="257.5 348.13 257.5 315 228.5 315.03 231.5 479.5 252.5 479.5 254.5 349.13 254.5 348.13 254.5 348.13 257.5 348.13"/><path class="cls-13" d="M211.5,496.5s-8-7,14-12h3l3-5h21v5s-16,8-12,12h-6S217.5,505.5,211.5,496.5Z"/><polygon class="cls-12" points="287.5 479.5 264.5 479.5 260.5 348.1 257.5 348.1 257.5 315 288.5 316 287.5 479.5"/><path class="cls-14" d="M286.5,498.5h-11v-3h-4s-9,4-13,4-11,2-17-2,7-13,15-12c0,0,5,0,8-6h22Z"/><polygon class="cls-15" points="258.5 276.5 253.5 283.5 247.5 279.5 253 229.42 256.5 233.5 259.5 231.5 258.5 276.5"/><polygon class="cls-16" points="263.5 228.5 257.5 220.5 249.5 226.5 255.5 233.5 258.19 231.82 263.5 228.5"/><polygon class="cls-9" points="220 242 229.59 243.62 233.57 221.5 220 242"/><rect class="cls-17" width="400" height="600"/></symbol></defs><title>lærer</title><g id="Layer_2" data-name="Layer 2"><g id="m4"><use width="400" height="600" xlink:href="#m1"/><use width="400" height="600" transform="translate(401)" xlink:href="#m2"/><use width="400" height="600" transform="translate(802)" xlink:href="#m3"/><use width="400" height="600" transform="translate(1203)" xlink:href="#m4-2"/></g></g></svg>
