<svg xmlns="http://www.w3.org/2000/svg" width="440" height="357" viewBox="0 0 440 357"><defs><style>.cls-1{fill:#9e9e9e;}.cls-2{fill:#d3d3d3;}.cls-3{fill:#727272;}.cls-4{fill:#848484;}.cls-5{fill:#5b5b5b;}.cls-6{fill:#b5b5b5;}.cls-7{fill:#db5252;stroke:#b23d3d;}.cls-7,.cls-8,.cls-9{stroke-miterlimit:10;stroke-width:0.25px;}.cls-8{fill:#e2b15a;stroke:#c6974a;}.cls-9{fill:#5cb543;stroke:#50a555;}.cls-10{fill:#e8e8e8;}.cls-11{fill:#c4c4c4;}.cls-12{fill:#3b5998;}</style></defs><title>Asset 5</title><g id="Layer_2" data-name="Layer 2"><g id="Laptop"><path class="cls-1" d="M63,0H377a5,5,0,0,1,5,5V223a0,0,0,0,1,0,0H58a0,0,0,0,1,0,0V5A5,5,0,0,1,63,0Z"/><rect class="cls-2" x="73" y="15" width="293" height="190"/><path class="cls-3" d="M435,357H5a5,5,0,0,1-5-5V340H440v12A5,5,0,0,1,435,357Z"/><path class="cls-4" d="M434.94,345H5.06a5,5,0,0,1-4.48-7.22L58,222H382l57.42,115.78A5,5,0,0,1,434.94,345Z"/><polygon class="cls-5" points="396 290 44 290 70 233 370 233 396 290"/><rect class="cls-6" x="73" y="15" width="293" height="14"/><circle class="cls-7" cx="80" cy="22" r="2"/><circle class="cls-8" cx="87" cy="22" r="2"/><circle class="cls-9" cx="94" cy="22" r="2"/><rect class="cls-10" x="99" y="52" width="151" height="144" rx="6.29" ry="6.29"/><rect class="cls-10" x="255" y="52" width="46" height="36.47" rx="6.29" ry="6.29"/><rect class="cls-11" x="306" y="41" width="60" height="164"/><rect class="cls-10" x="255" y="93.14" width="46" height="23.38" rx="6.29" ry="6.29"/><rect class="cls-12" x="73" y="29" width="293" height="13"/></g></g></svg>
