<svg id="Layer_1" data-name="Layer 1" xmlns="http://www.w3.org/2000/svg" width="847.33" height="611.32" viewBox="0 0 847.33 611.32"><defs><style>.cls-1{fill:#152230;}.cls-2{fill:#f2902c;}.cls-3{fill:#fff;}</style></defs><title>PrivatSnak_logo</title><path class="cls-1" d="M250,434.24c-4.47,1.51-7.58,5-11.21,7.75-12.77,9.61-25.41,19.4-38.12,29.09-1,.77-1.92,2.25-3.37,1.67-1.8-.73-1.08-2.59-1.09-4,0-19.66-.2-39.32.08-59,.07-4.61-1.4-5.5-5.64-5.41-12.49.27-25,.17-37.49,0-15.18-.15-26.33-11.64-26.33-26.8,0-71.81.35-143.62-.16-215.43-.13-18.34,13-29.73,29.78-29.71q395.13.45,790.25.21c16.22,0,27.22,11,27.23,27.27q0,108.72.06,217.43c0,13.63-7.13,22.54-21.56,26.84-2.83.05-5.66.14-8.49.14H474.24q-90.44,0-180.89,0c-3.76,0-6.94.55-10.07,3.19-6.35,5.35-13.39,9.86-19.78,15.17C259,426.5,253.31,429,250,434.24Z" transform="translate(-126.66 -132.51)"/><path class="cls-2" d="M250,434.24c3.33-5.21,9-7.74,13.53-11.53,6.38-5.31,13.43-9.83,19.78-15.17,3.13-2.64,6.31-3.19,10.07-3.19q90.44.08,180.89,0H943.95c2.83,0,5.66-.09,8.49-.14,1.57,3,5.08,2.68,7.53,4.29,8.32,5.46,12.56,12.81,12.56,22.83,0,72-.26,143.95.21,215.92.1,15-10.83,29-29,29q-192.93-.4-385.86-.14c-46.48,0-93,.12-139.45-.09a20.78,20.78,0,0,0-13.57,4.71q-32.68,25.3-65.48,50.45c-5,3.84-10.13,7.49-15.16,11.29-3.12,2.36-4.25,1.54-4.25-2.23q0-28.24-.13-56.48c0-7.54-.15-7.64-7.52-7.65-11.33,0-22.67-.36-34,.09-15.84.63-28.4-12-28.34-28.58.28-69.47.13-138.95.12-208.42C250.09,437.57,250,435.91,250,434.24Z" transform="translate(-126.66 -132.51)"/><path class="cls-3" d="M271.43,338.67H234.88V198.08h58.17q23.68,0,36.26,12.31t12.59,34.68q0,22.37-12.59,34.68t-36.26,12.31H271.43Zm0-76.07h12.12q20.14,0,20.14-17.53t-20.14-17.53H271.43Z" transform="translate(-126.66 -132.51)"/><path class="cls-3" d="M471.06,338.67H425.57L390.7,284.6v54.07H354.16V198.08H411a55.85,55.85,0,0,1,20.51,3.45,38.62,38.62,0,0,1,23,23.21,48.1,48.1,0,0,1,2.89,16.78q0,16-7.74,26t-22.84,13.52ZM390.7,260.92h6.9q10.81,0,16.59-4.47T420,243.58q0-8.39-5.78-12.87t-16.59-4.47h-6.9Z" transform="translate(-126.66 -132.51)"/><path class="cls-3" d="M518.76,198.08V338.67H482.22V198.08Z" transform="translate(-126.66 -132.51)"/><path class="cls-3" d="M569.07,198.08,603,283.66l34.12-85.58h39.71L617.54,338.67H588.46l-59.1-140.58Z" transform="translate(-126.66 -132.51)"/><path class="cls-3" d="M756.38,315.24H704.17l-8.39,24.43h-39l53.51-140.58h39.9l53.51,140.58h-39Zm-9.7-27.78-16.41-46.8-16.41,46.8Z" transform="translate(-126.66 -132.51)"/><path class="cls-3" d="M857.81,230V339.67H821.26V230h-30v-31h96.58v31Z" transform="translate(-126.66 -132.51)"/><path class="cls-3" d="M435.24,504.61a45.11,45.11,0,0,0-11.9-7.16,31.62,31.62,0,0,0-11.53-2.32q-7.07,0-11.53,3.35a10.43,10.43,0,0,0-4.46,8.74,8.69,8.69,0,0,0,2.23,6.14,19.41,19.41,0,0,0,5.86,4.18,49.72,49.72,0,0,0,8.18,3.07q4.55,1.3,9,2.79,17.85,6,26.12,15.9t8.27,25.94a50.49,50.49,0,0,1-3.63,19.52,40.71,40.71,0,0,1-10.6,15,48.85,48.85,0,0,1-17.11,9.67,71.28,71.28,0,0,1-23,3.44q-26.59,0-49.27-15.8l15.62-29.38a63.29,63.29,0,0,0,16.18,10.78,38.87,38.87,0,0,0,15.8,3.53q8.93,0,13.29-4.09a12.67,12.67,0,0,0,3.25-14.78,11.9,11.9,0,0,0-3.72-4.28,29.82,29.82,0,0,0-6.79-3.63q-4.18-1.67-10.13-3.72-7.07-2.23-13.85-4.93a43.51,43.51,0,0,1-12.09-7.16A33.22,33.22,0,0,1,361,528.13q-3.25-6.79-3.25-17.2a49.66,49.66,0,0,1,3.44-18.87,41.92,41.92,0,0,1,9.67-14.5,43.11,43.11,0,0,1,15.25-9.39,57.62,57.62,0,0,1,20.17-3.35A88.38,88.38,0,0,1,428,467.7a96.08,96.08,0,0,1,21.75,8.46Z" transform="translate(-126.66 -132.51)"/><path class="cls-3" d="M469.26,608.92V468.73h36.44L573,554.44V468.73h36.26v140.2H573l-67.31-85.72v85.72Z" transform="translate(-126.66 -132.51)"/><path class="cls-3" d="M715.81,584.56H663.75l-8.37,24.36H616.52l53.36-140.2h39.79L763,608.92H724.18Zm-9.67-27.7-16.36-46.67-16.36,46.67Z" transform="translate(-126.66 -132.51)"/><path class="cls-3" d="M806.36,526.55l44.44-57.83h45L840.2,535.1,901,608.92H853.77l-47.41-60.8v60.8H769.92V468.73h36.44Z" transform="translate(-126.66 -132.51)"/></svg>
