<svg xmlns="http://www.w3.org/2000/svg" width="1600" height="900" viewBox="0 0 1600 900"><defs><style>.cls-1{fill:#d3ccc7;}.cls-2{fill:#b9c6c1;}.cls-3{fill:#b5a286;}.cls-4{fill:#8c7e6c;}.cls-5{fill:#875533;}.cls-6{fill:#a57453;}.cls-7{fill:#603d26;}.cls-8{fill:#754c30;}.cls-9{fill:#70472b;}.cls-10{fill:#9e5a4c;}.cls-11{fill:#915140;}.cls-12{fill:#72392e;}.cls-13{fill:#587f33;}.cls-14{fill:none;stroke:#405e20;stroke-linecap:round;stroke-miterlimit:10;}.cls-15{fill:#405e20;}.cls-16{fill:#333;}.cls-17{fill:#383736;}.cls-18{fill:#e5b65a;}.cls-19{fill:#ce5f13;}.cls-20{fill:#73b75a;}.cls-21{fill:#327018;}.cls-22{fill:#528daa;}.cls-23{fill:#265568;}.cls-24{fill:#686868;}.cls-25{fill:#abb7a5;}.cls-26{fill:#353535;}.cls-27{fill:#fff;}</style></defs><title>scenografi</title><g id="Gulv"><rect class="cls-1" y="513" width="1600" height="387"/></g><g id="Væg"><rect class="cls-2" width="1600" height="524"/><rect class="cls-3" y="503" width="1600" height="21"/><rect class="cls-4" x="1" y="501" width="1600" height="3"/></g><g id="Bord"><rect class="cls-5" x="487.29" y="853" width="22.57" height="71"/><polygon class="cls-6" points="509.86 853 512.12 847 512.12 920 509.86 924 509.86 853"/><rect class="cls-5" x="1091.14" y="856" width="22.57" height="71"/><polygon class="cls-6" points="1091.14 856 1088.88 850 1088.88 923 1091.14 927 1091.14 856"/><polygon class="cls-5" points="1125 841.91 476 841.91 578.47 647 1022.53 647 1125 841.91"/><rect class="cls-7" x="476" y="841.92" width="649" height="15.59"/></g><g id="Kateder"><polygon class="cls-8" points="377 630 402 587 401 446 377 481 377 630"/><polygon class="cls-5" points="391 475 -110 475 -110 441 413 441 391 475"/><rect class="cls-5" y="486" width="377" height="144"/><rect class="cls-7" x="-133" y="475" width="524" height="11"/><polygon class="cls-9" points="391 486 413 452 413 441 391 475 391 486"/></g><g id="Layer_8" data-name="Layer 8"><path class="cls-10" d="M320,415.7h39.25l-4.71,37.71s-10.2,3.08-29,0Z"/><path class="cls-11" d="M362.34,408.77H316.93l1.54,7.7s6.69,3,20.78,3.07H340c14.1-.11,20.78-3.07,20.78-3.07Z"/><ellipse class="cls-12" cx="339.64" cy="408.77" rx="22.71" ry="5.39"/><path class="cls-13" d="M338.59,411.08a3.54,3.54,0,0,1-3.3-2.28c-4.69-12.37-25.76-71-3.73-72.38,21.61-1.35,16.55,57.18,15,71.52a3.53,3.53,0,0,1-3.51,3.14Z"/><path class="cls-13" d="M329.14,367.16s-33.54-12.07-28.65,3,37,0,37,0l9.78,3.62s34.24-3,24.46,6.64-31.45-4.83-31.45-4.83"/><path class="cls-14" d="M329.8,341s-9.2,6.68,9.2,62"/><path class="cls-14" d="M304,371.19s1.58,3.34,20.21.63"/><path class="cls-14" d="M333.49,340.34s10.75,3.7,9.32,62"/><rect class="cls-15" x="305.01" y="361.98" width="0.77" height="3.09" rx="0.27" ry="0.27" transform="translate(-50.16 48.89) rotate(-8.46)"/><rect class="cls-15" x="315.01" y="361.98" width="0.77" height="3.09" rx="0.27" ry="0.27" transform="translate(377.14 -113.77) rotate(48.32)"/><rect class="cls-15" x="310.01" y="374.98" width="0.77" height="3.09" rx="0.27" ry="0.27" transform="translate(-52.02 49.76) rotate(-8.46)"/><rect class="cls-15" x="310.01" y="366.98" width="0.77" height="3.09" rx="0.27" ry="0.27" transform="translate(-150.77 508.13) rotate(-66.74)"/><rect class="cls-15" x="351.01" y="372.98" width="0.77" height="3.09" rx="0.27" ry="0.27" transform="translate(-51.28 55.78) rotate(-8.46)"/><rect class="cls-15" x="339.01" y="338.98" width="0.77" height="3.09" rx="0.27" ry="0.27" transform="matrix(0.99, -0.15, 0.15, 0.99, -46.41, 53.64)"/><rect class="cls-15" x="332.01" y="359.98" width="0.77" height="3.09" rx="0.27" ry="0.27" transform="translate(-85.18 620.03) rotate(-79.16)"/><rect class="cls-15" x="335.01" y="349.98" width="0.77" height="3.09" rx="0.27" ry="0.27" transform="translate(484.53 813.93) rotate(-154.22)"/><rect class="cls-15" x="347.01" y="356.98" width="0.77" height="3.09" rx="0.27" ry="0.27" transform="translate(376.4 856.91) rotate(-139.23)"/><rect class="cls-15" x="347.01" y="389.98" width="0.77" height="3.09" rx="0.27" ry="0.27" transform="translate(621.78 -54.21) rotate(73.2)"/><rect class="cls-15" x="347.01" y="398.98" width="0.77" height="3.09" rx="0.27" ry="0.27" transform="translate(630.4 -47.81) rotate(73.2)"/><rect class="cls-15" x="334.01" y="404.98" width="0.77" height="3.09" rx="0.27" ry="0.27" transform="translate(822.49 209.44) rotate(107.45)"/><rect class="cls-15" x="327.01" y="386.98" width="0.77" height="3.09" rx="0.27" ry="0.27" transform="translate(604.69 -37.2) rotate(73.2)"/><rect class="cls-15" x="327.01" y="380.98" width="0.77" height="3.09" rx="0.27" ry="0.27" transform="translate(761.69 127.78) rotate(100.16)"/><rect class="cls-15" x="337.01" y="384.98" width="0.77" height="3.09" rx="0.27" ry="0.27" transform="translate(58.25 -43.96) rotate(8.16)"/><rect class="cls-15" x="321.01" y="351.98" width="0.77" height="3.09" rx="0.27" ry="0.27" transform="translate(-86.25 602.73) rotate(-79.16)"/><rect class="cls-15" x="354.01" y="379.98" width="0.77" height="3.09" rx="0.27" ry="0.27" transform="translate(658.62 -41.08) rotate(78.64)"/><rect class="cls-15" x="371.01" y="378.98" width="0.77" height="3.09" rx="0.27" ry="0.27" transform="translate(829.52 110.62) rotate(103.8)"/><rect class="cls-15" x="361.01" y="371.98" width="0.77" height="3.09" rx="0.27" ry="0.27" transform="translate(176.91 -112.37) rotate(23.26)"/><rect class="cls-15" x="324.01" y="338.98" width="0.77" height="3.09" rx="0.27" ry="0.27" transform="translate(-140.14 267.03) rotate(-37.4)"/><path class="cls-14" d="M369.17,377.19s-1.58,3.34-20.21.63"/></g><g id="Tavle"><rect class="cls-5" x="537" y="90.15" width="527" height="310.69" rx="6.23" ry="6.23"/><rect class="cls-16" x="554" y="107" width="493" height="279"/><polygon class="cls-17" points="1047 107 554 386 1047 386 1047 107"/><rect class="cls-7" x="554" y="378.17" width="493" height="7.83"/></g><g id="Reol"><rect class="cls-5" x="84.07" y="119" width="250.93" height="133" rx="1.1" ry="1.1"/><rect class="cls-7" x="100.03" y="134.07" width="219.01" height="102.85"/><rect class="cls-18" x="100.03" y="158.01" width="16.85" height="78.91" rx="0.87" ry="0.87"/><rect class="cls-19" x="100.03" y="173.97" width="16.85" height="3.55"/><rect class="cls-20" x="118.65" y="173.97" width="14.19" height="62.95"/><rect class="cls-21" x="118.65" y="186.71" width="14.19" height="2.83"/><rect class="cls-20" x="154.12" y="167.77" width="14.19" height="69.16"/><rect class="cls-21" x="154.12" y="181.75" width="14.19" height="3.11"/><rect class="cls-22" x="173.63" y="175.75" width="11.53" height="60.29" transform="translate(-32.69 33.87) rotate(-9.89)"/><rect class="cls-23" x="170.78" y="188.19" width="11.53" height="2.71" transform="translate(-29.93 33.13) rotate(-9.89)"/><rect class="cls-24" x="134.61" y="161.56" width="17.73" height="75.37"/><rect class="cls-25" x="134.61" y="176.8" width="17.73" height="3.39"/></g><g id="Ur"><circle class="cls-26" cx="1456.5" cy="161.5" r="59.5"/><circle class="cls-27" cx="1456.5" cy="161.5" r="49.5"/><rect class="cls-26" x="1496" y="156" width="4" height="12" transform="translate(1336 1660) rotate(-90)"/><rect class="cls-26" x="1447.88" y="125.56" width="4" height="37.11" transform="translate(2854.58 -242.82) rotate(158.92)"/><rect class="cls-26" x="1466.17" y="145.96" width="4" height="25.2" transform="translate(1741.21 1609.8) rotate(-106.82)"/><rect class="cls-26" x="1413" y="156" width="4" height="12" transform="translate(1253 1577) rotate(-90)"/><rect class="cls-26" x="1453" y="158" width="8" height="8" rx="4" ry="4" transform="translate(1295 1619) rotate(-90)"/><rect class="cls-26" x="1455" y="115" width="4" height="12"/><rect class="cls-26" x="1455" y="197" width="4" height="12"/></g></svg>
