<?xml version="1.0" encoding="utf-8"?>
<!-- Generator: Adobe Illustrator 21.1.0, SVG Export Plug-In . SVG Version: 6.00 Build 0)  -->
<svg version="1.1" xmlns="http://www.w3.org/2000/svg" xmlns:xlink="http://www.w3.org/1999/xlink" x="0px" y="0px"
	 viewBox="0 0 1600 900" style="enable-background:new 0 0 1600 900;" xml:space="preserve">
<style type="text/css">
	.st0{fill:#D3CCC7;}
	.st1{fill:#B9C6C1;}
	.st2{fill:#B5A286;}
	.st3{fill:#8C7E6C;}
	.st4{fill:#875533;}
	.st5{fill:#A57453;}
	.st6{fill:#603D26;}
	.st7{fill:#754C30;}
	.st8{fill:#70472B;}
	.st9{fill:#9E5A4C;}
	.st10{fill:#915140;}
	.st11{fill:#72392E;}
	.st12{fill:#587F33;}
	.st13{fill:none;stroke:#405E20;stroke-linecap:round;stroke-miterlimit:10;}
	.st14{fill:#405E20;}
	.st15{fill:#333333;}
	.st16{fill:#383736;}
	.st17{fill:#E5B65A;}
	.st18{fill:#CE5F13;}
	.st19{fill:#73B75A;}
	.st20{fill:#327018;}
	.st21{fill:#528DAA;}
	.st22{fill:#265568;}
	.st23{fill:#686868;}
	.st24{fill:#ABB7A5;}
	.st25{fill:#353535;}
	.st26{fill:#FFFFFF;}
	.st27{fill:#D3DDDC;stroke:#A6B2B1;stroke-width:2;stroke-miterlimit:10;}
	.st28{fill:#E6EDED;}
	.st29{fill:#E3E5E5;}
	.st30{fill:#D7E0DF;stroke:#A6B2B1;stroke-width:2;stroke-miterlimit:10;}
</style>
<g id="Layer_1">
	<title>scenografi</title>
	<g id="Gulv">
		<rect y="513" class="st0" width="1600" height="387"/>
	</g>
	<g id="Væg">
		<rect class="st1" width="1600" height="524"/>
		<rect y="503" class="st2" width="1600" height="21"/>
		<rect x="1" y="501" class="st3" width="1600" height="3"/>
	</g>
	<g id="Bord">
		<rect x="487.3" y="853" class="st4" width="22.6" height="71"/>
		<polygon class="st5" points="509.9,853 512.1,847 512.1,920 509.9,924 		"/>
		<rect x="1091.1" y="856" class="st4" width="22.6" height="71"/>
		<polygon class="st5" points="1091.1,856 1088.9,850 1088.9,923 1091.1,927 		"/>
		<polygon class="st4" points="1125,841.9 476,841.9 578.5,647 1022.5,647 		"/>
		<rect x="476" y="841.9" class="st6" width="649" height="15.6"/>
	</g>
	<g id="Kateder">
		<polygon class="st7" points="377,630 402,587 401,446 377,481 		"/>
		<polygon class="st4" points="391,475 -110,475 -110,441 413,441 		"/>
		<rect y="486" class="st4" width="377" height="144"/>
		<rect x="-133" y="475" class="st6" width="524" height="11"/>
		<polygon class="st8" points="391,486 413,452 413,441 391,475 		"/>
	</g>
	<g id="Layer_8">
		<path class="st9" d="M320,415.7h39.2l-4.7,37.7c0,0-10.2,3.1-29,0L320,415.7z"/>
		<path class="st10" d="M362.3,408.8h-45.4l1.5,7.7c0,0,6.7,3,20.8,3.1h0.8c14.1-0.1,20.8-3.1,20.8-3.1L362.3,408.8z"/>
		<ellipse class="st11" cx="339.6" cy="408.8" rx="22.7" ry="5.4"/>
		<path class="st12" d="M338.6,411.1c-1.5,0-2.8-0.9-3.3-2.3c-4.7-12.4-25.8-71-3.7-72.4c21.6-1.4,16.5,57.2,15,71.5
			c-0.2,1.8-1.7,3.1-3.5,3.1H338.6z"/>
		<path class="st12" d="M329.1,367.2c0,0-33.5-12.1-28.6,3s37,0,37,0l9.8,3.6c0,0,34.2-3,24.5,6.6s-31.5-4.8-31.5-4.8"/>
		<path class="st13" d="M329.8,341c0,0-9.2,6.7,9.2,62"/>
		<path class="st13" d="M304,371.2c0,0,1.6,3.3,20.2,0.6"/>
		<path class="st13" d="M333.5,340.3c0,0,10.8,3.7,9.3,62"/>
		<path class="st14" d="M305.1,362l0.2,0c0.1,0,0.3,0.1,0.3,0.2l0.4,2.5c0,0.1-0.1,0.3-0.2,0.3l-0.2,0c-0.1,0-0.3-0.1-0.3-0.2
			l-0.4-2.5C304.8,362.2,304.9,362,305.1,362z"/>
		<path class="st14" d="M316.4,362.4l0.2,0.2c0.1,0.1,0.1,0.3,0,0.4l-1.9,1.7c-0.1,0.1-0.3,0.1-0.4,0l-0.2-0.2
			c-0.1-0.1-0.1-0.3,0-0.4l1.9-1.7C316.2,362.3,316.3,362.3,316.4,362.4z"/>
		<path class="st14" d="M310.1,375l0.2,0c0.1,0,0.3,0.1,0.3,0.2l0.4,2.5c0,0.1-0.1,0.3-0.2,0.3l-0.2,0c-0.1,0-0.3-0.1-0.3-0.2
			l-0.4-2.5C309.8,375.2,309.9,375,310.1,375z"/>
		<path class="st14" d="M308.9,368l0.1-0.2c0.1-0.1,0.2-0.2,0.4-0.1l2.3,1c0.1,0.1,0.2,0.2,0.1,0.4l-0.1,0.2
			c-0.1,0.1-0.2,0.2-0.4,0.1l-2.3-1C308.9,368.3,308.9,368.1,308.9,368z"/>
		<path class="st14" d="M351.1,373l0.2,0c0.1,0,0.3,0.1,0.3,0.2l0.4,2.5c0,0.1-0.1,0.3-0.2,0.3l-0.2,0c-0.1,0-0.3-0.1-0.3-0.2
			l-0.4-2.5C350.8,373.2,350.9,373,351.1,373z"/>
		<path class="st14" d="M340.3,338.3l0.2,0c0.1,0,0.3,0.1,0.3,0.2l0.4,2.5c0,0.1-0.1,0.3-0.2,0.3l-0.2,0c-0.1,0-0.3-0.1-0.3-0.2
			l-0.4-2.5C340.1,338.5,340.2,338.4,340.3,338.3z"/>
		<path class="st14" d="M330.9,361.4l0-0.2c0-0.1,0.2-0.2,0.3-0.2l2.5,0.5c0.1,0,0.2,0.2,0.2,0.3l0,0.2c0,0.1-0.2,0.2-0.3,0.2
			l-2.5-0.5C330.9,361.7,330.8,361.5,330.9,361.4z"/>
		<path class="st14" d="M334.8,353l-0.2-0.1c-0.1-0.1-0.2-0.2-0.1-0.4l1.1-2.3c0.1-0.1,0.2-0.2,0.4-0.1l0.2,0.1
			c0.1,0.1,0.2,0.2,0.1,0.4l-1.1,2.3C335.1,353,335,353,334.8,353z"/>
		<path class="st14" d="M346.5,359.8l-0.2-0.2c-0.1-0.1-0.1-0.3,0-0.4l1.7-1.9c0.1-0.1,0.3-0.1,0.4,0l0.2,0.2c0.1,0.1,0.1,0.3,0,0.4
			l-1.7,1.9C346.8,359.9,346.6,359.9,346.5,359.8z"/>
		<path class="st14" d="M348.8,391l0.1,0.2c0,0.1,0,0.3-0.2,0.3l-2.4,0.7c-0.1,0-0.3,0-0.3-0.2l-0.1-0.2c0-0.1,0-0.3,0.2-0.3
			l2.4-0.7C348.6,390.7,348.8,390.8,348.8,391z"/>
		<path class="st14" d="M348.8,400l0.1,0.2c0,0.1,0,0.3-0.2,0.3l-2.4,0.7c-0.1,0-0.3,0-0.3-0.2l-0.1-0.2c0-0.1,0-0.3,0.2-0.3
			l2.4-0.7C348.6,399.7,348.8,399.8,348.8,400z"/>
		<path class="st14" d="M335.9,406.9l-0.1,0.2c0,0.1-0.2,0.2-0.3,0.2l-2.4-0.8c-0.1,0-0.2-0.2-0.2-0.3l0.1-0.2
			c0-0.1,0.2-0.2,0.3-0.2l2.4,0.8C335.9,406.6,336,406.8,335.9,406.9z"/>
		<path class="st14" d="M328.8,388l0.1,0.2c0,0.1,0,0.3-0.2,0.3l-2.4,0.7c-0.1,0-0.3,0-0.3-0.2l-0.1-0.2c0-0.1,0-0.3,0.2-0.3
			l2.4-0.7C328.6,387.7,328.8,387.8,328.8,388z"/>
		<path class="st14" d="M329,382.7l0,0.2c0,0.1-0.2,0.2-0.3,0.2l-2.5-0.4c-0.1,0-0.2-0.2-0.2-0.3l0-0.2c0-0.1,0.2-0.2,0.3-0.2
			l2.5,0.4C328.9,382.4,329,382.6,329,382.7z"/>
		<path class="st14" d="M337.5,385l0.2,0c0.1,0,0.3,0.2,0.2,0.3l-0.4,2.5c0,0.1-0.2,0.3-0.3,0.2l-0.2,0c-0.1,0-0.3-0.2-0.2-0.3
			l0.4-2.5C337.2,385.1,337.3,385,337.5,385z"/>
		<path class="st14" d="M319.9,353.4l0-0.2c0-0.1,0.2-0.2,0.3-0.2l2.5,0.5c0.1,0,0.2,0.2,0.2,0.3l0,0.2c0,0.1-0.2,0.2-0.3,0.2
			l-2.5-0.5C319.9,353.7,319.8,353.5,319.9,353.4z"/>
		<path class="st14" d="M355.9,381.1l0,0.2c0,0.1-0.1,0.3-0.2,0.3l-2.5,0.5c-0.1,0-0.3-0.1-0.3-0.2l0-0.2c0-0.1,0.1-0.3,0.2-0.3
			l2.5-0.5C355.7,380.9,355.8,381,355.9,381.1z"/>
		<path class="st14" d="M372.9,380.8l-0.1,0.2c0,0.1-0.2,0.2-0.3,0.2l-2.5-0.6c-0.1,0-0.2-0.2-0.2-0.3l0.1-0.2
			c0-0.1,0.2-0.2,0.3-0.2l2.5,0.6C372.9,380.5,373,380.6,372.9,380.8z"/>
		<path class="st14" d="M361.9,372l0.2,0.1c0.1,0.1,0.2,0.2,0.1,0.4l-1,2.3c-0.1,0.1-0.2,0.2-0.4,0.1l-0.2-0.1
			c-0.1-0.1-0.2-0.2-0.1-0.4l1-2.3C361.6,372.1,361.8,372,361.9,372z"/>
		<path class="st14" d="M323.4,339.4l0.2-0.1c0.1-0.1,0.3-0.1,0.4,0.1l1.5,2c0.1,0.1,0.1,0.3-0.1,0.4l-0.2,0.1
			c-0.1,0.1-0.3,0.1-0.4-0.1l-1.5-2C323.2,339.6,323.2,339.5,323.4,339.4z"/>
		<path class="st13" d="M369.2,377.2c0,0-1.6,3.3-20.2,0.6"/>
	</g>
	<g id="Tavle">
		<path class="st4" d="M543.2,90.2h514.5c3.4,0,6.2,2.8,6.2,6.2v298.2c0,3.4-2.8,6.2-6.2,6.2H543.2c-3.4,0-6.2-2.8-6.2-6.2V96.4
			C537,92.9,539.8,90.2,543.2,90.2z"/>
		<rect x="554" y="107" class="st15" width="493" height="279"/>
		<polygon class="st16" points="1047,107 554,386 1047,386 		"/>
		<rect x="554" y="378.2" class="st6" width="493" height="7.8"/>
	</g>
	<g id="Reol">
		<path class="st4" d="M85.2,119h248.7c0.6,0,1.1,0.5,1.1,1.1v130.8c0,0.6-0.5,1.1-1.1,1.1H85.2c-0.6,0-1.1-0.5-1.1-1.1V120.1
			C84.1,119.5,84.6,119,85.2,119z"/>
		<rect x="100" y="134.1" class="st6" width="219" height="102.9"/>
		<path class="st17" d="M100.9,158H116c0.5,0,0.9,0.4,0.9,0.9v77.2c0,0.5-0.4,0.9-0.9,0.9h-15.1c-0.5,0-0.9-0.4-0.9-0.9v-77.2
			C100,158.4,100.4,158,100.9,158z"/>
		<rect x="100" y="174" class="st18" width="16.8" height="3.6"/>
		<rect x="118.7" y="174" class="st19" width="14.2" height="62.9"/>
		<rect x="118.7" y="186.7" class="st20" width="14.2" height="2.8"/>
		<rect x="154.1" y="167.8" class="st19" width="14.2" height="69.2"/>
		<rect x="154.1" y="181.8" class="st20" width="14.2" height="3.1"/>

			<rect x="173.6" y="175.7" transform="matrix(0.9851 -0.1718 0.1718 0.9851 -32.6975 33.8735)" class="st21" width="11.5" height="60.3"/>

			<rect x="170.8" y="188.2" transform="matrix(0.9851 -0.1718 0.1718 0.9851 -29.9304 33.1399)" class="st22" width="11.5" height="2.7"/>
		<rect x="134.6" y="161.6" class="st23" width="17.7" height="75.4"/>
		<rect x="134.6" y="176.8" class="st24" width="17.7" height="3.4"/>
	</g>
	<g id="Ur">
		<circle class="st25" cx="1456.5" cy="161.5" r="59.5"/>
		<circle class="st26" cx="1456.5" cy="161.5" r="49.5"/>
		<rect x="1492" y="160" class="st25" width="12" height="4"/>

			<rect x="1447.9" y="125.6" transform="matrix(0.9331 -0.3597 0.3597 0.9331 45.1674 531.1341)" class="st25" width="4" height="37.1"/>

			<rect x="1455.5" y="156.6" transform="matrix(0.9572 -0.2894 0.2894 0.9572 16.928 431.6154)" class="st25" width="25.2" height="4"/>
		<rect x="1409" y="160" class="st25" width="12" height="4"/>
		<path class="st25" d="M1453,162L1453,162c0-2.2,1.8-4,4-4l0,0c2.2,0,4,1.8,4,4l0,0c0,2.2-1.8,4-4,4l0,0
			C1454.8,166,1453,164.2,1453,162z"/>
		<rect x="1455" y="115" class="st25" width="4" height="12"/>
		<rect x="1455" y="197" class="st25" width="4" height="12"/>
	</g>
</g>
<g id="skraldespand">
	<ellipse class="st27" cx="1466.5" cy="456.3" rx="58.4" ry="7.1"/>
	<g>
		<polygon class="st26" points="1424.7,427.1 1429.6,415.3 1471.9,476.2 		"/>
		<polygon class="st28" points="1408.6,430.9 1425.4,426.5 1474.3,477.3 1421.6,434.2 		"/>
		<polygon class="st26" points="1420.4,440.3 1416.3,451.6 1474.3,477.3 1421.6,434.2 		"/>
		<polygon class="st29" points="1408.6,430.9 1420.4,440.3 1421.6,434.2 		"/>
	</g>
	<path class="st30" d="M1429.6,573.4c0,0,43,13.7,71.1,0l24-115.2c0,0-45.4,13.9-116.7,0L1429.6,573.4z"/>
</g>
</svg>
