<svg xmlns="http://www.w3.org/2000/svg" width="1600" height="900" viewBox="0 0 1600 900">
  <defs>
    <style>
      .cls-1 {
        fill: #4c4c4c;
      }

      .cls-2 {
        fill: #727272;
      }

      .cls-3 {
        fill: #848484;
      }

      .cls-4 {
        fill: #5b5b5b;
      }
    </style>
  </defs>
  <title>scene_2</title>
  <g id="Layer_3" data-name="Layer 3">
    <polygon class="cls-1" points="2905 938 -1193 938 -545.95 -2.06 2257.95 -2.06 2905 938"/>
    <g>
      <path class="cls-2" d="M1568.1,204.1h-986a11.47,11.47,0,0,1-11.47-11.47V165.12h1009v27.52A11.47,11.47,0,0,1,1568.1,204.1Z"/>
      <path class="cls-3" d="M1568,176.59H582.2A11.47,11.47,0,0,1,571.93,160L703.6-105.47h743L1578.23,160A11.47,11.47,0,0,1,1568,176.59Z"/>
      <polygon class="cls-4" points="1478.67 50.47 671.49 50.47 731.11 -80.24 1419.05 -80.24 1478.67 50.47"/>
    </g>
  </g>
</svg>
