<svg xmlns="http://www.w3.org/2000/svg" width="93.14" height="35" viewBox="0 0 93.14 35"><defs><style>.cls-1{opacity:0.8;}.cls-2{fill:#fff;}</style></defs><title>Asset 24</title><g id="Layer_2" data-name="Layer 2"><g id="Taleboble2"><g class="cls-1"><rect class="cls-2" width="93.14" height="35" rx="4.5" ry="4.5" transform="translate(93.14 35) rotate(-180)"/></g><path d="M20.06,23.29H18.55l-5.72-8.77v8.77H11.32V11.91h1.51l5.74,8.81V11.91h1.49Z"/><path d="M25.27,21.17l2-6.34h1.55l-3.4,9.76C24.86,26,24,26.7,22.87,26.7l-.27,0-.54-.1V25.4l.39,0a1.94,1.94,0,0,0,1.15-.29,2.13,2.13,0,0,0,.67-1.09l.32-.86-3-8.36h1.58Z"/><path d="M41.19,19.15a5.07,5.07,0,0,1-.89,3.12,2.86,2.86,0,0,1-2.39,1.17,3,3,0,0,1-2.48-1.13l-.07,1H34v-12h1.45v4.47a2.92,2.92,0,0,1,2.41-1.08,2.85,2.85,0,0,1,2.42,1.16A5.23,5.23,0,0,1,41.19,19ZM39.74,19a3.88,3.88,0,0,0-.57-2.28,1.89,1.89,0,0,0-1.64-.81,2.12,2.12,0,0,0-2.05,1.33v3.66a2.19,2.19,0,0,0,2.07,1.33,1.86,1.86,0,0,0,1.61-.81A4.09,4.09,0,0,0,39.74,19Z"/><path d="M46.52,23.44a3.67,3.67,0,0,1-2.8-1.13,4.18,4.18,0,0,1-1.08-3V19a5.09,5.09,0,0,1,.48-2.25,3.74,3.74,0,0,1,1.34-1.54,3.34,3.34,0,0,1,1.88-.56,3.18,3.18,0,0,1,2.56,1.08,4.71,4.71,0,0,1,.91,3.11v.6H44.09a3,3,0,0,0,.73,2,2.25,2.25,0,0,0,1.77.77,2.5,2.5,0,0,0,1.3-.31,3.31,3.31,0,0,0,.93-.83l.88.69A3.54,3.54,0,0,1,46.52,23.44Zm-.18-7.58a1.93,1.93,0,0,0-1.47.64,3.13,3.13,0,0,0-.74,1.79h4.24v-.11a2.7,2.7,0,0,0-.6-1.71A1.81,1.81,0,0,0,46.34,15.86Z"/><path d="M56.41,21a1.06,1.06,0,0,0-.45-.91,4.19,4.19,0,0,0-1.53-.55A7.31,7.31,0,0,1,52.68,19a2.53,2.53,0,0,1-1-.78,1.83,1.83,0,0,1-.31-1.08,2.17,2.17,0,0,1,.88-1.75,3.45,3.45,0,0,1,2.25-.72,3.52,3.52,0,0,1,2.33.74,2.34,2.34,0,0,1,.89,1.9H56.32a1.33,1.33,0,0,0-.5-1,1.93,1.93,0,0,0-1.27-.43,2,2,0,0,0-1.24.35,1.1,1.1,0,0,0-.44.9.87.87,0,0,0,.41.79,5.42,5.42,0,0,0,1.5.5,7.94,7.94,0,0,1,1.75.58,2.69,2.69,0,0,1,1,.81,2,2,0,0,1,.32,1.15,2.17,2.17,0,0,1-.9,1.82,3.86,3.86,0,0,1-2.36.68,4.24,4.24,0,0,1-1.79-.36,3,3,0,0,1-1.23-1,2.47,2.47,0,0,1-.44-1.4h1.45a1.5,1.5,0,0,0,.58,1.16,2.27,2.27,0,0,0,1.43.42,2.35,2.35,0,0,0,1.32-.33A1,1,0,0,0,56.41,21Z"/><path d="M62.09,19.37l-.9.95v3H59.74v-12h1.45v7.25l.77-.93,2.63-2.78h1.76l-3.29,3.53,3.67,4.93H65Z"/><path d="M71.2,23.44a3.67,3.67,0,0,1-2.8-1.13,4.18,4.18,0,0,1-1.08-3V19a5.09,5.09,0,0,1,.48-2.25,3.74,3.74,0,0,1,1.34-1.54A3.34,3.34,0,0,1,71,14.68a3.18,3.18,0,0,1,2.56,1.08,4.71,4.71,0,0,1,.91,3.11v.6H68.77a3,3,0,0,0,.73,2,2.25,2.25,0,0,0,1.77.77,2.5,2.5,0,0,0,1.3-.31,3.31,3.31,0,0,0,.93-.83l.88.69A3.54,3.54,0,0,1,71.2,23.44ZM71,15.86a1.93,1.93,0,0,0-1.47.64,3.13,3.13,0,0,0-.74,1.79h4.24v-.11a2.76,2.76,0,0,0-.6-1.71A1.81,1.81,0,0,0,71,15.86Z"/><path d="M75.81,19a5,5,0,0,1,.92-3.13,3.15,3.15,0,0,1,4.77-.17v-4.4H83v12H81.62l-.07-.91a3,3,0,0,1-2.42,1.06,2.88,2.88,0,0,1-2.39-1.2,5,5,0,0,1-.93-3.14Zm1.45.16a3.78,3.78,0,0,0,.59,2.25,1.91,1.91,0,0,0,1.64.82,2.12,2.12,0,0,0,2-1.24V17.1a2.12,2.12,0,0,0-2-1.2,2,2,0,0,0-1.66.82A4.19,4.19,0,0,0,77.26,19.15Z"/></g></g></svg>
