<svg xmlns="http://www.w3.org/2000/svg" width="527" height="310.69" viewBox="0 0 527 310.69"><defs><style>.cls-1{fill:#a5a5a5;}.cls-2{fill:#c4c4c4;}.cls-3{fill:#7c7c7c;}.cls-4{fill:#b5b5b5;}.cls-5{fill:#db5252;stroke:#b23d3d;}.cls-5,.cls-6,.cls-7{stroke-miterlimit:10;stroke-width:0.25px;}.cls-6{fill:#e2b15a;stroke:#c6974a;}.cls-7{fill:#5cb543;stroke:#50a555;}.cls-8{fill:#202531;}.cls-9{fill:#f09637;}.cls-10{fill:#d3d3d3;}.cls-11{fill:#152230;}.cls-12{fill:#f2902c;}.cls-13{fill:#fff;}</style></defs><title>Asset 8</title><g id="Layer_2" data-name="Layer 2"><g id="Tavle"><rect class="cls-1" width="527" height="310.69" rx="5.96" ry="5.96"/><rect class="cls-2" x="17" y="16.85" width="493" height="279"/><rect class="cls-3" x="17" y="288.02" width="493" height="7.83"/><rect class="cls-4" x="17" y="16.77" width="493" height="19.08"/><circle class="cls-5" cx="28.78" cy="26.55" r="3.37"/><circle class="cls-6" cx="40.56" cy="26.55" r="3.37"/><circle class="cls-7" cx="52.33" cy="26.55" r="3.37"/><rect class="cls-8" x="17" y="35.85" width="493" height="35"/><rect class="cls-9" x="17" y="70.85" width="493" height="14"/><rect class="cls-10" x="17" y="84.85" width="493" height="133"/><path class="cls-11" d="M391.05,233.07a4.59,4.59,0,0,0-1.24.86c-1.42,1.07-2.82,2.15-4.23,3.23-.11.08-.21.25-.37.18s-.12-.29-.12-.44c0-2.18,0-4.36,0-6.55,0-.51-.16-.61-.63-.6-1.39,0-2.77,0-4.16,0a2.89,2.89,0,0,1-2.92-3c0-8,0-15.93,0-23.9a3.15,3.15,0,0,1,3.31-3.3q43.83.06,87.66,0a2.88,2.88,0,0,1,3,3v24.12a2.91,2.91,0,0,1-2.39,3l-.94,0H395.86a1.57,1.57,0,0,0-1.11.35c-.71.59-1.49,1.09-2.2,1.68A6.61,6.61,0,0,0,391.05,233.07Z"/><path class="cls-12" d="M391.05,233.07a6.33,6.33,0,0,1,1.5-1.28c.71-.59,1.49-1.09,2.2-1.68a1.56,1.56,0,0,1,1.12-.36H469c.18.33.56.3.84.47a2.87,2.87,0,0,1,1.39,2.54c0,8,0,16,0,23.95a3.13,3.13,0,0,1-3.21,3.22q-21.4,0-42.81,0c-5.16,0-10.32,0-15.47,0a2.32,2.32,0,0,0-1.51.53q-3.62,2.81-7.26,5.59c-.56.43-1.12.83-1.68,1.25-.35.27-.47.18-.47-.24q0-3.13,0-6.27c0-.84,0-.85-.83-.85-1.26,0-2.52,0-3.77,0a3,3,0,0,1-3.15-3.17c0-7.7,0-15.41,0-23.12C391.06,233.44,391.05,233.26,391.05,233.07Z"/><path class="cls-13" d="M393.43,222.47h-4.05v-15.6h6.45a5.52,5.52,0,0,1,4,1.37,6,6,0,0,1,0,7.69,5.52,5.52,0,0,1-4,1.37h-2.4Zm0-8.44h1.35c1.49,0,2.23-.65,2.23-1.95s-.74-1.94-2.23-1.94h-1.35Z"/><path class="cls-13" d="M415.58,222.47h-5.05l-3.87-6v6h-4.05v-15.6h6.3a6.11,6.11,0,0,1,2.28.38,4.28,4.28,0,0,1,2.55,2.58,5.13,5.13,0,0,1,.32,1.86,4.53,4.53,0,0,1-.86,2.88,4.28,4.28,0,0,1-2.53,1.5Zm-8.92-8.63h.77a3,3,0,0,0,1.84-.49,1.92,1.92,0,0,0,0-2.86,3,3,0,0,0-1.84-.5h-.76Z"/><path class="cls-13" d="M420.87,206.87v15.6h-4.05v-15.6Z"/><path class="cls-13" d="M426.45,206.87l3.77,9.49,3.78-9.49h4.41l-6.58,15.6H428.6l-6.55-15.6Z"/><path class="cls-13" d="M447.23,219.87h-5.79l-.93,2.71h-4.33l5.94-15.6h4.42l5.94,15.6h-4.33Zm-1.08-3.08-1.82-5.2-1.82,5.2Z"/><path class="cls-13" d="M458.48,210.41v12.17h-4.05V210.41H451.1V207h10.71v3.44Z"/><path class="cls-13" d="M411.6,240.88a5.06,5.06,0,0,0-1.32-.8,3.7,3.7,0,0,0-1.28-.26,2,2,0,0,0-1.27.38,1.14,1.14,0,0,0-.5,1,1,1,0,0,0,.25.68,2,2,0,0,0,.65.46,5.5,5.5,0,0,0,.91.34l1,.31a6.21,6.21,0,0,1,2.9,1.77,4.34,4.34,0,0,1,.92,2.87,5.76,5.76,0,0,1-.4,2.17,4.55,4.55,0,0,1-1.18,1.66,5.52,5.52,0,0,1-1.9,1.08,8.13,8.13,0,0,1-2.55.38,9.32,9.32,0,0,1-5.46-1.76l1.73-3.26a6.93,6.93,0,0,0,1.79,1.2,4.26,4.26,0,0,0,1.76.39,2.09,2.09,0,0,0,1.47-.45,1.4,1.4,0,0,0,.36-1.64,1.46,1.46,0,0,0-.41-.48,3.44,3.44,0,0,0-.76-.4c-.3-.12-.68-.26-1.12-.41s-1-.35-1.54-.55a5,5,0,0,1-1.34-.79,3.82,3.82,0,0,1-.93-1.25,4.46,4.46,0,0,1-.36-1.91,5.58,5.58,0,0,1,.38-2.1,4.69,4.69,0,0,1,1.07-1.6,4.8,4.8,0,0,1,1.69-1,6.58,6.58,0,0,1,2.24-.37,10.35,10.35,0,0,1,2.41.32,10.86,10.86,0,0,1,2.41.94Z"/><path class="cls-13" d="M415.38,252.45V236.9h4l7.47,9.5v-9.5h4v15.55h-4l-7.47-9.51v9.51Z"/><path class="cls-13" d="M442.73,249.75H437l-.92,2.7h-4.32l5.92-15.55h4.42L448,252.45h-4.31Zm-1.07-3.08-1.82-5.17L438,246.67Z"/><path class="cls-13" d="M452.78,243.31l4.93-6.41h5l-6.17,7.36,6.74,8.19H458l-5.26-6.75v6.75h-4V236.9h4Z"/></g></g></svg>
