<svg xmlns="http://www.w3.org/2000/svg" width="527" height="310.69" viewBox="0 0 527 310.69"><defs><style>.cls-1{fill:#a5a5a5;}.cls-2{fill:#c4c4c4;}.cls-3{fill:#7c7c7c;}.cls-4{fill:#b5b5b5;}.cls-5{fill:#db5252;stroke:#b23d3d;}.cls-5,.cls-6,.cls-7{stroke-miterlimit:10;stroke-width:0.25px;}.cls-6{fill:#e2b15a;stroke:#c6974a;}.cls-7{fill:#5cb543;stroke:#50a555;}.cls-8{fill:#202531;}.cls-9{fill:#f09637;}.cls-10{fill:#d3d3d3;}</style></defs><title>Asset 7</title><g id="Layer_2" data-name="Layer 2"><g id="Tavle"><rect class="cls-1" width="527" height="310.69" rx="5.96" ry="5.96"/><rect class="cls-2" x="17" y="16.85" width="493" height="279"/><rect class="cls-3" x="17" y="288.02" width="493" height="7.83"/><rect class="cls-4" x="17" y="16.77" width="493" height="19.08"/><circle class="cls-5" cx="28.78" cy="26.55" r="3.37"/><circle class="cls-6" cx="40.56" cy="26.55" r="3.37"/><circle class="cls-7" cx="52.33" cy="26.55" r="3.37"/><rect class="cls-8" x="17" y="35.85" width="493" height="35"/><rect class="cls-9" x="17" y="70.85" width="493" height="14"/><rect class="cls-10" x="17" y="84.85" width="493" height="133"/><rect class="cls-9" x="433" y="126.85" width="53" height="20" rx="1.76" ry="1.76"/><polygon class="cls-9" points="441 145.85 441 151.85 449 145.85 441 145.85"/><rect class="cls-8" x="425" y="106.85" width="61" height="20.82" rx="1.76" ry="1.76"/><polygon class="cls-8" points="430 126.36 430 132.61 439.21 126.36 430 126.36"/></g></g></svg>
