<svg xmlns="http://www.w3.org/2000/svg" xmlns:xlink="http://www.w3.org/1999/xlink" viewBox="0 0 3076.75 4716.82"><defs><style>.cls-1{fill:#fc9;}.cls-2{fill:none;}.cls-3{fill:#fff;}.cls-4{fill:#383838;}</style><symbol id="New_Symbol" data-name="New Symbol" viewBox="0 0 768 1182"><path class="cls-1" d="M313,278.34l.66-38.12c.12-6.77,5.11-12.58,1.46-18.28L303,197.22c-11-23.52-13.93-42.66,0-64.54h0a4.89,4.89,0,0,1,8.06-.28l57.48,77.89a240,240,0,0,1,41.48,91.84l6.63,30.75Z"/><rect class="cls-2" width="768" height="1182"/></symbol><symbol id="New_Symbol_1" data-name="New Symbol 1" viewBox="0 0 768 1182"><rect class="cls-2" width="768" height="1182"/><path class="cls-1" d="M320.55,273.26l5.7-37.68c1-6.7,6.73-11.8,3.86-17.94l-8.71-26.1c-7.76-24.76-8.16-44.12,8.56-64h0a4.89,4.89,0,0,1,8,.79l46.67,84.82a240,240,0,0,1,28.95,96.52l2.51,31.35Z"/></symbol><symbol id="New_Symbol_2" data-name="New Symbol 2" viewBox="0 0 768 1182"><g id="_Group_" data-name="&lt;Group&gt;"><path class="cls-1" d="M321.13,271.25c2-10.94,3.86-24.38,5.84-34.62,1.4-7.28,5.37-10.35,3.33-16.62-6.17-12.43-3.85-9.3-12.54-25.16s-16-39.74-2.83-59.7h0c1.75-2.64,5.55-4.26,8.24-1,19,23.3,45.25,52.22,60.1,75.81,20.85,33.11,25.43,60,30,96.55,1.06,8.45,1.56,21.54,2.77,30.95C384.57,315.24,353.4,292.49,321.13,271.25Z"/><rect class="cls-2" width="768" height="1182"/></g></symbol></defs><title>Asset 28</title><g id="Layer_2" data-name="Layer 2"><g id="Layer_4_copy_3" data-name="Layer 4 copy 3"><path class="cls-1" d="M248,537c2.31.81,13,1.09,13.7,3.43,49.17,160.86,118.53,371,169.2,449.63,2.69,4.17,5.6,8.44,5.6,8.44C475,1055.71,534.22,1095.14,607,1115c22,6,50.92,32.26,79.5,13.5,60.26-39.57,51.5-187.5,17.19-234.89-1.09-1.51-.82-3.52-1.19-5.11C701.85,885.71,562,663,403.77,443.21c-1.46-2,3.58-20.79,4.23-23.21C470.24,189.19,219,288,82,267c-39.3-6-22.81,96.77,31,174C149.33,493.15,213.38,524.84,248,537Z"/><path class="cls-1" d="M230.26,313.27h0c-14,11.11-37.92,4.51-53.16-14.68,0,0-149.33-211.49-135.33-222.61h0c14-11.12,37.92-4.52,53.17,14.68L228,258.16C243.24,277.35,244.26,302.15,230.26,313.27Z"/><rect x="69" y="51" width="239" height="436" rx="20.5" ry="20.5" transform="translate(-2.58 1.83) rotate(-0.55)"/><rect class="cls-3" x="85.51" y="87.39" width="205.8" height="362.38"/><circle class="cls-4" cx="190.01" cy="469.49" r="15.5"/><rect class="cls-2" width="768" height="1182"/><ellipse class="cls-1" cx="75.5" cy="1400" rx="25.5" ry="34" transform="translate(-386.23 76.18) rotate(-16.14)"/><path class="cls-1" d="M96.45,1457.92c12.21,19.18,12.1,41.09-.25,48.95s-32.25-1.31-44.46-20.49S43.65,1452.86,56,1445,84.24,1438.74,96.45,1457.92Z"/><path class="cls-1" d="M82.45,1512.92c12.21,19.18,12.1,41.09-.25,48.95s-32.25-1.31-44.46-20.49S29.65,1507.86,42,1500,70.24,1493.74,82.45,1512.92Z"/><rect class="cls-2" x="2" y="1182" width="768" height="1182"/><path class="cls-1" d="M313.35,2646.34l.67-38.12c.11-6.77,5.11-12.58,1.45-18.28l-12.08-24.72c-11-23.52-13.93-42.66,0-64.54h0a4.9,4.9,0,0,1,8.07-.28L369,2578.29a240,240,0,0,1,41.47,91.84l6.63,30.75Z"/><rect class="cls-2" x="0.35" y="2368" width="768" height="1182"/><path class="cls-1" d="M1077,2750.77c-17-30-16.56-48.8-12.75-60.55,4.36-13.43,7.5-27.24,11.68-40.73a40,40,0,0,0,1.35-14.15c-.21-2.65-1-5.65-3.12-9.9-3.7-7.6,0-2-12.18-16s-31.45-42.39-24.39-69.95h0a5.74,5.74,0,0,1,2.76-4c2-.93,4.19.05,5,.43,10.13,4.46,61.62,51.44,76.21,61.9a128.31,128.31,0,0,1,16.89,14.25s3.32,3.23,6.48,7c9.09,10.82,36.5,53.08,42.48,72.23,2.49,8,1.16,17.7-.6,34.71-4-3.11-22.8-17.48-54.42-12.91C1096.62,2718.27,1079.13,2747.05,1077,2750.77Z"/><rect class="cls-2" x="769.82" y="2368" width="768" height="1182"/><path class="cls-1" d="M2618.51,2759.54c-13.26-14.06-20.13-38.35-16.55-55.11,3.06-14.32,5.79-22.82,7.1-33.75,1.11-9.16,1.78-10.5.81-12.23-2.51-4.46-19-2-31.12-2.45-4.47-.15-21.63,5-37-1-14.73-5.77-25.75-17.66-27.91-21-5.66-8.76-.71-18.46,1.17-19,39.36-11.77,76.47-19.6,118.75-14.11,5.22.68,18.15,4.18,25.37,10.26,1.5,1.26,4,1.31,10.48,7.86,18.6,18.89,41.81,49.31,52.67,75.78,4.52,11,2.69,22.73,2.63,34-19.41-8.46-38-11.47-59.14-7.18C2641.86,2726.44,2629.32,2740,2618.51,2759.54Z"/><rect class="cls-2" x="2308.75" y="2368" width="768" height="1182"/><path class="cls-1" d="M1871.57,2767.77c-17.64-7.28-33.56-27-39.22-42.76-4.83-13.48-7.7-25.89-12.61-34.38-4.12-7.13-2.11-10.43-7.4-12.72-13.63-5.9-24.31-2.18-42.09-2.67-6.53-.18-38.19-10.67-48-14.24a61.73,61.73,0,0,1-20.79-13.52c-7.24-7.87-.75-19.78,1.2-20.15,40.87-7.74,77.36-12.44,118.86-14.55,5.13-.26,17.83.76,26.49,4,1.8.68,4.3.17,12.64,3.79,24,10.42,56.33,24.2,77,44.57,8.58,8.47,11.54,19.43,16.26,29.79-20.83,2-37.48,5.45-54.71,18.85C1879.67,2729,1874.23,2743.54,1871.57,2767.77Z"/><rect class="cls-2" x="1539.28" y="2368" width="768" height="1182"/><use width="768" height="1182" transform="translate(0.35 3534.82)" xlink:href="#New_Symbol"/><use width="768" height="1182" transform="translate(767.82 3534.82)" xlink:href="#New_Symbol_1"/><use width="768" height="1182" transform="translate(1537.28 3534.82)" xlink:href="#New_Symbol_2"/></g></g></svg>
