<?xml version="1.0" encoding="utf-8"?>
<!-- Generator: Adobe Illustrator 21.1.0, SVG Export Plug-In . SVG Version: 6.00 Build 0)  -->
<svg version="1.1" id="Layer_1" xmlns="http://www.w3.org/2000/svg" xmlns:xlink="http://www.w3.org/1999/xlink" x="0px" y="0px"
	 viewBox="0 0 3076.8 3546" style="enable-background:new 0 0 3076.8 3546;" xml:space="preserve">
<style type="text/css">
	.st0{fill:#FFCC99;}
	.st1{fill:#FFFFFF;}
	.st2{fill:#383838;}
	.st3{fill:none;}
</style>
<symbol  id="New_Symbol" viewBox="-384 -591 768 1182">
	<path class="st0" d="M-136-54c2.3,0.8,13,1.1,13.7,3.4c49.2,160.9,118.5,371,169.2,449.6c2.7,4.2,5.6,8.4,5.6,8.4
		C91,464.7,150.2,504.1,223,524c22,6,50.9,32.3,79.5,13.5c60.3-39.6,51.5-187.5,17.2-234.9c-1.1-1.5-0.8-3.5-1.2-5.1
		C317.8,294.7,178,72,19.8-147.8c-1.5-2,3.6-20.8,4.2-23.2c62.2-230.8-189-132-326-153c-39.3-6-22.8,96.8,31,174
		C-234.7-97.9-170.6-66.2-136-54z"/>
	<path class="st0" d="M-153.7-277.7L-153.7-277.7c-14,11.1-37.9,4.5-53.2-14.7c0,0-149.3-211.5-135.3-222.6l0,0
		c14-11.1,37.9-4.5,53.2,14.7L-156-332.8C-140.8-313.6-139.7-288.9-153.7-277.7z"/>
	<path d="M-292.4-103.1l198-1.9c11.3-0.1,20.4-9.4,20.3-20.7c0,0,0,0,0,0l-3.8-395C-78-532-87.3-541.1-98.6-541c0,0,0,0,0,0l-198,2
		c-11.3,0.1-20.4,9.4-20.3,20.7c0,0,0,0,0,0l3.8,395C-313-112-303.7-102.9-292.4-103.1z"/>
	<rect x="-298.5" y="-503.6" class="st1" width="205.8" height="362.4"/>
	<circle class="st2" cx="-194" cy="-121.5" r="15.5"/>
	<rect x="-384" y="-591" class="st3" width="768" height="1182"/>
</symbol>
<symbol  id="New_Symbol_1" viewBox="-384 -591 768 1182">

		<ellipse transform="matrix(0.278 -0.9606 0.9606 0.278 134.1029 -567.5751)" class="st0" cx="-310.5" cy="-373" rx="34" ry="25.5"/>
	<path class="st0" d="M-289.5-315.1c12.2,19.2,12.1,41.1-0.2,49c-12.4,7.9-32.2-1.3-44.5-20.5c-12.3-19.2-8.1-33.5,4.3-41.4
		S-301.8-334.3-289.5-315.1z"/>
	<path class="st0" d="M-303.5-260.1c12.2,19.2,12.1,41.1-0.2,49c-12.4,7.9-32.2-1.3-44.5-20.5c-12.3-19.2-8.1-33.5,4.3-41.4
		S-315.8-279.3-303.5-260.1z"/>
	<rect x="-384" y="-591" class="st3" width="768" height="1182"/>
</symbol>
<symbol  id="New_Symbol_2" viewBox="-384 -591 768 1182">
	<path class="st0" d="M-71-312.7l0.7-38.1c0.1-6.8,5.1-12.6,1.5-18.3L-81-393.8c-11-23.5-13.9-42.7,0-64.5l0,0
		c1.4-2.3,4.5-3,6.8-1.5c0.5,0.3,1,0.7,1.3,1.2l57.5,77.9c20.2,27.3,34.3,58.6,41.5,91.8l6.6,30.8L-71-312.7z"/>
	<rect x="-384" y="-591" class="st3" width="768" height="1182"/>
</symbol>
<symbol  id="New_Symbol_3" viewBox="-384 -591 768 1182">
	<path class="st0" d="M-76.9-208.2c-17-30-16.5-48.8-12.7-60.5c4.4-13.4,7.5-27.2,11.7-40.7c1.3-4.6,1.7-9.4,1.4-14.1
		c-0.2-2.6-1-5.6-3.1-9.9c-3.7-7.6,0-2-12.2-16s-31.5-42.4-24.4-70l0,0c0.3-1.7,1.3-3.1,2.8-4c1.9-0.9,4.2,0,5,0.4
		c10.1,4.5,61.6,51.4,76.2,61.9c6,4.3,11.7,9,16.9,14.2c0,0,3.3,3.2,6.5,7c9.1,10.8,36.5,53.1,42.5,72.2c2.5,8,1.1,17.7-0.6,34.7
		c-4-3.1-22.8-17.5-54.4-12.9C-57.2-240.7-74.7-212-76.9-208.2z"/>
	<rect x="-384" y="-591" class="st3" width="768" height="1182"/>
</symbol>
<symbol  id="New_Symbol_4" viewBox="-384 -591 768 1182">
	<path class="st0" d="M-74.2-199.5c-13.2-14.1-20.1-38.4-16.5-55.1c3.1-14.3,5.8-22.8,7.1-33.8c1.1-9.2,1.8-10.5,0.8-12.2
		c-2.5-4.5-19-2-31.1-2.5c-4.5-0.1-21.6,5-37-1c-14.7-5.8-25.8-17.7-27.9-21c-5.7-8.8-0.7-18.5,1.2-19
		c39.4-11.8,76.5-19.6,118.8-14.1c5.2,0.7,18.2,4.2,25.4,10.3c1.5,1.3,4,1.3,10.5,7.9c18.6,18.9,41.8,49.3,52.7,75.8
		c4.5,11,2.7,22.7,2.6,34c-19.4-8.5-38-11.5-59.1-7.2C-50.9-232.6-63.4-219-74.2-199.5z"/>
	<rect x="-384" y="-591" class="st3" width="768" height="1182"/>
</symbol>
<symbol  id="New_Symbol_5" viewBox="-384 -591 768 1182">
	<path class="st0" d="M-51.7-191.2c-17.6-7.3-33.6-27-39.2-42.8c-4.8-13.5-7.7-25.9-12.6-34.4c-4.1-7.1-2.1-10.4-7.4-12.7
		c-13.6-5.9-24.3-2.2-42.1-2.7c-6.5-0.2-38.2-10.7-48-14.2c-7.8-3.1-14.8-7.7-20.8-13.5c-7.2-7.9-0.8-19.8,1.2-20.1
		c40.9-7.7,77.3-12.4,118.9-14.6c5.1-0.3,17.8,0.8,26.5,4c1.8,0.7,4.3,0.2,12.6,3.8c24,10.4,56.3,24.2,77,44.6
		c8.6,8.5,11.5,19.4,16.3,29.8c-20.8,2-37.5,5.5-54.7,18.9C-43.6-230-49-215.5-51.7-191.2z"/>
	<rect x="-384" y="-591" class="st3" width="768" height="1182"/>
</symbol>
<title>spritesheet_hand</title>
<use xlink:href="#New_Symbol"  width="768" height="1182" x="-384" y="-591" transform="matrix(1 0 0 1 384 591)" style="overflow:visible;"/>
<use xlink:href="#New_Symbol_1"  width="768" height="1182" x="-384" y="-591" transform="matrix(1 0 0 1 385.825 1773)" style="overflow:visible;"/>
<use xlink:href="#New_Symbol_2"  width="768" height="1182" x="-384" y="-591" transform="matrix(1 0 0 1 1923.105 2955)" style="overflow:visible;"/>
<use xlink:href="#New_Symbol_3"  width="768" height="1182" x="-384" y="-591" transform="matrix(1 0 0 1 1153.645 2955)" style="overflow:visible;"/>
<use xlink:href="#New_Symbol_4"  width="768" height="1182" x="-384" y="-591" transform="matrix(1 0 0 1 2692.575 2955)" style="overflow:visible;"/>
<use xlink:href="#New_Symbol_5"  width="768" height="1182" x="-384" y="-591" transform="matrix(1 0 0 1 384.175 2955)" style="overflow:visible;"/>
</svg>
